  0
SECTION
  2
HEADER
  9
$ACADVER
  1
AC1009
999
L-Edit DXF writer Version 2016.2
  9
$PLINEWID
 40
10.000000
  9
$EXTMIN
 10
19.000000
 20
19.075000
 30
0.0
  9
$EXTMAX
 10
44.000000
 20
23.825000
 30
0.0
  0
ENDSEC
  0
SECTION
  2
TABLES
  0
TABLE
  2
LTYPE
 70
       1
  0
LTYPE
  2
CONTINUOUS
 70
      64
  3
CONTINUOUS
 72
      65
 73
       0
 40
0.0
  0
ENDTAB
  0
TABLE
  2
LAYER
 70
       2
  0
LAYER
  2
0
 70
      64
  6
CONTINUOUS
 62
       7
  0
LAYER
  2
Poly_FTE
 70
       0
  6
CONTINUOUS
 62
       7
  0
ENDTAB
  0
ENDSEC
  0
SECTION
  2
ENTITIES
  0
POLYLINE
  8
Poly_FTE
 66
       1
 70
       1
 10
0.0
 20
0.0
 30
0.0
  0
VERTEX
  8
Poly_FTE
 10
19.000000
 20
19.075000
 30
0.0
  0
VERTEX
  8
Poly_FTE
 10
44.000000
 20
19.075000
 30
0.0
  0
VERTEX
  8
Poly_FTE
 10
44.000000
 20
19.825000
 30
0.0
  0
VERTEX
  8
Poly_FTE
 10
19.000000
 20
19.825000
 30
0.0
  0
SEQEND
  8
Poly_FTE
  0
POLYLINE
  8
Poly_FTE
 66
       1
 70
       1
 10
0.0
 20
0.0
 30
0.0
  0
VERTEX
  8
Poly_FTE
 10
19.000000
 20
19.825000
 30
0.0
  0
VERTEX
  8
Poly_FTE
 10
20.000000
 20
19.825000
 30
0.0
  0
VERTEX
  8
Poly_FTE
 10
20.000000
 20
23.825000
 30
0.0
  0
VERTEX
  8
Poly_FTE
 10
19.000000
 20
23.825000
 30
0.0
  0
SEQEND
  8
Poly_FTE
  0
POLYLINE
  8
Poly_FTE
 66
       1
 70
       1
 10
0.0
 20
0.0
 30
0.0
  0
VERTEX
  8
Poly_FTE
 10
22.000000
 20
19.825000
 30
0.0
  0
VERTEX
  8
Poly_FTE
 10
23.000000
 20
19.825000
 30
0.0
  0
VERTEX
  8
Poly_FTE
 10
23.000000
 20
23.825000
 30
0.0
  0
VERTEX
  8
Poly_FTE
 10
22.000000
 20
23.825000
 30
0.0
  0
SEQEND
  8
Poly_FTE
  0
POLYLINE
  8
Poly_FTE
 66
       1
 70
       1
 10
0.0
 20
0.0
 30
0.0
  0
VERTEX
  8
Poly_FTE
 10
25.000000
 20
19.825000
 30
0.0
  0
VERTEX
  8
Poly_FTE
 10
26.000000
 20
19.825000
 30
0.0
  0
VERTEX
  8
Poly_FTE
 10
26.000000
 20
23.825000
 30
0.0
  0
VERTEX
  8
Poly_FTE
 10
25.000000
 20
23.825000
 30
0.0
  0
SEQEND
  8
Poly_FTE
  0
POLYLINE
  8
Poly_FTE
 66
       1
 70
       1
 10
0.0
 20
0.0
 30
0.0
  0
VERTEX
  8
Poly_FTE
 10
28.000000
 20
19.825000
 30
0.0
  0
VERTEX
  8
Poly_FTE
 10
29.000000
 20
19.825000
 30
0.0
  0
VERTEX
  8
Poly_FTE
 10
29.000000
 20
23.825000
 30
0.0
  0
VERTEX
  8
Poly_FTE
 10
28.000000
 20
23.825000
 30
0.0
  0
SEQEND
  8
Poly_FTE
  0
POLYLINE
  8
Poly_FTE
 66
       1
 70
       1
 10
0.0
 20
0.0
 30
0.0
  0
VERTEX
  8
Poly_FTE
 10
31.000000
 20
19.825000
 30
0.0
  0
VERTEX
  8
Poly_FTE
 10
32.000000
 20
19.825000
 30
0.0
  0
VERTEX
  8
Poly_FTE
 10
32.000000
 20
23.825000
 30
0.0
  0
VERTEX
  8
Poly_FTE
 10
31.000000
 20
23.825000
 30
0.0
  0
SEQEND
  8
Poly_FTE
  0
POLYLINE
  8
Poly_FTE
 66
       1
 70
       1
 10
0.0
 20
0.0
 30
0.0
  0
VERTEX
  8
Poly_FTE
 10
34.000000
 20
19.825000
 30
0.0
  0
VERTEX
  8
Poly_FTE
 10
35.000000
 20
19.825000
 30
0.0
  0
VERTEX
  8
Poly_FTE
 10
35.000000
 20
23.825000
 30
0.0
  0
VERTEX
  8
Poly_FTE
 10
34.000000
 20
23.825000
 30
0.0
  0
SEQEND
  8
Poly_FTE
  0
POLYLINE
  8
Poly_FTE
 66
       1
 70
       1
 10
0.0
 20
0.0
 30
0.0
  0
VERTEX
  8
Poly_FTE
 10
37.000000
 20
19.825000
 30
0.0
  0
VERTEX
  8
Poly_FTE
 10
38.000000
 20
19.825000
 30
0.0
  0
VERTEX
  8
Poly_FTE
 10
38.000000
 20
23.825000
 30
0.0
  0
VERTEX
  8
Poly_FTE
 10
37.000000
 20
23.825000
 30
0.0
  0
SEQEND
  8
Poly_FTE
  0
POLYLINE
  8
Poly_FTE
 66
       1
 70
       1
 10
0.0
 20
0.0
 30
0.0
  0
VERTEX
  8
Poly_FTE
 10
40.000000
 20
19.825000
 30
0.0
  0
VERTEX
  8
Poly_FTE
 10
41.000000
 20
19.825000
 30
0.0
  0
VERTEX
  8
Poly_FTE
 10
41.000000
 20
23.825000
 30
0.0
  0
VERTEX
  8
Poly_FTE
 10
40.000000
 20
23.825000
 30
0.0
  0
SEQEND
  8
Poly_FTE
  0
POLYLINE
  8
Poly_FTE
 66
       1
 70
       1
 10
0.0
 20
0.0
 30
0.0
  0
VERTEX
  8
Poly_FTE
 10
43.000000
 20
19.825000
 30
0.0
  0
VERTEX
  8
Poly_FTE
 10
44.000000
 20
19.825000
 30
0.0
  0
VERTEX
  8
Poly_FTE
 10
44.000000
 20
23.825000
 30
0.0
  0
VERTEX
  8
Poly_FTE
 10
43.000000
 20
23.825000
 30
0.0
  0
SEQEND
  8
Poly_FTE
  0
POLYLINE
  8
Poly_FTE
 66
       1
 70
       1
 10
0.0
 20
0.0
 30
0.0
  0
VERTEX
  8
Poly_FTE
 10
31.000000
 20
19.075000
 30
0.0
  0
VERTEX
  8
Poly_FTE
 10
32.000000
 20
19.075000
 30
0.0
  0
VERTEX
  8
Poly_FTE
 10
32.000000
 20
20.375000
 30
0.0
  0
VERTEX
  8
Poly_FTE
 10
31.000000
 20
20.375000
 30
0.0
  0
SEQEND
  8
Poly_FTE
  0
POLYLINE
  8
Poly_FTE
 66
       1
 70
       1
 10
0.0
 20
0.0
 30
0.0
  0
VERTEX
  8
Poly_FTE
 10
28.000000
 20
19.075000
 30
0.0
  0
VERTEX
  8
Poly_FTE
 10
29.000000
 20
19.075000
 30
0.0
  0
VERTEX
  8
Poly_FTE
 10
29.000000
 20
20.375000
 30
0.0
  0
VERTEX
  8
Poly_FTE
 10
28.000000
 20
20.375000
 30
0.0
  0
SEQEND
  8
Poly_FTE
  0
POLYLINE
  8
Poly_FTE
 66
       1
 70
       1
 10
0.0
 20
0.0
 30
0.0
  0
VERTEX
  8
Poly_FTE
 10
25.000000
 20
19.075000
 30
0.0
  0
VERTEX
  8
Poly_FTE
 10
26.000000
 20
19.075000
 30
0.0
  0
VERTEX
  8
Poly_FTE
 10
26.000000
 20
20.375000
 30
0.0
  0
VERTEX
  8
Poly_FTE
 10
25.000000
 20
20.375000
 30
0.0
  0
SEQEND
  8
Poly_FTE
  0
POLYLINE
  8
Poly_FTE
 66
       1
 70
       1
 10
0.0
 20
0.0
 30
0.0
  0
VERTEX
  8
Poly_FTE
 10
22.000000
 20
19.075000
 30
0.0
  0
VERTEX
  8
Poly_FTE
 10
23.000000
 20
19.075000
 30
0.0
  0
VERTEX
  8
Poly_FTE
 10
23.000000
 20
20.375000
 30
0.0
  0
VERTEX
  8
Poly_FTE
 10
22.000000
 20
20.375000
 30
0.0
  0
SEQEND
  8
Poly_FTE
  0
POLYLINE
  8
Poly_FTE
 66
       1
 70
       1
 10
0.0
 20
0.0
 30
0.0
  0
VERTEX
  8
Poly_FTE
 10
19.000000
 20
19.075000
 30
0.0
  0
VERTEX
  8
Poly_FTE
 10
20.000000
 20
19.075000
 30
0.0
  0
VERTEX
  8
Poly_FTE
 10
20.000000
 20
20.375000
 30
0.0
  0
VERTEX
  8
Poly_FTE
 10
19.000000
 20
20.375000
 30
0.0
  0
SEQEND
  8
Poly_FTE
  0
POLYLINE
  8
Poly_FTE
 66
       1
 70
       1
 10
0.0
 20
0.0
 30
0.0
  0
VERTEX
  8
Poly_FTE
 10
43.000000
 20
19.075000
 30
0.0
  0
VERTEX
  8
Poly_FTE
 10
44.000000
 20
19.075000
 30
0.0
  0
VERTEX
  8
Poly_FTE
 10
44.000000
 20
20.375000
 30
0.0
  0
VERTEX
  8
Poly_FTE
 10
43.000000
 20
20.375000
 30
0.0
  0
SEQEND
  8
Poly_FTE
  0
POLYLINE
  8
Poly_FTE
 66
       1
 70
       1
 10
0.0
 20
0.0
 30
0.0
  0
VERTEX
  8
Poly_FTE
 10
40.000000
 20
19.075000
 30
0.0
  0
VERTEX
  8
Poly_FTE
 10
41.000000
 20
19.075000
 30
0.0
  0
VERTEX
  8
Poly_FTE
 10
41.000000
 20
20.375000
 30
0.0
  0
VERTEX
  8
Poly_FTE
 10
40.000000
 20
20.375000
 30
0.0
  0
SEQEND
  8
Poly_FTE
  0
POLYLINE
  8
Poly_FTE
 66
       1
 70
       1
 10
0.0
 20
0.0
 30
0.0
  0
VERTEX
  8
Poly_FTE
 10
37.000000
 20
19.075000
 30
0.0
  0
VERTEX
  8
Poly_FTE
 10
38.000000
 20
19.075000
 30
0.0
  0
VERTEX
  8
Poly_FTE
 10
38.000000
 20
20.375000
 30
0.0
  0
VERTEX
  8
Poly_FTE
 10
37.000000
 20
20.375000
 30
0.0
  0
SEQEND
  8
Poly_FTE
  0
POLYLINE
  8
Poly_FTE
 66
       1
 70
       1
 10
0.0
 20
0.0
 30
0.0
  0
VERTEX
  8
Poly_FTE
 10
34.000000
 20
19.075000
 30
0.0
  0
VERTEX
  8
Poly_FTE
 10
35.000000
 20
19.075000
 30
0.0
  0
VERTEX
  8
Poly_FTE
 10
35.000000
 20
20.375000
 30
0.0
  0
VERTEX
  8
Poly_FTE
 10
34.000000
 20
20.375000
 30
0.0
  0
SEQEND
  8
Poly_FTE
  0
ENDSEC
  0
EOF
