  0
SECTION
  2
HEADER
  9
$ACADVER
  1
AC1009
999
L-Edit DXF writer Version 2016.2
  9
$PLINEWID
 40
10.000000
  9
$EXTMIN
 10
-45.891000
 20
9.147000
 30
0.0
  9
$EXTMAX
 10
75.953000
 20
60.147000
 30
0.0
  0
ENDSEC
  0
SECTION
  2
TABLES
  0
TABLE
  2
LTYPE
 70
       1
  0
LTYPE
  2
CONTINUOUS
 70
      64
  3
CONTINUOUS
 72
      65
 73
       0
 40
0.0
  0
ENDTAB
  0
TABLE
  2
LAYER
 70
       6
  0
LAYER
  2
0
 70
      64
  6
CONTINUOUS
 62
       7
  0
LAYER
  2
Si_FTE
 70
       0
  6
CONTINUOUS
 62
       7
  0
LAYER
  2
Poly_FTE
 70
       0
  6
CONTINUOUS
 62
       7
  0
LAYER
  2
Poly_PTE
 70
       0
  6
CONTINUOUS
 62
       7
  0
LAYER
  2
Oxide_FTE_drawing
 70
       0
  6
CONTINUOUS
 62
       7
  0
LAYER
  2
Oxide_PTE_drawing
 70
       0
  6
CONTINUOUS
 62
       7
  0
ENDTAB
  0
ENDSEC
  0
SECTION
  2
BLOCKS
  0
BLOCK
  2
CouplerInlet
  3
CouplerInlet
  8
0
 67
       0
 70
       0
 10
0.0
 20
0.0
 30
0.0
  0
POLYLINE
  8
Poly_FTE
 66
       1
 70
       1
 10
0.0
 20
0.0
 30
0.0
  0
VERTEX
  8
Poly_FTE
 10
-33.954000
 20
45.646000
 30
0.0
  0
VERTEX
  8
Poly_FTE
 10
-3.954000
 20
45.646000
 30
0.0
  0
VERTEX
  8
Poly_FTE
 10
-3.954000
 20
49.646000
 30
0.0
  0
VERTEX
  8
Poly_FTE
 10
-33.954000
 20
49.646000
 30
0.0
  0
SEQEND
  8
Poly_FTE
  0
POLYLINE
  8
Poly_PTE
 66
       1
 70
       1
 10
0.0
 20
0.0
 30
0.0
  0
VERTEX
  8
Poly_PTE
 10
-33.954000
 20
47.721000
 30
0.0
  0
VERTEX
  8
Poly_PTE
 10
-3.954000
 20
48.146000
 30
0.0
  0
VERTEX
  8
Poly_PTE
 10
-3.954000
 20
47.146000
 30
0.0
  0
VERTEX
  8
Poly_PTE
 10
-33.954000
 20
47.571000
 30
0.0
  0
SEQEND
  8
Poly_PTE
  0
ENDBLK
  0
BLOCK
  2
AnchorBeam_L13W1
  3
AnchorBeam_L13W1
  8
0
 67
       0
 70
       0
 10
0.0
 20
0.0
 30
0.0
  0
POLYLINE
  8
Si_FTE
 66
       1
 70
       1
 10
0.0
 20
0.0
 30
0.0
  0
VERTEX
  8
Si_FTE
 10
-35.954000
 20
28.146000
 30
0.0
  0
VERTEX
  8
Si_FTE
 10
-35.454000
 20
28.146000
 30
0.0
  0
VERTEX
  8
Si_FTE
 10
-35.454000
 20
32.646000
 30
0.0
  0
VERTEX
  8
Si_FTE
 10
-31.454000
 20
32.646000
 30
0.0
  0
VERTEX
  8
Si_FTE
 10
-31.454000
 20
28.646000
 30
0.0
  0
VERTEX
  8
Si_FTE
 10
-35.454000
 20
28.646000
 30
0.0
  0
VERTEX
  8
Si_FTE
 10
-35.454000
 20
28.146000
 30
0.0
  0
VERTEX
  8
Si_FTE
 10
-30.954000
 20
28.146000
 30
0.0
  0
VERTEX
  8
Si_FTE
 10
-30.954000
 20
33.146000
 30
0.0
  0
VERTEX
  8
Si_FTE
 10
-35.954000
 20
33.146000
 30
0.0
  0
SEQEND
  8
Si_FTE
  0
POLYLINE
  8
Poly_FTE
 66
       1
 70
       1
 10
0.0
 20
0.0
 30
0.0
  0
VERTEX
  8
Poly_FTE
 10
-35.454000
 20
28.646000
 30
0.0
  0
VERTEX
  8
Poly_FTE
 10
-31.454000
 20
28.646000
 30
0.0
  0
VERTEX
  8
Poly_FTE
 10
-31.454000
 20
32.646000
 30
0.0
  0
VERTEX
  8
Poly_FTE
 10
-35.454000
 20
32.646000
 30
0.0
  0
SEQEND
  8
Poly_FTE
  0
POLYLINE
  8
Poly_FTE
 66
       1
 70
       1
 10
0.0
 20
0.0
 30
0.0
  0
VERTEX
  8
Poly_FTE
 10
-33.954000
 20
32.646000
 30
0.0
  0
VERTEX
  8
Poly_FTE
 10
-32.954000
 20
32.646000
 30
0.0
  0
VERTEX
  8
Poly_FTE
 10
-32.954000
 20
45.646000
 30
0.0
  0
VERTEX
  8
Poly_FTE
 10
-33.954000
 20
45.646000
 30
0.0
  0
SEQEND
  8
Poly_FTE
  0
POLYLINE
  8
Oxide_FTE_drawing
 66
       1
 70
       1
 10
0.0
 20
0.0
 30
0.0
  0
VERTEX
  8
Oxide_FTE_drawing
 10
-34.954000
 20
29.146000
 30
0.0
  0
VERTEX
  8
Oxide_FTE_drawing
 10
-31.954000
 20
29.146000
 30
0.0
  0
VERTEX
  8
Oxide_FTE_drawing
 10
-31.954000
 20
32.146000
 30
0.0
  0
VERTEX
  8
Oxide_FTE_drawing
 10
-34.954000
 20
32.146000
 30
0.0
  0
SEQEND
  8
Oxide_FTE_drawing
  0
ENDBLK
  0
BLOCK
  2
AnchoredCouplerInlet_woComb
  3
AnchoredCouplerInlet_woComb
  8
0
 67
       0
 70
       0
 10
0.0
 20
0.0
 30
0.0
  0
POLYLINE
  8
Si_FTE
 66
       1
 70
       1
 10
0.0
 20
0.0
 30
0.0
  0
VERTEX
  8
Si_FTE
 10
-1.954000
 20
62.646000
 30
0.0
  0
VERTEX
  8
Si_FTE
 10
-6.454000
 20
62.646000
 30
0.0
  0
VERTEX
  8
Si_FTE
 10
-6.454000
 20
67.146000
 30
0.0
  0
VERTEX
  8
Si_FTE
 10
-6.954000
 20
67.146000
 30
0.0
  0
VERTEX
  8
Si_FTE
 10
-6.954000
 20
62.146000
 30
0.0
  0
VERTEX
  8
Si_FTE
 10
-1.954000
 20
62.146000
 30
0.0
  0
SEQEND
  8
Si_FTE
  0
POLYLINE
  8
Si_FTE
 66
       1
 70
       1
 10
0.0
 20
0.0
 30
0.0
  0
VERTEX
  8
Si_FTE
 10
-6.954000
 20
28.146000
 30
0.0
  0
VERTEX
  8
Si_FTE
 10
-6.454000
 20
28.646000
 30
0.0
  0
VERTEX
  8
Si_FTE
 10
-6.454000
 20
32.646000
 30
0.0
  0
VERTEX
  8
Si_FTE
 10
-2.454000
 20
32.646000
 30
0.0
  0
VERTEX
  8
Si_FTE
 10
-1.954000
 20
33.146000
 30
0.0
  0
VERTEX
  8
Si_FTE
 10
-6.954000
 20
33.146000
 30
0.0
  0
SEQEND
  8
Si_FTE
  0
POLYLINE
  8
Poly_FTE
 66
       1
 70
       1
 10
0.0
 20
0.0
 30
0.0
  0
VERTEX
  8
Poly_FTE
 10
-6.454000
 20
62.646000
 30
0.0
  0
VERTEX
  8
Poly_FTE
 10
-2.454000
 20
62.646000
 30
0.0
  0
VERTEX
  8
Poly_FTE
 10
-2.454000
 20
66.646000
 30
0.0
  0
VERTEX
  8
Poly_FTE
 10
-6.454000
 20
66.646000
 30
0.0
  0
SEQEND
  8
Poly_FTE
  0
POLYLINE
  8
Poly_FTE
 66
       1
 70
       1
 10
0.0
 20
0.0
 30
0.0
  0
VERTEX
  8
Poly_FTE
 10
-6.454000
 20
28.646000
 30
0.0
  0
VERTEX
  8
Poly_FTE
 10
-2.454000
 20
28.646000
 30
0.0
  0
VERTEX
  8
Poly_FTE
 10
-2.454000
 20
32.646000
 30
0.0
  0
VERTEX
  8
Poly_FTE
 10
-6.454000
 20
32.646000
 30
0.0
  0
SEQEND
  8
Poly_FTE
  0
POLYLINE
  8
Poly_FTE
 66
       1
 70
       1
 10
0.0
 20
0.0
 30
0.0
  0
VERTEX
  8
Poly_FTE
 10
-4.954000
 20
32.646000
 30
0.0
  0
VERTEX
  8
Poly_FTE
 10
-3.954000
 20
32.646000
 30
0.0
  0
VERTEX
  8
Poly_FTE
 10
-3.954000
 20
45.646000
 30
0.0
  0
VERTEX
  8
Poly_FTE
 10
-4.954000
 20
45.646000
 30
0.0
  0
SEQEND
  8
Poly_FTE
  0
POLYLINE
  8
Poly_FTE
 66
       1
 70
       1
 10
0.0
 20
0.0
 30
0.0
  0
VERTEX
  8
Poly_FTE
 10
-4.954000
 20
49.646000
 30
0.0
  0
VERTEX
  8
Poly_FTE
 10
-3.954000
 20
49.646000
 30
0.0
  0
VERTEX
  8
Poly_FTE
 10
-3.954000
 20
62.646000
 30
0.0
  0
VERTEX
  8
Poly_FTE
 10
-4.954000
 20
62.646000
 30
0.0
  0
SEQEND
  8
Poly_FTE
  0
POLYLINE
  8
Oxide_FTE_drawing
 66
       1
 70
       1
 10
0.0
 20
0.0
 30
0.0
  0
VERTEX
  8
Oxide_FTE_drawing
 10
-5.954000
 20
29.146000
 30
0.0
  0
VERTEX
  8
Oxide_FTE_drawing
 10
-2.954000
 20
29.146000
 30
0.0
  0
VERTEX
  8
Oxide_FTE_drawing
 10
-2.954000
 20
32.146000
 30
0.0
  0
VERTEX
  8
Oxide_FTE_drawing
 10
-5.954000
 20
32.146000
 30
0.0
  0
SEQEND
  8
Oxide_FTE_drawing
  0
POLYLINE
  8
Oxide_FTE_drawing
 66
       1
 70
       1
 10
0.0
 20
0.0
 30
0.0
  0
VERTEX
  8
Oxide_FTE_drawing
 10
-5.954000
 20
63.146000
 30
0.0
  0
VERTEX
  8
Oxide_FTE_drawing
 10
-2.954000
 20
63.146000
 30
0.0
  0
VERTEX
  8
Oxide_FTE_drawing
 10
-2.954000
 20
66.146000
 30
0.0
  0
VERTEX
  8
Oxide_FTE_drawing
 10
-5.954000
 20
66.146000
 30
0.0
  0
SEQEND
  8
Oxide_FTE_drawing
  0
INSERT
  8
0
  2
CouplerInlet
 10
0.0
 20
0.0
 30
0.0
  0
INSERT
  8
0
  2
AnchorBeam_L13W1
 10
-66.908000
 20
95.292000
 30
0.0
 50
180.000000
  0
INSERT
  8
0
  2
AnchorBeam_L13W1
 10
0.0
 20
0.0
 30
0.0
  0
ENDBLK
  0
BLOCK
  2
ElectrodeTurn
  3
ElectrodeTurn
  8
0
 67
       0
 70
       0
 10
0.0
 20
0.0
 30
0.0
  0
POLYLINE
  8
Si_FTE
 66
       1
 70
       1
 10
0.0
 20
0.0
 30
0.0
  0
VERTEX
  8
Si_FTE
 10
-41.954000
 20
68.146000
 30
0.0
  0
VERTEX
  8
Si_FTE
 10
-41.454000
 20
68.146000
 30
0.0
  0
VERTEX
  8
Si_FTE
 10
-41.454000
 20
72.646000
 30
0.0
  0
VERTEX
  8
Si_FTE
 10
-26.704000
 20
72.646000
 30
0.0
  0
VERTEX
  8
Si_FTE
 10
-26.704000
 20
73.146000
 30
0.0
  0
VERTEX
  8
Si_FTE
 10
-41.954000
 20
73.146000
 30
0.0
  0
SEQEND
  8
Si_FTE
  0
POLYLINE
  8
Si_FTE
 66
       1
 70
       1
 10
0.0
 20
0.0
 30
0.0
  0
VERTEX
  8
Si_FTE
 10
-37.454000
 20
54.896000
 30
0.0
  0
VERTEX
  8
Si_FTE
 10
-36.954000
 20
54.896000
 30
0.0
  0
VERTEX
  8
Si_FTE
 10
-36.954000
 20
68.146000
 30
0.0
  0
VERTEX
  8
Si_FTE
 10
-37.454000
 20
68.146000
 30
0.0
  0
SEQEND
  8
Si_FTE
  0
POLYLINE
  8
Si_FTE
 66
       1
 70
       1
 10
0.0
 20
0.0
 30
0.0
  0
VERTEX
  8
Si_FTE
 10
-16.704000
 20
72.646000
 30
0.0
  0
VERTEX
  8
Si_FTE
 10
-11.204000
 20
72.646000
 30
0.0
  0
VERTEX
  8
Si_FTE
 10
-11.204000
 20
59.646000
 30
0.0
  0
VERTEX
  8
Si_FTE
 10
-10.704000
 20
59.646000
 30
0.0
  0
VERTEX
  8
Si_FTE
 10
-10.704000
 20
73.146000
 30
0.0
  0
VERTEX
  8
Si_FTE
 10
-16.704000
 20
73.146000
 30
0.0
  0
SEQEND
  8
Si_FTE
  0
POLYLINE
  8
Si_FTE
 66
       1
 70
       1
 10
0.0
 20
0.0
 30
0.0
  0
VERTEX
  8
Si_FTE
 10
-37.454000
 20
68.146000
 30
0.0
  0
VERTEX
  8
Si_FTE
 10
-26.704000
 20
68.146000
 30
0.0
  0
VERTEX
  8
Si_FTE
 10
-26.704000
 20
68.646000
 30
0.0
  0
VERTEX
  8
Si_FTE
 10
-37.454000
 20
68.646000
 30
0.0
  0
SEQEND
  8
Si_FTE
  0
POLYLINE
  8
Si_FTE
 66
       1
 70
       1
 10
0.0
 20
0.0
 30
0.0
  0
VERTEX
  8
Si_FTE
 10
-41.954000
 20
54.896000
 30
0.0
  0
VERTEX
  8
Si_FTE
 10
-41.454000
 20
54.896000
 30
0.0
  0
VERTEX
  8
Si_FTE
 10
-41.454000
 20
68.146000
 30
0.0
  0
VERTEX
  8
Si_FTE
 10
-41.954000
 20
68.146000
 30
0.0
  0
SEQEND
  8
Si_FTE
  0
POLYLINE
  8
Si_FTE
 66
       1
 70
       1
 10
0.0
 20
0.0
 30
0.0
  0
VERTEX
  8
Si_FTE
 10
-26.704000
 20
72.646000
 30
0.0
  0
VERTEX
  8
Si_FTE
 10
-20.704000
 20
72.646000
 30
0.0
  0
VERTEX
  8
Si_FTE
 10
-20.704000
 20
73.146000
 30
0.0
  0
VERTEX
  8
Si_FTE
 10
-26.704000
 20
73.146000
 30
0.0
  0
SEQEND
  8
Si_FTE
  0
POLYLINE
  8
Si_FTE
 66
       1
 70
       1
 10
0.0
 20
0.0
 30
0.0
  0
VERTEX
  8
Si_FTE
 10
-26.704000
 20
59.646000
 30
0.0
  0
VERTEX
  8
Si_FTE
 10
-26.204000
 20
59.646000
 30
0.0
  0
VERTEX
  8
Si_FTE
 10
-26.204000
 20
68.646000
 30
0.0
  0
VERTEX
  8
Si_FTE
 10
-26.704000
 20
68.646000
 30
0.0
  0
SEQEND
  8
Si_FTE
  0
POLYLINE
  8
Poly_FTE
 66
       1
 70
       1
 10
0.0
 20
0.0
 30
0.0
  0
VERTEX
  8
Poly_FTE
 10
-41.454000
 20
55.396000
 30
0.0
  0
VERTEX
  8
Poly_FTE
 10
-37.454000
 20
55.396000
 30
0.0
  0
VERTEX
  8
Poly_FTE
 10
-37.454000
 20
68.646000
 30
0.0
  0
VERTEX
  8
Poly_FTE
 10
-41.454000
 20
68.646000
 30
0.0
  0
SEQEND
  8
Poly_FTE
  0
POLYLINE
  8
Poly_FTE
 66
       1
 70
       1
 10
0.0
 20
0.0
 30
0.0
  0
VERTEX
  8
Poly_FTE
 10
-41.454000
 20
68.646000
 30
0.0
  0
VERTEX
  8
Poly_FTE
 10
-26.204000
 20
68.646000
 30
0.0
  0
VERTEX
  8
Poly_FTE
 10
-26.204000
 20
72.646000
 30
0.0
  0
VERTEX
  8
Poly_FTE
 10
-41.454000
 20
72.646000
 30
0.0
  0
SEQEND
  8
Poly_FTE
  0
POLYLINE
  8
Poly_FTE
 66
       1
 70
       1
 10
0.0
 20
0.0
 30
0.0
  0
VERTEX
  8
Poly_FTE
 10
-26.204000
 20
59.646000
 30
0.0
  0
VERTEX
  8
Poly_FTE
 10
-11.204000
 20
59.646000
 30
0.0
  0
VERTEX
  8
Poly_FTE
 10
-11.204000
 20
72.646000
 30
0.0
  0
VERTEX
  8
Poly_FTE
 10
-26.204000
 20
72.646000
 30
0.0
  0
SEQEND
  8
Poly_FTE
  0
POLYLINE
  8
Poly_PTE
 66
       1
 70
       1
 10
0.0
 20
0.0
 30
0.0
  0
VERTEX
  8
Poly_PTE
 10
-41.954000
 20
54.896000
 30
0.0
  0
VERTEX
  8
Poly_PTE
 10
-36.954000
 20
54.896000
 30
0.0
  0
VERTEX
  8
Poly_PTE
 10
-36.954000
 20
68.146000
 30
0.0
  0
VERTEX
  8
Poly_PTE
 10
-41.954000
 20
68.146000
 30
0.0
  0
SEQEND
  8
Poly_PTE
  0
POLYLINE
  8
Poly_PTE
 66
       1
 70
       1
 10
0.0
 20
0.0
 30
0.0
  0
VERTEX
  8
Poly_PTE
 10
-41.954000
 20
68.146000
 30
0.0
  0
VERTEX
  8
Poly_PTE
 10
-26.704000
 20
68.146000
 30
0.0
  0
VERTEX
  8
Poly_PTE
 10
-26.704000
 20
73.146000
 30
0.0
  0
VERTEX
  8
Poly_PTE
 10
-41.954000
 20
73.146000
 30
0.0
  0
SEQEND
  8
Poly_PTE
  0
POLYLINE
  8
Poly_PTE
 66
       1
 70
       1
 10
0.0
 20
0.0
 30
0.0
  0
VERTEX
  8
Poly_PTE
 10
-26.704000
 20
59.146000
 30
0.0
  0
VERTEX
  8
Poly_PTE
 10
-10.704000
 20
59.146000
 30
0.0
  0
VERTEX
  8
Poly_PTE
 10
-10.704000
 20
73.146000
 30
0.0
  0
VERTEX
  8
Poly_PTE
 10
-26.704000
 20
73.146000
 30
0.0
  0
SEQEND
  8
Poly_PTE
  0
POLYLINE
  8
Oxide_FTE_drawing
 66
       1
 70
       1
 10
0.0
 20
0.0
 30
0.0
  0
VERTEX
  8
Oxide_FTE_drawing
 10
-40.954000
 20
55.896000
 30
0.0
  0
VERTEX
  8
Oxide_FTE_drawing
 10
-37.954000
 20
55.896000
 30
0.0
  0
VERTEX
  8
Oxide_FTE_drawing
 10
-37.954000
 20
69.146000
 30
0.0
  0
VERTEX
  8
Oxide_FTE_drawing
 10
-40.954000
 20
69.146000
 30
0.0
  0
SEQEND
  8
Oxide_FTE_drawing
  0
POLYLINE
  8
Oxide_FTE_drawing
 66
       1
 70
       1
 10
0.0
 20
0.0
 30
0.0
  0
VERTEX
  8
Oxide_FTE_drawing
 10
-40.954000
 20
69.146000
 30
0.0
  0
VERTEX
  8
Oxide_FTE_drawing
 10
-25.704000
 20
69.146000
 30
0.0
  0
VERTEX
  8
Oxide_FTE_drawing
 10
-25.704000
 20
72.146000
 30
0.0
  0
VERTEX
  8
Oxide_FTE_drawing
 10
-40.954000
 20
72.146000
 30
0.0
  0
SEQEND
  8
Oxide_FTE_drawing
  0
POLYLINE
  8
Oxide_FTE_drawing
 66
       1
 70
       1
 10
0.0
 20
0.0
 30
0.0
  0
VERTEX
  8
Oxide_FTE_drawing
 10
-25.704000
 20
59.146000
 30
0.0
  0
VERTEX
  8
Oxide_FTE_drawing
 10
-11.704000
 20
59.146000
 30
0.0
  0
VERTEX
  8
Oxide_FTE_drawing
 10
-11.704000
 20
72.146000
 30
0.0
  0
VERTEX
  8
Oxide_FTE_drawing
 10
-25.704000
 20
72.146000
 30
0.0
  0
SEQEND
  8
Oxide_FTE_drawing
  0
ENDBLK
  0
BLOCK
  2
Bridge_Short
  3
Bridge_Short
  8
0
 67
       0
 70
       0
 10
0.0
 20
0.0
 30
0.0
  0
POLYLINE
  8
Si_FTE
 66
       1
 70
       1
 10
0.0
 20
0.0
 30
0.0
  0
VERTEX
  8
Si_FTE
 10
-46.704000
 20
49.897000
 30
0.0
  0
VERTEX
  8
Si_FTE
 10
-41.704000
 20
49.897000
 30
0.0
  0
VERTEX
  8
Si_FTE
 10
-41.704000
 20
54.897000
 30
0.0
  0
VERTEX
  8
Si_FTE
 10
-42.204000
 20
54.897000
 30
0.0
  0
VERTEX
  8
Si_FTE
 10
-42.204000
 20
50.397000
 30
0.0
  0
VERTEX
  8
Si_FTE
 10
-46.204000
 20
50.397000
 30
0.0
  0
VERTEX
  8
Si_FTE
 10
-46.204000
 20
54.897000
 30
0.0
  0
VERTEX
  8
Si_FTE
 10
-46.704000
 20
54.897000
 30
0.0
  0
SEQEND
  8
Si_FTE
  0
POLYLINE
  8
Si_FTE
 66
       1
 70
       1
 10
0.0
 20
0.0
 30
0.0
  0
VERTEX
  8
Si_FTE
 10
-46.704000
 20
40.397000
 30
0.0
  0
VERTEX
  8
Si_FTE
 10
-46.204000
 20
40.397000
 30
0.0
  0
VERTEX
  8
Si_FTE
 10
-46.204000
 20
44.897000
 30
0.0
  0
VERTEX
  8
Si_FTE
 10
-42.204000
 20
44.897000
 30
0.0
  0
VERTEX
  8
Si_FTE
 10
-42.204000
 20
40.397000
 30
0.0
  0
VERTEX
  8
Si_FTE
 10
-41.704000
 20
40.397000
 30
0.0
  0
VERTEX
  8
Si_FTE
 10
-41.704000
 20
45.397000
 30
0.0
  0
VERTEX
  8
Si_FTE
 10
-46.704000
 20
45.397000
 30
0.0
  0
SEQEND
  8
Si_FTE
  0
POLYLINE
  8
Poly_FTE
 66
       1
 70
       1
 10
0.0
 20
0.0
 30
0.0
  0
VERTEX
  8
Poly_FTE
 10
-46.204000
 20
44.897000
 30
0.0
  0
VERTEX
  8
Poly_FTE
 10
-42.204000
 20
44.897000
 30
0.0
  0
VERTEX
  8
Poly_FTE
 10
-42.204000
 20
50.397000
 30
0.0
  0
VERTEX
  8
Poly_FTE
 10
-46.204000
 20
50.397000
 30
0.0
  0
SEQEND
  8
Poly_FTE
  0
POLYLINE
  8
Poly_FTE
 66
       1
 70
       1
 10
0.0
 20
0.0
 30
0.0
  0
VERTEX
  8
Poly_FTE
 10
-46.204000
 20
39.897000
 30
0.0
  0
VERTEX
  8
Poly_FTE
 10
-42.204000
 20
39.897000
 30
0.0
  0
VERTEX
  8
Poly_FTE
 10
-42.204000
 20
44.897000
 30
0.0
  0
VERTEX
  8
Poly_FTE
 10
-46.204000
 20
44.897000
 30
0.0
  0
SEQEND
  8
Poly_FTE
  0
POLYLINE
  8
Poly_FTE
 66
       1
 70
       1
 10
0.0
 20
0.0
 30
0.0
  0
VERTEX
  8
Poly_FTE
 10
-46.204000
 20
50.397000
 30
0.0
  0
VERTEX
  8
Poly_FTE
 10
-42.204000
 20
50.397000
 30
0.0
  0
VERTEX
  8
Poly_FTE
 10
-42.204000
 20
55.397000
 30
0.0
  0
VERTEX
  8
Poly_FTE
 10
-46.204000
 20
55.397000
 30
0.0
  0
SEQEND
  8
Poly_FTE
  0
POLYLINE
  8
Poly_PTE
 66
       1
 70
       1
 10
0.0
 20
0.0
 30
0.0
  0
VERTEX
  8
Poly_PTE
 10
-46.704000
 20
45.397000
 30
0.0
  0
VERTEX
  8
Poly_PTE
 10
-41.704000
 20
45.397000
 30
0.0
  0
VERTEX
  8
Poly_PTE
 10
-41.704000
 20
49.897000
 30
0.0
  0
VERTEX
  8
Poly_PTE
 10
-46.704000
 20
49.897000
 30
0.0
  0
SEQEND
  8
Poly_PTE
  0
POLYLINE
  8
Poly_PTE
 66
       1
 70
       1
 10
0.0
 20
0.0
 30
0.0
  0
VERTEX
  8
Poly_PTE
 10
-46.704000
 20
40.396000
 30
0.0
  0
VERTEX
  8
Poly_PTE
 10
-41.704000
 20
40.396000
 30
0.0
  0
VERTEX
  8
Poly_PTE
 10
-41.704000
 20
45.397000
 30
0.0
  0
VERTEX
  8
Poly_PTE
 10
-46.704000
 20
45.397000
 30
0.0
  0
SEQEND
  8
Poly_PTE
  0
POLYLINE
  8
Poly_PTE
 66
       1
 70
       1
 10
0.0
 20
0.0
 30
0.0
  0
VERTEX
  8
Poly_PTE
 10
-46.704000
 20
49.897000
 30
0.0
  0
VERTEX
  8
Poly_PTE
 10
-41.704000
 20
49.897000
 30
0.0
  0
VERTEX
  8
Poly_PTE
 10
-41.704000
 20
54.897000
 30
0.0
  0
VERTEX
  8
Poly_PTE
 10
-46.704000
 20
54.897000
 30
0.0
  0
SEQEND
  8
Poly_PTE
  0
POLYLINE
  8
Oxide_FTE_drawing
 66
       1
 70
       1
 10
0.0
 20
0.0
 30
0.0
  0
VERTEX
  8
Oxide_FTE_drawing
 10
-45.704000
 20
39.397000
 30
0.0
  0
VERTEX
  8
Oxide_FTE_drawing
 10
-42.704000
 20
39.397000
 30
0.0
  0
VERTEX
  8
Oxide_FTE_drawing
 10
-42.704000
 20
44.397000
 30
0.0
  0
VERTEX
  8
Oxide_FTE_drawing
 10
-45.704000
 20
44.397000
 30
0.0
  0
SEQEND
  8
Oxide_FTE_drawing
  0
POLYLINE
  8
Oxide_FTE_drawing
 66
       1
 70
       1
 10
0.0
 20
0.0
 30
0.0
  0
VERTEX
  8
Oxide_FTE_drawing
 10
-45.704000
 20
50.897000
 30
0.0
  0
VERTEX
  8
Oxide_FTE_drawing
 10
-42.704000
 20
50.897000
 30
0.0
  0
VERTEX
  8
Oxide_FTE_drawing
 10
-42.704000
 20
55.897000
 30
0.0
  0
VERTEX
  8
Oxide_FTE_drawing
 10
-45.704000
 20
55.897000
 30
0.0
  0
SEQEND
  8
Oxide_FTE_drawing
  0
ENDBLK
  0
BLOCK
  2
CombElectrode
  3
CombElectrode
  8
0
 67
       0
 70
       0
 10
0.0
 20
0.0
 30
0.0
  0
POLYLINE
  8
Si_FTE
 66
       1
 70
       1
 10
0.0
 20
0.0
 30
0.0
  0
VERTEX
  8
Si_FTE
 10
-41.954000
 20
54.867000
 30
0.0
  0
VERTEX
  8
Si_FTE
 10
-41.454000
 20
54.867000
 30
0.0
  0
VERTEX
  8
Si_FTE
 10
-41.454000
 20
54.938000
 30
0.0
  0
VERTEX
  8
Si_FTE
 10
-41.954000
 20
54.938000
 30
0.0
  0
SEQEND
  8
Si_FTE
  0
INSERT
  8
0
  2
ElectrodeTurn
 10
0.0
 20
0.001000
 30
0.0
  0
INSERT
  8
0
  2
ElectrodeTurn
 10
0.0
 20
95.293000
 30
0.0
 41
-1.000000
 42
1.000000
 50
180.000000
  0
INSERT
  8
0
  2
Bridge_Short
 10
4.750000
 20
0.0
 30
0.0
  0
ENDBLK
  0
BLOCK
  2
Comb_L4W1_G500_D500_Stopp54757
  3
Comb_L4W1_G500_D500_Stopp54757
  8
0
 67
       0
 70
       0
 10
0.0
 20
0.0
 30
0.0
  0
POLYLINE
  8
Si_FTE
 66
       1
 70
       1
 10
0.0
 20
0.0
 30
0.0
  0
VERTEX
  8
Si_FTE
 10
214.141000
 20
5.825000
 30
0.0
  0
VERTEX
  8
Si_FTE
 10
240.141000
 20
5.825000
 30
0.0
  0
VERTEX
  8
Si_FTE
 10
240.141000
 20
11.325000
 30
0.0
  0
VERTEX
  8
Si_FTE
 10
234.891000
 20
11.325000
 30
0.0
  0
VERTEX
  8
Si_FTE
 10
234.891000
 20
10.825000
 30
0.0
  0
VERTEX
  8
Si_FTE
 10
239.641000
 20
10.825000
 30
0.0
  0
VERTEX
  8
Si_FTE
 10
239.641000
 20
6.325000
 30
0.0
  0
VERTEX
  8
Si_FTE
 10
214.641000
 20
6.325000
 30
0.0
  0
VERTEX
  8
Si_FTE
 10
214.641000
 20
10.825000
 30
0.0
  0
VERTEX
  8
Si_FTE
 10
219.891000
 20
10.825000
 30
0.0
  0
VERTEX
  8
Si_FTE
 10
219.891000
 20
11.325000
 30
0.0
  0
VERTEX
  8
Si_FTE
 10
214.141000
 20
11.325000
 30
0.0
  0
SEQEND
  8
Si_FTE
  0
POLYLINE
  8
Poly_FTE
 66
       1
 70
       1
 10
0.0
 20
0.0
 30
0.0
  0
VERTEX
  8
Poly_FTE
 10
231.141000
 20
2.075000
 30
0.0
  0
VERTEX
  8
Poly_FTE
 10
232.141000
 20
2.075000
 30
0.0
  0
VERTEX
  8
Poly_FTE
 10
232.141000
 20
6.325000
 30
0.0
  0
VERTEX
  8
Poly_FTE
 10
231.141000
 20
6.325000
 30
0.0
  0
SEQEND
  8
Poly_FTE
  0
POLYLINE
  8
Poly_FTE
 66
       1
 70
       1
 10
0.0
 20
0.0
 30
0.0
  0
VERTEX
  8
Poly_FTE
 10
228.141000
 20
2.075000
 30
0.0
  0
VERTEX
  8
Poly_FTE
 10
229.141000
 20
2.075000
 30
0.0
  0
VERTEX
  8
Poly_FTE
 10
229.141000
 20
6.325000
 30
0.0
  0
VERTEX
  8
Poly_FTE
 10
228.141000
 20
6.325000
 30
0.0
  0
SEQEND
  8
Poly_FTE
  0
POLYLINE
  8
Poly_FTE
 66
       1
 70
       1
 10
0.0
 20
0.0
 30
0.0
  0
VERTEX
  8
Poly_FTE
 10
219.141000
 20
2.075000
 30
0.0
  0
VERTEX
  8
Poly_FTE
 10
220.141000
 20
2.075000
 30
0.0
  0
VERTEX
  8
Poly_FTE
 10
220.141000
 20
6.325000
 30
0.0
  0
VERTEX
  8
Poly_FTE
 10
219.141000
 20
6.325000
 30
0.0
  0
SEQEND
  8
Poly_FTE
  0
POLYLINE
  8
Poly_FTE
 66
       1
 70
       1
 10
0.0
 20
0.0
 30
0.0
  0
VERTEX
  8
Poly_FTE
 10
222.141000
 20
2.075000
 30
0.0
  0
VERTEX
  8
Poly_FTE
 10
223.141000
 20
2.075000
 30
0.0
  0
VERTEX
  8
Poly_FTE
 10
223.141000
 20
6.325000
 30
0.0
  0
VERTEX
  8
Poly_FTE
 10
222.141000
 20
6.325000
 30
0.0
  0
SEQEND
  8
Poly_FTE
  0
POLYLINE
  8
Poly_FTE
 66
       1
 70
       1
 10
0.0
 20
0.0
 30
0.0
  0
VERTEX
  8
Poly_FTE
 10
225.141000
 20
2.075000
 30
0.0
  0
VERTEX
  8
Poly_FTE
 10
226.141000
 20
2.075000
 30
0.0
  0
VERTEX
  8
Poly_FTE
 10
226.141000
 20
6.325000
 30
0.0
  0
VERTEX
  8
Poly_FTE
 10
225.141000
 20
6.325000
 30
0.0
  0
SEQEND
  8
Poly_FTE
  0
POLYLINE
  8
Poly_FTE
 66
       1
 70
       1
 10
0.0
 20
0.0
 30
0.0
  0
VERTEX
  8
Poly_FTE
 10
237.141000
 20
2.075000
 30
0.0
  0
VERTEX
  8
Poly_FTE
 10
238.141000
 20
2.075000
 30
0.0
  0
VERTEX
  8
Poly_FTE
 10
238.141000
 20
6.325000
 30
0.0
  0
VERTEX
  8
Poly_FTE
 10
237.141000
 20
6.325000
 30
0.0
  0
SEQEND
  8
Poly_FTE
  0
POLYLINE
  8
Poly_FTE
 66
       1
 70
       1
 10
0.0
 20
0.0
 30
0.0
  0
VERTEX
  8
Poly_FTE
 10
234.141000
 20
2.075000
 30
0.0
  0
VERTEX
  8
Poly_FTE
 10
235.141000
 20
2.075000
 30
0.0
  0
VERTEX
  8
Poly_FTE
 10
235.141000
 20
6.325000
 30
0.0
  0
VERTEX
  8
Poly_FTE
 10
234.141000
 20
6.325000
 30
0.0
  0
SEQEND
  8
Poly_FTE
  0
POLYLINE
  8
Poly_FTE
 66
       1
 70
       1
 10
0.0
 20
0.0
 30
0.0
  0
VERTEX
  8
Poly_FTE
 10
216.141000
 20
2.075000
 30
0.0
  0
VERTEX
  8
Poly_FTE
 10
217.141000
 20
2.075000
 30
0.0
  0
VERTEX
  8
Poly_FTE
 10
217.141000
 20
6.325000
 30
0.0
  0
VERTEX
  8
Poly_FTE
 10
216.141000
 20
6.325000
 30
0.0
  0
SEQEND
  8
Poly_FTE
  0
POLYLINE
  8
Poly_FTE
 66
       1
 70
       1
 10
0.0
 20
0.0
 30
0.0
  0
VERTEX
  8
Poly_FTE
 10
214.641000
 20
0.825000
 30
0.0
  0
VERTEX
  8
Poly_FTE
 10
239.641000
 20
0.825000
 30
0.0
  0
VERTEX
  8
Poly_FTE
 10
239.641000
 20
1.575000
 30
0.0
  0
VERTEX
  8
Poly_FTE
 10
214.641000
 20
1.575000
 30
0.0
  0
SEQEND
  8
Poly_FTE
  0
POLYLINE
  8
Poly_FTE
 66
       1
 70
       1
 10
0.0
 20
0.0
 30
0.0
  0
VERTEX
  8
Poly_FTE
 10
214.641000
 20
1.575000
 30
0.0
  0
VERTEX
  8
Poly_FTE
 10
215.641000
 20
1.575000
 30
0.0
  0
VERTEX
  8
Poly_FTE
 10
215.641000
 20
5.575000
 30
0.0
  0
VERTEX
  8
Poly_FTE
 10
214.641000
 20
5.575000
 30
0.0
  0
SEQEND
  8
Poly_FTE
  0
POLYLINE
  8
Poly_FTE
 66
       1
 70
       1
 10
0.0
 20
0.0
 30
0.0
  0
VERTEX
  8
Poly_FTE
 10
217.641000
 20
1.575000
 30
0.0
  0
VERTEX
  8
Poly_FTE
 10
218.641000
 20
1.575000
 30
0.0
  0
VERTEX
  8
Poly_FTE
 10
218.641000
 20
5.575000
 30
0.0
  0
VERTEX
  8
Poly_FTE
 10
217.641000
 20
5.575000
 30
0.0
  0
SEQEND
  8
Poly_FTE
  0
POLYLINE
  8
Poly_FTE
 66
       1
 70
       1
 10
0.0
 20
0.0
 30
0.0
  0
VERTEX
  8
Poly_FTE
 10
220.641000
 20
1.575000
 30
0.0
  0
VERTEX
  8
Poly_FTE
 10
221.641000
 20
1.575000
 30
0.0
  0
VERTEX
  8
Poly_FTE
 10
221.641000
 20
5.575000
 30
0.0
  0
VERTEX
  8
Poly_FTE
 10
220.641000
 20
5.575000
 30
0.0
  0
SEQEND
  8
Poly_FTE
  0
POLYLINE
  8
Poly_FTE
 66
       1
 70
       1
 10
0.0
 20
0.0
 30
0.0
  0
VERTEX
  8
Poly_FTE
 10
223.641000
 20
1.575000
 30
0.0
  0
VERTEX
  8
Poly_FTE
 10
224.641000
 20
1.575000
 30
0.0
  0
VERTEX
  8
Poly_FTE
 10
224.641000
 20
5.575000
 30
0.0
  0
VERTEX
  8
Poly_FTE
 10
223.641000
 20
5.575000
 30
0.0
  0
SEQEND
  8
Poly_FTE
  0
POLYLINE
  8
Poly_FTE
 66
       1
 70
       1
 10
0.0
 20
0.0
 30
0.0
  0
VERTEX
  8
Poly_FTE
 10
226.641000
 20
1.575000
 30
0.0
  0
VERTEX
  8
Poly_FTE
 10
227.641000
 20
1.575000
 30
0.0
  0
VERTEX
  8
Poly_FTE
 10
227.641000
 20
5.575000
 30
0.0
  0
VERTEX
  8
Poly_FTE
 10
226.641000
 20
5.575000
 30
0.0
  0
SEQEND
  8
Poly_FTE
  0
POLYLINE
  8
Poly_FTE
 66
       1
 70
       1
 10
0.0
 20
0.0
 30
0.0
  0
VERTEX
  8
Poly_FTE
 10
229.641000
 20
1.575000
 30
0.0
  0
VERTEX
  8
Poly_FTE
 10
230.641000
 20
1.575000
 30
0.0
  0
VERTEX
  8
Poly_FTE
 10
230.641000
 20
5.575000
 30
0.0
  0
VERTEX
  8
Poly_FTE
 10
229.641000
 20
5.575000
 30
0.0
  0
SEQEND
  8
Poly_FTE
  0
POLYLINE
  8
Poly_FTE
 66
       1
 70
       1
 10
0.0
 20
0.0
 30
0.0
  0
VERTEX
  8
Poly_FTE
 10
232.641000
 20
1.575000
 30
0.0
  0
VERTEX
  8
Poly_FTE
 10
233.641000
 20
1.575000
 30
0.0
  0
VERTEX
  8
Poly_FTE
 10
233.641000
 20
5.575000
 30
0.0
  0
VERTEX
  8
Poly_FTE
 10
232.641000
 20
5.575000
 30
0.0
  0
SEQEND
  8
Poly_FTE
  0
POLYLINE
  8
Poly_FTE
 66
       1
 70
       1
 10
0.0
 20
0.0
 30
0.0
  0
VERTEX
  8
Poly_FTE
 10
235.641000
 20
1.575000
 30
0.0
  0
VERTEX
  8
Poly_FTE
 10
236.641000
 20
1.575000
 30
0.0
  0
VERTEX
  8
Poly_FTE
 10
236.641000
 20
5.575000
 30
0.0
  0
VERTEX
  8
Poly_FTE
 10
235.641000
 20
5.575000
 30
0.0
  0
SEQEND
  8
Poly_FTE
  0
POLYLINE
  8
Poly_FTE
 66
       1
 70
       1
 10
0.0
 20
0.0
 30
0.0
  0
VERTEX
  8
Poly_FTE
 10
238.641000
 20
1.575000
 30
0.0
  0
VERTEX
  8
Poly_FTE
 10
239.641000
 20
1.575000
 30
0.0
  0
VERTEX
  8
Poly_FTE
 10
239.641000
 20
5.575000
 30
0.0
  0
VERTEX
  8
Poly_FTE
 10
238.641000
 20
5.575000
 30
0.0
  0
SEQEND
  8
Poly_FTE
  0
POLYLINE
  8
Poly_FTE
 66
       1
 70
       1
 10
0.0
 20
0.0
 30
0.0
  0
VERTEX
  8
Poly_FTE
 10
214.641000
 20
6.325000
 30
0.0
  0
VERTEX
  8
Poly_FTE
 10
239.641000
 20
6.325000
 30
0.0
  0
VERTEX
  8
Poly_FTE
 10
239.641000
 20
10.825000
 30
0.0
  0
VERTEX
  8
Poly_FTE
 10
214.641000
 20
10.825000
 30
0.0
  0
SEQEND
  8
Poly_FTE
  0
POLYLINE
  8
Poly_FTE
 66
       1
 70
       1
 10
0.0
 20
0.0
 30
0.0
  0
VERTEX
  8
Poly_FTE
 10
226.641000
 20
0.825000
 30
0.0
  0
VERTEX
  8
Poly_FTE
 10
227.641000
 20
0.825000
 30
0.0
  0
VERTEX
  8
Poly_FTE
 10
227.641000
 20
2.125000
 30
0.0
  0
VERTEX
  8
Poly_FTE
 10
226.641000
 20
2.125000
 30
0.0
  0
SEQEND
  8
Poly_FTE
  0
POLYLINE
  8
Poly_FTE
 66
       1
 70
       1
 10
0.0
 20
0.0
 30
0.0
  0
VERTEX
  8
Poly_FTE
 10
223.641000
 20
0.825000
 30
0.0
  0
VERTEX
  8
Poly_FTE
 10
224.641000
 20
0.825000
 30
0.0
  0
VERTEX
  8
Poly_FTE
 10
224.641000
 20
2.125000
 30
0.0
  0
VERTEX
  8
Poly_FTE
 10
223.641000
 20
2.125000
 30
0.0
  0
SEQEND
  8
Poly_FTE
  0
POLYLINE
  8
Poly_FTE
 66
       1
 70
       1
 10
0.0
 20
0.0
 30
0.0
  0
VERTEX
  8
Poly_FTE
 10
220.641000
 20
0.825000
 30
0.0
  0
VERTEX
  8
Poly_FTE
 10
221.641000
 20
0.825000
 30
0.0
  0
VERTEX
  8
Poly_FTE
 10
221.641000
 20
2.125000
 30
0.0
  0
VERTEX
  8
Poly_FTE
 10
220.641000
 20
2.125000
 30
0.0
  0
SEQEND
  8
Poly_FTE
  0
POLYLINE
  8
Poly_FTE
 66
       1
 70
       1
 10
0.0
 20
0.0
 30
0.0
  0
VERTEX
  8
Poly_FTE
 10
217.641000
 20
0.825000
 30
0.0
  0
VERTEX
  8
Poly_FTE
 10
218.641000
 20
0.825000
 30
0.0
  0
VERTEX
  8
Poly_FTE
 10
218.641000
 20
2.125000
 30
0.0
  0
VERTEX
  8
Poly_FTE
 10
217.641000
 20
2.125000
 30
0.0
  0
SEQEND
  8
Poly_FTE
  0
POLYLINE
  8
Poly_FTE
 66
       1
 70
       1
 10
0.0
 20
0.0
 30
0.0
  0
VERTEX
  8
Poly_FTE
 10
214.641000
 20
0.825000
 30
0.0
  0
VERTEX
  8
Poly_FTE
 10
215.641000
 20
0.825000
 30
0.0
  0
VERTEX
  8
Poly_FTE
 10
215.641000
 20
2.125000
 30
0.0
  0
VERTEX
  8
Poly_FTE
 10
214.641000
 20
2.125000
 30
0.0
  0
SEQEND
  8
Poly_FTE
  0
POLYLINE
  8
Poly_FTE
 66
       1
 70
       1
 10
0.0
 20
0.0
 30
0.0
  0
VERTEX
  8
Poly_FTE
 10
238.641000
 20
0.825000
 30
0.0
  0
VERTEX
  8
Poly_FTE
 10
239.641000
 20
0.825000
 30
0.0
  0
VERTEX
  8
Poly_FTE
 10
239.641000
 20
2.125000
 30
0.0
  0
VERTEX
  8
Poly_FTE
 10
238.641000
 20
2.125000
 30
0.0
  0
SEQEND
  8
Poly_FTE
  0
POLYLINE
  8
Poly_FTE
 66
       1
 70
       1
 10
0.0
 20
0.0
 30
0.0
  0
VERTEX
  8
Poly_FTE
 10
235.641000
 20
0.825000
 30
0.0
  0
VERTEX
  8
Poly_FTE
 10
236.641000
 20
0.825000
 30
0.0
  0
VERTEX
  8
Poly_FTE
 10
236.641000
 20
2.125000
 30
0.0
  0
VERTEX
  8
Poly_FTE
 10
235.641000
 20
2.125000
 30
0.0
  0
SEQEND
  8
Poly_FTE
  0
POLYLINE
  8
Poly_FTE
 66
       1
 70
       1
 10
0.0
 20
0.0
 30
0.0
  0
VERTEX
  8
Poly_FTE
 10
232.641000
 20
0.825000
 30
0.0
  0
VERTEX
  8
Poly_FTE
 10
233.641000
 20
0.825000
 30
0.0
  0
VERTEX
  8
Poly_FTE
 10
233.641000
 20
2.125000
 30
0.0
  0
VERTEX
  8
Poly_FTE
 10
232.641000
 20
2.125000
 30
0.0
  0
SEQEND
  8
Poly_FTE
  0
POLYLINE
  8
Poly_FTE
 66
       1
 70
       1
 10
0.0
 20
0.0
 30
0.0
  0
VERTEX
  8
Poly_FTE
 10
229.641000
 20
0.825000
 30
0.0
  0
VERTEX
  8
Poly_FTE
 10
230.641000
 20
0.825000
 30
0.0
  0
VERTEX
  8
Poly_FTE
 10
230.641000
 20
2.125000
 30
0.0
  0
VERTEX
  8
Poly_FTE
 10
229.641000
 20
2.125000
 30
0.0
  0
SEQEND
  8
Poly_FTE
  0
POLYLINE
  8
Poly_PTE
 66
       1
 70
       1
 10
0.0
 20
0.0
 30
0.0
  0
VERTEX
  8
Poly_PTE
 10
214.141000
 20
0.325000
 30
0.0
  0
VERTEX
  8
Poly_PTE
 10
240.141000
 20
0.325000
 30
0.0
  0
VERTEX
  8
Poly_PTE
 10
240.141000
 20
11.325000
 30
0.0
  0
VERTEX
  8
Poly_PTE
 10
214.141000
 20
11.325000
 30
0.0
  0
SEQEND
  8
Poly_PTE
  0
POLYLINE
  8
Oxide_FTE_drawing
 66
       1
 70
       1
 10
0.0
 20
0.0
 30
0.0
  0
VERTEX
  8
Oxide_FTE_drawing
 10
215.141000
 20
6.825000
 30
0.0
  0
VERTEX
  8
Oxide_FTE_drawing
 10
239.141000
 20
6.825000
 30
0.0
  0
VERTEX
  8
Oxide_FTE_drawing
 10
239.141000
 20
10.325000
 30
0.0
  0
VERTEX
  8
Oxide_FTE_drawing
 10
215.141000
 20
10.325000
 30
0.0
  0
SEQEND
  8
Oxide_FTE_drawing
  0
CIRCLE
  8
Oxide_PTE_drawing
 10
239.141000
 20
3.575000
 40
0.300000
  0
CIRCLE
  8
Oxide_PTE_drawing
 10
236.141000
 20
3.575000
 40
0.300000
  0
CIRCLE
  8
Oxide_PTE_drawing
 10
233.141000
 20
3.575000
 40
0.300000
  0
CIRCLE
  8
Oxide_PTE_drawing
 10
230.141000
 20
3.575000
 40
0.300000
  0
CIRCLE
  8
Oxide_PTE_drawing
 10
227.141000
 20
3.575000
 40
0.300000
  0
CIRCLE
  8
Oxide_PTE_drawing
 10
224.141000
 20
3.575000
 40
0.300000
  0
CIRCLE
  8
Oxide_PTE_drawing
 10
221.141000
 20
3.575000
 40
0.300000
  0
CIRCLE
  8
Oxide_PTE_drawing
 10
218.141000
 20
3.575000
 40
0.300000
  0
CIRCLE
  8
Oxide_PTE_drawing
 10
215.141000
 20
3.575000
 40
0.300000
  0
ENDBLK
  0
BLOCK
  2
Actuator_StoppersCenter
  3
Actuator_StoppersCenter
  8
0
 67
       0
 70
       0
 10
0.0
 20
0.0
 30
0.0
  0
INSERT
  8
0
  2
AnchoredCouplerInlet_woComb
 10
0.0
 20
0.0
 30
0.0
  0
INSERT
  8
0
  2
CombElectrode
 10
0.0
 20
-0.001000
 30
0.0
  0
INSERT
  8
0
  2
Comb_L4W1_G500_D500_Stopp54757
 10
-246.095000
 20
48.821000
 30
0.0
  0
INSERT
  8
0
  2
Comb_L4W1_G500_D500_Stopp54757
 10
-246.095000
 20
46.471000
 30
0.0
 41
-1.000000
 42
1.000000
 50
180.000000
  0
ENDBLK
  0
BLOCK
  2
CouplerBody
  3
CouplerBody
  8
0
 67
       0
 70
       0
 10
0.0
 20
0.0
 30
0.0
  0
POLYLINE
  8
Poly_FTE
 66
       1
 70
       1
 10
0.0
 20
0.0
 30
0.0
  0
VERTEX
  8
Poly_FTE
 10
20.817000
 20
22.054000
 30
0.0
  0
VERTEX
  8
Poly_FTE
 10
66.661000
 20
22.054000
 30
0.0
  0
VERTEX
  8
Poly_FTE
 10
66.661000
 20
26.054000
 30
0.0
  0
VERTEX
  8
Poly_FTE
 10
20.817000
 20
26.054000
 30
0.0
  0
SEQEND
  8
Poly_FTE
  0
POLYLINE
  8
Poly_PTE
 66
       1
 70
       1
 10
0.0
 20
0.0
 30
0.0
  0
VERTEX
  8
Poly_PTE
 10
20.817000
 20
23.554000
 30
0.0
  0
VERTEX
  8
Poly_PTE
 10
66.661000
 20
23.554000
 30
0.0
  0
VERTEX
  8
Poly_PTE
 10
66.661000
 20
24.554000
 30
0.0
  0
VERTEX
  8
Poly_PTE
 10
20.817000
 20
24.554000
 30
0.0
  0
SEQEND
  8
Poly_PTE
  0
ENDBLK
  0
ENDSEC
  0
SECTION
  2
ENTITIES
  0
INSERT
  8
0
  2
Actuator_StoppersCenter
 10
33.999000
 20
-12.999000
 30
0.0
 41
-1.000000
 42
1.000000
  0
INSERT
  8
0
  2
Actuator_StoppersCenter
 10
-3.937000
 20
-12.999000
 30
0.0
  0
INSERT
  8
0
  2
CouplerBody
 10
-28.708000
 20
10.593000
 30
0.0
  0
ENDSEC
  0
EOF
