  0
SECTION
  2
HEADER
  9
$ACADVER
  1
AC1009
999
L-Edit DXF writer Version 2016.2
  9
$PLINEWID
 40
10.000000
  9
$EXTMIN
 10
-39.955000
 20
15.147000
 30
0.0
  9
$EXTMAX
 10
69.889000
 20
54.147000
 30
0.0
  0
ENDSEC
  0
SECTION
  2
TABLES
  0
TABLE
  2
LTYPE
 70
       1
  0
LTYPE
  2
CONTINUOUS
 70
      64
  3
CONTINUOUS
 72
      65
 73
       0
 40
0.0
  0
ENDTAB
  0
TABLE
  2
LAYER
 70
       5
  0
LAYER
  2
0
 70
      64
  6
CONTINUOUS
 62
       7
  0
LAYER
  2
Si_FTE
 70
       0
  6
CONTINUOUS
 62
       7
  0
LAYER
  2
Poly_FTE
 70
       0
  6
CONTINUOUS
 62
       7
  0
LAYER
  2
Poly_PTE
 70
       0
  6
CONTINUOUS
 62
       7
  0
LAYER
  2
Oxide_FTE_drawing
 70
       0
  6
CONTINUOUS
 62
       7
  0
ENDTAB
  0
ENDSEC
  0
SECTION
  2
ENTITIES
  0
POLYLINE
  8
Si_FTE
 66
       1
 70
       1
 10
0.0
 20
0.0
 30
0.0
  0
VERTEX
  8
Si_FTE
 10
35.889000
 20
49.647000
 30
0.0
  0
VERTEX
  8
Si_FTE
 10
40.389000
 20
49.647000
 30
0.0
  0
VERTEX
  8
Si_FTE
 10
40.389000
 20
54.147000
 30
0.0
  0
VERTEX
  8
Si_FTE
 10
40.889000
 20
54.147000
 30
0.0
  0
VERTEX
  8
Si_FTE
 10
40.889000
 20
49.147000
 30
0.0
  0
VERTEX
  8
Si_FTE
 10
35.889000
 20
49.147000
 30
0.0
  0
SEQEND
  8
Si_FTE
  0
POLYLINE
  8
Si_FTE
 66
       1
 70
       1
 10
0.0
 20
0.0
 30
0.0
  0
VERTEX
  8
Si_FTE
 10
40.889000
 20
15.147000
 30
0.0
  0
VERTEX
  8
Si_FTE
 10
40.389000
 20
15.647000
 30
0.0
  0
VERTEX
  8
Si_FTE
 10
40.389000
 20
19.647000
 30
0.0
  0
VERTEX
  8
Si_FTE
 10
36.389000
 20
19.647000
 30
0.0
  0
VERTEX
  8
Si_FTE
 10
35.889000
 20
20.147000
 30
0.0
  0
VERTEX
  8
Si_FTE
 10
40.889000
 20
20.147000
 30
0.0
  0
SEQEND
  8
Si_FTE
  0
POLYLINE
  8
Poly_FTE
 66
       1
 70
       1
 10
0.0
 20
0.0
 30
0.0
  0
VERTEX
  8
Poly_FTE
 10
40.389000
 20
49.647000
 30
0.0
  0
VERTEX
  8
Poly_FTE
 10
36.389000
 20
49.647000
 30
0.0
  0
VERTEX
  8
Poly_FTE
 10
36.389000
 20
53.647000
 30
0.0
  0
VERTEX
  8
Poly_FTE
 10
40.389000
 20
53.647000
 30
0.0
  0
SEQEND
  8
Poly_FTE
  0
POLYLINE
  8
Poly_FTE
 66
       1
 70
       1
 10
0.0
 20
0.0
 30
0.0
  0
VERTEX
  8
Poly_FTE
 10
40.389000
 20
15.647000
 30
0.0
  0
VERTEX
  8
Poly_FTE
 10
36.389000
 20
15.647000
 30
0.0
  0
VERTEX
  8
Poly_FTE
 10
36.389000
 20
19.647000
 30
0.0
  0
VERTEX
  8
Poly_FTE
 10
40.389000
 20
19.647000
 30
0.0
  0
SEQEND
  8
Poly_FTE
  0
POLYLINE
  8
Poly_FTE
 66
       1
 70
       1
 10
0.0
 20
0.0
 30
0.0
  0
VERTEX
  8
Poly_FTE
 10
38.889000
 20
19.647000
 30
0.0
  0
VERTEX
  8
Poly_FTE
 10
37.889000
 20
19.647000
 30
0.0
  0
VERTEX
  8
Poly_FTE
 10
37.889000
 20
32.647000
 30
0.0
  0
VERTEX
  8
Poly_FTE
 10
38.889000
 20
32.647000
 30
0.0
  0
SEQEND
  8
Poly_FTE
  0
POLYLINE
  8
Poly_FTE
 66
       1
 70
       1
 10
0.0
 20
0.0
 30
0.0
  0
VERTEX
  8
Poly_FTE
 10
38.889000
 20
36.647000
 30
0.0
  0
VERTEX
  8
Poly_FTE
 10
37.889000
 20
36.647000
 30
0.0
  0
VERTEX
  8
Poly_FTE
 10
37.889000
 20
49.647000
 30
0.0
  0
VERTEX
  8
Poly_FTE
 10
38.889000
 20
49.647000
 30
0.0
  0
SEQEND
  8
Poly_FTE
  0
POLYLINE
  8
Oxide_FTE_drawing
 66
       1
 70
       1
 10
0.0
 20
0.0
 30
0.0
  0
VERTEX
  8
Oxide_FTE_drawing
 10
39.889000
 20
16.147000
 30
0.0
  0
VERTEX
  8
Oxide_FTE_drawing
 10
36.889000
 20
16.147000
 30
0.0
  0
VERTEX
  8
Oxide_FTE_drawing
 10
36.889000
 20
19.147000
 30
0.0
  0
VERTEX
  8
Oxide_FTE_drawing
 10
39.889000
 20
19.147000
 30
0.0
  0
SEQEND
  8
Oxide_FTE_drawing
  0
POLYLINE
  8
Oxide_FTE_drawing
 66
       1
 70
       1
 10
0.0
 20
0.0
 30
0.0
  0
VERTEX
  8
Oxide_FTE_drawing
 10
39.889000
 20
50.147000
 30
0.0
  0
VERTEX
  8
Oxide_FTE_drawing
 10
36.889000
 20
50.147000
 30
0.0
  0
VERTEX
  8
Oxide_FTE_drawing
 10
36.889000
 20
53.147000
 30
0.0
  0
VERTEX
  8
Oxide_FTE_drawing
 10
39.889000
 20
53.147000
 30
0.0
  0
SEQEND
  8
Oxide_FTE_drawing
  0
POLYLINE
  8
Poly_FTE
 66
       1
 70
       1
 10
0.0
 20
0.0
 30
0.0
  0
VERTEX
  8
Poly_FTE
 10
67.889000
 20
32.647000
 30
0.0
  0
VERTEX
  8
Poly_FTE
 10
37.889000
 20
32.647000
 30
0.0
  0
VERTEX
  8
Poly_FTE
 10
37.889000
 20
36.647000
 30
0.0
  0
VERTEX
  8
Poly_FTE
 10
67.889000
 20
36.647000
 30
0.0
  0
SEQEND
  8
Poly_FTE
  0
POLYLINE
  8
Poly_PTE
 66
       1
 70
       1
 10
0.0
 20
0.0
 30
0.0
  0
VERTEX
  8
Poly_PTE
 10
67.889000
 20
34.722000
 30
0.0
  0
VERTEX
  8
Poly_PTE
 10
37.889000
 20
35.147000
 30
0.0
  0
VERTEX
  8
Poly_PTE
 10
37.889000
 20
34.147000
 30
0.0
  0
VERTEX
  8
Poly_PTE
 10
67.889000
 20
34.572000
 30
0.0
  0
SEQEND
  8
Poly_PTE
  0
POLYLINE
  8
Si_FTE
 66
       1
 70
       1
 10
0.0
 20
0.0
 30
0.0
  0
VERTEX
  8
Si_FTE
 10
64.889000
 20
54.147000
 30
0.0
  0
VERTEX
  8
Si_FTE
 10
65.389000
 20
54.147000
 30
0.0
  0
VERTEX
  8
Si_FTE
 10
65.389000
 20
49.647000
 30
0.0
  0
VERTEX
  8
Si_FTE
 10
69.389000
 20
49.647000
 30
0.0
  0
VERTEX
  8
Si_FTE
 10
69.389000
 20
53.647000
 30
0.0
  0
VERTEX
  8
Si_FTE
 10
65.389000
 20
53.647000
 30
0.0
  0
VERTEX
  8
Si_FTE
 10
65.389000
 20
54.147000
 30
0.0
  0
VERTEX
  8
Si_FTE
 10
69.889000
 20
54.147000
 30
0.0
  0
VERTEX
  8
Si_FTE
 10
69.889000
 20
49.147000
 30
0.0
  0
VERTEX
  8
Si_FTE
 10
64.889000
 20
49.147000
 30
0.0
  0
SEQEND
  8
Si_FTE
  0
POLYLINE
  8
Poly_FTE
 66
       1
 70
       1
 10
0.0
 20
0.0
 30
0.0
  0
VERTEX
  8
Poly_FTE
 10
65.389000
 20
53.647000
 30
0.0
  0
VERTEX
  8
Poly_FTE
 10
69.389000
 20
53.647000
 30
0.0
  0
VERTEX
  8
Poly_FTE
 10
69.389000
 20
49.647000
 30
0.0
  0
VERTEX
  8
Poly_FTE
 10
65.389000
 20
49.647000
 30
0.0
  0
SEQEND
  8
Poly_FTE
  0
POLYLINE
  8
Poly_FTE
 66
       1
 70
       1
 10
0.0
 20
0.0
 30
0.0
  0
VERTEX
  8
Poly_FTE
 10
66.889000
 20
49.647000
 30
0.0
  0
VERTEX
  8
Poly_FTE
 10
67.889000
 20
49.647000
 30
0.0
  0
VERTEX
  8
Poly_FTE
 10
67.889000
 20
36.647000
 30
0.0
  0
VERTEX
  8
Poly_FTE
 10
66.889000
 20
36.647000
 30
0.0
  0
SEQEND
  8
Poly_FTE
  0
POLYLINE
  8
Oxide_FTE_drawing
 66
       1
 70
       1
 10
0.0
 20
0.0
 30
0.0
  0
VERTEX
  8
Oxide_FTE_drawing
 10
65.889000
 20
53.147000
 30
0.0
  0
VERTEX
  8
Oxide_FTE_drawing
 10
68.889000
 20
53.147000
 30
0.0
  0
VERTEX
  8
Oxide_FTE_drawing
 10
68.889000
 20
50.147000
 30
0.0
  0
VERTEX
  8
Oxide_FTE_drawing
 10
65.889000
 20
50.147000
 30
0.0
  0
SEQEND
  8
Oxide_FTE_drawing
  0
POLYLINE
  8
Si_FTE
 66
       1
 70
       1
 10
0.0
 20
0.0
 30
0.0
  0
VERTEX
  8
Si_FTE
 10
69.889000
 20
15.147000
 30
0.0
  0
VERTEX
  8
Si_FTE
 10
69.389000
 20
15.147000
 30
0.0
  0
VERTEX
  8
Si_FTE
 10
69.389000
 20
19.647000
 30
0.0
  0
VERTEX
  8
Si_FTE
 10
65.389000
 20
19.647000
 30
0.0
  0
VERTEX
  8
Si_FTE
 10
65.389000
 20
15.647000
 30
0.0
  0
VERTEX
  8
Si_FTE
 10
69.389000
 20
15.647000
 30
0.0
  0
VERTEX
  8
Si_FTE
 10
69.389000
 20
15.147000
 30
0.0
  0
VERTEX
  8
Si_FTE
 10
64.889000
 20
15.147000
 30
0.0
  0
VERTEX
  8
Si_FTE
 10
64.889000
 20
20.147000
 30
0.0
  0
VERTEX
  8
Si_FTE
 10
69.889000
 20
20.147000
 30
0.0
  0
SEQEND
  8
Si_FTE
  0
POLYLINE
  8
Poly_FTE
 66
       1
 70
       1
 10
0.0
 20
0.0
 30
0.0
  0
VERTEX
  8
Poly_FTE
 10
69.389000
 20
15.647000
 30
0.0
  0
VERTEX
  8
Poly_FTE
 10
65.389000
 20
15.647000
 30
0.0
  0
VERTEX
  8
Poly_FTE
 10
65.389000
 20
19.647000
 30
0.0
  0
VERTEX
  8
Poly_FTE
 10
69.389000
 20
19.647000
 30
0.0
  0
SEQEND
  8
Poly_FTE
  0
POLYLINE
  8
Poly_FTE
 66
       1
 70
       1
 10
0.0
 20
0.0
 30
0.0
  0
VERTEX
  8
Poly_FTE
 10
67.889000
 20
19.647000
 30
0.0
  0
VERTEX
  8
Poly_FTE
 10
66.889000
 20
19.647000
 30
0.0
  0
VERTEX
  8
Poly_FTE
 10
66.889000
 20
32.647000
 30
0.0
  0
VERTEX
  8
Poly_FTE
 10
67.889000
 20
32.647000
 30
0.0
  0
SEQEND
  8
Poly_FTE
  0
POLYLINE
  8
Oxide_FTE_drawing
 66
       1
 70
       1
 10
0.0
 20
0.0
 30
0.0
  0
VERTEX
  8
Oxide_FTE_drawing
 10
68.889000
 20
16.147000
 30
0.0
  0
VERTEX
  8
Oxide_FTE_drawing
 10
65.889000
 20
16.147000
 30
0.0
  0
VERTEX
  8
Oxide_FTE_drawing
 10
65.889000
 20
19.147000
 30
0.0
  0
VERTEX
  8
Oxide_FTE_drawing
 10
68.889000
 20
19.147000
 30
0.0
  0
SEQEND
  8
Oxide_FTE_drawing
  0
POLYLINE
  8
Poly_FTE
 66
       1
 70
       1
 10
0.0
 20
0.0
 30
0.0
  0
VERTEX
  8
Poly_FTE
 10
-7.955000
 20
32.647000
 30
0.0
  0
VERTEX
  8
Poly_FTE
 10
37.889000
 20
32.647000
 30
0.0
  0
VERTEX
  8
Poly_FTE
 10
37.889000
 20
36.647000
 30
0.0
  0
VERTEX
  8
Poly_FTE
 10
-7.955000
 20
36.647000
 30
0.0
  0
SEQEND
  8
Poly_FTE
  0
POLYLINE
  8
Poly_PTE
 66
       1
 70
       1
 10
0.0
 20
0.0
 30
0.0
  0
VERTEX
  8
Poly_PTE
 10
-7.955000
 20
34.147000
 30
0.0
  0
VERTEX
  8
Poly_PTE
 10
37.889000
 20
34.147000
 30
0.0
  0
VERTEX
  8
Poly_PTE
 10
37.889000
 20
35.147000
 30
0.0
  0
VERTEX
  8
Poly_PTE
 10
-7.955000
 20
35.147000
 30
0.0
  0
SEQEND
  8
Poly_PTE
  0
POLYLINE
  8
Si_FTE
 66
       1
 70
       1
 10
0.0
 20
0.0
 30
0.0
  0
VERTEX
  8
Si_FTE
 10
-5.955000
 20
49.647000
 30
0.0
  0
VERTEX
  8
Si_FTE
 10
-10.455000
 20
49.647000
 30
0.0
  0
VERTEX
  8
Si_FTE
 10
-10.455000
 20
54.147000
 30
0.0
  0
VERTEX
  8
Si_FTE
 10
-10.955000
 20
54.147000
 30
0.0
  0
VERTEX
  8
Si_FTE
 10
-10.955000
 20
49.147000
 30
0.0
  0
VERTEX
  8
Si_FTE
 10
-5.955000
 20
49.147000
 30
0.0
  0
SEQEND
  8
Si_FTE
  0
POLYLINE
  8
Si_FTE
 66
       1
 70
       1
 10
0.0
 20
0.0
 30
0.0
  0
VERTEX
  8
Si_FTE
 10
-10.955000
 20
15.147000
 30
0.0
  0
VERTEX
  8
Si_FTE
 10
-10.455000
 20
15.647000
 30
0.0
  0
VERTEX
  8
Si_FTE
 10
-10.455000
 20
19.647000
 30
0.0
  0
VERTEX
  8
Si_FTE
 10
-6.455000
 20
19.647000
 30
0.0
  0
VERTEX
  8
Si_FTE
 10
-5.955000
 20
20.147000
 30
0.0
  0
VERTEX
  8
Si_FTE
 10
-10.955000
 20
20.147000
 30
0.0
  0
SEQEND
  8
Si_FTE
  0
POLYLINE
  8
Poly_FTE
 66
       1
 70
       1
 10
0.0
 20
0.0
 30
0.0
  0
VERTEX
  8
Poly_FTE
 10
-10.455000
 20
49.647000
 30
0.0
  0
VERTEX
  8
Poly_FTE
 10
-6.455000
 20
49.647000
 30
0.0
  0
VERTEX
  8
Poly_FTE
 10
-6.455000
 20
53.647000
 30
0.0
  0
VERTEX
  8
Poly_FTE
 10
-10.455000
 20
53.647000
 30
0.0
  0
SEQEND
  8
Poly_FTE
  0
POLYLINE
  8
Poly_FTE
 66
       1
 70
       1
 10
0.0
 20
0.0
 30
0.0
  0
VERTEX
  8
Poly_FTE
 10
-10.455000
 20
15.647000
 30
0.0
  0
VERTEX
  8
Poly_FTE
 10
-6.455000
 20
15.647000
 30
0.0
  0
VERTEX
  8
Poly_FTE
 10
-6.455000
 20
19.647000
 30
0.0
  0
VERTEX
  8
Poly_FTE
 10
-10.455000
 20
19.647000
 30
0.0
  0
SEQEND
  8
Poly_FTE
  0
POLYLINE
  8
Poly_FTE
 66
       1
 70
       1
 10
0.0
 20
0.0
 30
0.0
  0
VERTEX
  8
Poly_FTE
 10
-8.955000
 20
19.647000
 30
0.0
  0
VERTEX
  8
Poly_FTE
 10
-7.955000
 20
19.647000
 30
0.0
  0
VERTEX
  8
Poly_FTE
 10
-7.955000
 20
32.647000
 30
0.0
  0
VERTEX
  8
Poly_FTE
 10
-8.955000
 20
32.647000
 30
0.0
  0
SEQEND
  8
Poly_FTE
  0
POLYLINE
  8
Poly_FTE
 66
       1
 70
       1
 10
0.0
 20
0.0
 30
0.0
  0
VERTEX
  8
Poly_FTE
 10
-8.955000
 20
36.647000
 30
0.0
  0
VERTEX
  8
Poly_FTE
 10
-7.955000
 20
36.647000
 30
0.0
  0
VERTEX
  8
Poly_FTE
 10
-7.955000
 20
49.647000
 30
0.0
  0
VERTEX
  8
Poly_FTE
 10
-8.955000
 20
49.647000
 30
0.0
  0
SEQEND
  8
Poly_FTE
  0
POLYLINE
  8
Oxide_FTE_drawing
 66
       1
 70
       1
 10
0.0
 20
0.0
 30
0.0
  0
VERTEX
  8
Oxide_FTE_drawing
 10
-9.955000
 20
16.147000
 30
0.0
  0
VERTEX
  8
Oxide_FTE_drawing
 10
-6.955000
 20
16.147000
 30
0.0
  0
VERTEX
  8
Oxide_FTE_drawing
 10
-6.955000
 20
19.147000
 30
0.0
  0
VERTEX
  8
Oxide_FTE_drawing
 10
-9.955000
 20
19.147000
 30
0.0
  0
SEQEND
  8
Oxide_FTE_drawing
  0
POLYLINE
  8
Oxide_FTE_drawing
 66
       1
 70
       1
 10
0.0
 20
0.0
 30
0.0
  0
VERTEX
  8
Oxide_FTE_drawing
 10
-9.955000
 20
50.147000
 30
0.0
  0
VERTEX
  8
Oxide_FTE_drawing
 10
-6.955000
 20
50.147000
 30
0.0
  0
VERTEX
  8
Oxide_FTE_drawing
 10
-6.955000
 20
53.147000
 30
0.0
  0
VERTEX
  8
Oxide_FTE_drawing
 10
-9.955000
 20
53.147000
 30
0.0
  0
SEQEND
  8
Oxide_FTE_drawing
  0
POLYLINE
  8
Poly_FTE
 66
       1
 70
       1
 10
0.0
 20
0.0
 30
0.0
  0
VERTEX
  8
Poly_FTE
 10
-37.955000
 20
32.647000
 30
0.0
  0
VERTEX
  8
Poly_FTE
 10
-7.955000
 20
32.647000
 30
0.0
  0
VERTEX
  8
Poly_FTE
 10
-7.955000
 20
36.647000
 30
0.0
  0
VERTEX
  8
Poly_FTE
 10
-37.955000
 20
36.647000
 30
0.0
  0
SEQEND
  8
Poly_FTE
  0
POLYLINE
  8
Poly_PTE
 66
       1
 70
       1
 10
0.0
 20
0.0
 30
0.0
  0
VERTEX
  8
Poly_PTE
 10
-37.955000
 20
34.722000
 30
0.0
  0
VERTEX
  8
Poly_PTE
 10
-7.955000
 20
35.147000
 30
0.0
  0
VERTEX
  8
Poly_PTE
 10
-7.955000
 20
34.147000
 30
0.0
  0
VERTEX
  8
Poly_PTE
 10
-37.955000
 20
34.572000
 30
0.0
  0
SEQEND
  8
Poly_PTE
  0
POLYLINE
  8
Si_FTE
 66
       1
 70
       1
 10
0.0
 20
0.0
 30
0.0
  0
VERTEX
  8
Si_FTE
 10
-34.955000
 20
54.147000
 30
0.0
  0
VERTEX
  8
Si_FTE
 10
-35.455000
 20
54.147000
 30
0.0
  0
VERTEX
  8
Si_FTE
 10
-35.455000
 20
49.647000
 30
0.0
  0
VERTEX
  8
Si_FTE
 10
-39.455000
 20
49.647000
 30
0.0
  0
VERTEX
  8
Si_FTE
 10
-39.455000
 20
53.647000
 30
0.0
  0
VERTEX
  8
Si_FTE
 10
-35.455000
 20
53.647000
 30
0.0
  0
VERTEX
  8
Si_FTE
 10
-35.455000
 20
54.147000
 30
0.0
  0
VERTEX
  8
Si_FTE
 10
-39.955000
 20
54.147000
 30
0.0
  0
VERTEX
  8
Si_FTE
 10
-39.955000
 20
49.147000
 30
0.0
  0
VERTEX
  8
Si_FTE
 10
-34.955000
 20
49.147000
 30
0.0
  0
SEQEND
  8
Si_FTE
  0
POLYLINE
  8
Poly_FTE
 66
       1
 70
       1
 10
0.0
 20
0.0
 30
0.0
  0
VERTEX
  8
Poly_FTE
 10
-35.455000
 20
53.647000
 30
0.0
  0
VERTEX
  8
Poly_FTE
 10
-39.455000
 20
53.647000
 30
0.0
  0
VERTEX
  8
Poly_FTE
 10
-39.455000
 20
49.647000
 30
0.0
  0
VERTEX
  8
Poly_FTE
 10
-35.455000
 20
49.647000
 30
0.0
  0
SEQEND
  8
Poly_FTE
  0
POLYLINE
  8
Poly_FTE
 66
       1
 70
       1
 10
0.0
 20
0.0
 30
0.0
  0
VERTEX
  8
Poly_FTE
 10
-36.955000
 20
49.647000
 30
0.0
  0
VERTEX
  8
Poly_FTE
 10
-37.955000
 20
49.647000
 30
0.0
  0
VERTEX
  8
Poly_FTE
 10
-37.955000
 20
36.647000
 30
0.0
  0
VERTEX
  8
Poly_FTE
 10
-36.955000
 20
36.647000
 30
0.0
  0
SEQEND
  8
Poly_FTE
  0
POLYLINE
  8
Oxide_FTE_drawing
 66
       1
 70
       1
 10
0.0
 20
0.0
 30
0.0
  0
VERTEX
  8
Oxide_FTE_drawing
 10
-35.955000
 20
53.147000
 30
0.0
  0
VERTEX
  8
Oxide_FTE_drawing
 10
-38.955000
 20
53.147000
 30
0.0
  0
VERTEX
  8
Oxide_FTE_drawing
 10
-38.955000
 20
50.147000
 30
0.0
  0
VERTEX
  8
Oxide_FTE_drawing
 10
-35.955000
 20
50.147000
 30
0.0
  0
SEQEND
  8
Oxide_FTE_drawing
  0
POLYLINE
  8
Si_FTE
 66
       1
 70
       1
 10
0.0
 20
0.0
 30
0.0
  0
VERTEX
  8
Si_FTE
 10
-39.955000
 20
15.147000
 30
0.0
  0
VERTEX
  8
Si_FTE
 10
-39.455000
 20
15.147000
 30
0.0
  0
VERTEX
  8
Si_FTE
 10
-39.455000
 20
19.647000
 30
0.0
  0
VERTEX
  8
Si_FTE
 10
-35.455000
 20
19.647000
 30
0.0
  0
VERTEX
  8
Si_FTE
 10
-35.455000
 20
15.647000
 30
0.0
  0
VERTEX
  8
Si_FTE
 10
-39.455000
 20
15.647000
 30
0.0
  0
VERTEX
  8
Si_FTE
 10
-39.455000
 20
15.147000
 30
0.0
  0
VERTEX
  8
Si_FTE
 10
-34.955000
 20
15.147000
 30
0.0
  0
VERTEX
  8
Si_FTE
 10
-34.955000
 20
20.147000
 30
0.0
  0
VERTEX
  8
Si_FTE
 10
-39.955000
 20
20.147000
 30
0.0
  0
SEQEND
  8
Si_FTE
  0
POLYLINE
  8
Poly_FTE
 66
       1
 70
       1
 10
0.0
 20
0.0
 30
0.0
  0
VERTEX
  8
Poly_FTE
 10
-39.455000
 20
15.647000
 30
0.0
  0
VERTEX
  8
Poly_FTE
 10
-35.455000
 20
15.647000
 30
0.0
  0
VERTEX
  8
Poly_FTE
 10
-35.455000
 20
19.647000
 30
0.0
  0
VERTEX
  8
Poly_FTE
 10
-39.455000
 20
19.647000
 30
0.0
  0
SEQEND
  8
Poly_FTE
  0
POLYLINE
  8
Poly_FTE
 66
       1
 70
       1
 10
0.0
 20
0.0
 30
0.0
  0
VERTEX
  8
Poly_FTE
 10
-37.955000
 20
19.647000
 30
0.0
  0
VERTEX
  8
Poly_FTE
 10
-36.955000
 20
19.647000
 30
0.0
  0
VERTEX
  8
Poly_FTE
 10
-36.955000
 20
32.647000
 30
0.0
  0
VERTEX
  8
Poly_FTE
 10
-37.955000
 20
32.647000
 30
0.0
  0
SEQEND
  8
Poly_FTE
  0
POLYLINE
  8
Oxide_FTE_drawing
 66
       1
 70
       1
 10
0.0
 20
0.0
 30
0.0
  0
VERTEX
  8
Oxide_FTE_drawing
 10
-38.955000
 20
16.147000
 30
0.0
  0
VERTEX
  8
Oxide_FTE_drawing
 10
-35.955000
 20
16.147000
 30
0.0
  0
VERTEX
  8
Oxide_FTE_drawing
 10
-35.955000
 20
19.147000
 30
0.0
  0
VERTEX
  8
Oxide_FTE_drawing
 10
-38.955000
 20
19.147000
 30
0.0
  0
SEQEND
  8
Oxide_FTE_drawing
  0
ENDSEC
  0
EOF
