  0
SECTION
  2
HEADER
  9
$ACADVER
  1
AC1009
999
L-Edit DXF writer Version 2016.2
  9
$PLINEWID
 40
10.000000
  9
$EXTMIN
 10
-38.091000
 20
9.075000
 30
0.0
  9
$EXTMAX
 10
101.092000
 20
39.075000
 30
0.0
  0
ENDSEC
  0
SECTION
  2
TABLES
  0
TABLE
  2
LTYPE
 70
       1
  0
LTYPE
  2
CONTINUOUS
 70
      64
  3
CONTINUOUS
 72
      65
 73
       0
 40
0.0
  0
ENDTAB
  0
TABLE
  2
LAYER
 70
       4
  0
LAYER
  2
0
 70
      64
  6
CONTINUOUS
 62
       7
  0
LAYER
  2
Poly_FTE
 70
       0
  6
CONTINUOUS
 62
       7
  0
LAYER
  2
Poly_PTE
 70
       0
  6
CONTINUOUS
 62
       7
  0
LAYER
  2
Si_PTE
 70
       0
  6
CONTINUOUS
 62
       7
  0
ENDTAB
  0
ENDSEC
  0
SECTION
  2
ENTITIES
  0
POLYLINE
  8
Poly_FTE
 66
       1
 70
       1
 10
0.0
 20
0.0
 30
0.0
  0
VERTEX
  8
Poly_FTE
 10
101.092000
 20
39.075000
 30
0.0
  0
VERTEX
  8
Poly_FTE
 10
100.092000
 20
39.075000
 30
0.0
  0
VERTEX
  8
Poly_FTE
 10
100.092000
 20
26.075000
 30
0.0
  0
VERTEX
  8
Poly_FTE
 10
101.092000
 20
26.075000
 30
0.0
  0
SEQEND
  8
Poly_FTE
  0
POLYLINE
  8
Poly_FTE
 66
       1
 70
       1
 10
0.0
 20
0.0
 30
0.0
  0
VERTEX
  8
Poly_FTE
 10
101.092000
 20
22.075000
 30
0.0
  0
VERTEX
  8
Poly_FTE
 10
100.092000
 20
22.075000
 30
0.0
  0
VERTEX
  8
Poly_FTE
 10
100.092000
 20
9.075000
 30
0.0
  0
VERTEX
  8
Poly_FTE
 10
101.092000
 20
9.075000
 30
0.0
  0
SEQEND
  8
Poly_FTE
  0
POLYLINE
  8
Poly_FTE
 66
       1
 70
       1
 10
0.0
 20
0.0
 30
0.0
  0
VERTEX
  8
Poly_FTE
 10
72.092000
 20
39.075000
 30
0.0
  0
VERTEX
  8
Poly_FTE
 10
71.092000
 20
39.075000
 30
0.0
  0
VERTEX
  8
Poly_FTE
 10
71.092000
 20
26.075000
 30
0.0
  0
VERTEX
  8
Poly_FTE
 10
72.092000
 20
26.075000
 30
0.0
  0
SEQEND
  8
Poly_FTE
  0
POLYLINE
  8
Poly_FTE
 66
       1
 70
       1
 10
0.0
 20
0.0
 30
0.0
  0
VERTEX
  8
Poly_FTE
 10
72.092000
 20
22.075000
 30
0.0
  0
VERTEX
  8
Poly_FTE
 10
71.092000
 20
22.075000
 30
0.0
  0
VERTEX
  8
Poly_FTE
 10
71.092000
 20
9.075000
 30
0.0
  0
VERTEX
  8
Poly_FTE
 10
72.092000
 20
9.075000
 30
0.0
  0
SEQEND
  8
Poly_FTE
  0
POLYLINE
  8
Poly_FTE
 66
       1
 70
       1
 10
0.0
 20
0.0
 30
0.0
  0
VERTEX
  8
Poly_FTE
 10
101.092000
 20
26.075000
 30
0.0
  0
VERTEX
  8
Poly_FTE
 10
71.092000
 20
26.075000
 30
0.0
  0
VERTEX
  8
Poly_FTE
 10
71.092000
 20
22.075000
 30
0.0
  0
VERTEX
  8
Poly_FTE
 10
101.092000
 20
22.075000
 30
0.0
  0
SEQEND
  8
Poly_FTE
  0
POLYLINE
  8
Poly_PTE
 66
       1
 70
       1
 10
0.0
 20
0.0
 30
0.0
  0
VERTEX
  8
Poly_PTE
 10
101.092000
 20
24.000000
 30
0.0
  0
VERTEX
  8
Poly_PTE
 10
71.092000
 20
23.575000
 30
0.0
  0
VERTEX
  8
Poly_PTE
 10
71.092000
 20
24.575000
 30
0.0
  0
VERTEX
  8
Poly_PTE
 10
101.092000
 20
24.150000
 30
0.0
  0
SEQEND
  8
Poly_PTE
  0
POLYLINE
  8
Poly_FTE
 66
       1
 70
       1
 10
0.0
 20
0.0
 30
0.0
  0
VERTEX
  8
Poly_FTE
 10
73.592000
 20
26.075000
 30
0.0
  0
VERTEX
  8
Poly_FTE
 10
98.592000
 20
26.075000
 30
0.0
  0
VERTEX
  8
Poly_FTE
 10
98.592000
 20
26.825000
 30
0.0
  0
VERTEX
  8
Poly_FTE
 10
73.592000
 20
26.825000
 30
0.0
  0
SEQEND
  8
Poly_FTE
  0
POLYLINE
  8
Poly_FTE
 66
       1
 70
       1
 10
0.0
 20
0.0
 30
0.0
  0
VERTEX
  8
Poly_FTE
 10
73.592000
 20
26.825000
 30
0.0
  0
VERTEX
  8
Poly_FTE
 10
74.592000
 20
26.825000
 30
0.0
  0
VERTEX
  8
Poly_FTE
 10
74.592000
 20
30.825000
 30
0.0
  0
VERTEX
  8
Poly_FTE
 10
73.592000
 20
30.825000
 30
0.0
  0
SEQEND
  8
Poly_FTE
  0
POLYLINE
  8
Poly_FTE
 66
       1
 70
       1
 10
0.0
 20
0.0
 30
0.0
  0
VERTEX
  8
Poly_FTE
 10
76.592000
 20
26.825000
 30
0.0
  0
VERTEX
  8
Poly_FTE
 10
77.592000
 20
26.825000
 30
0.0
  0
VERTEX
  8
Poly_FTE
 10
77.592000
 20
30.825000
 30
0.0
  0
VERTEX
  8
Poly_FTE
 10
76.592000
 20
30.825000
 30
0.0
  0
SEQEND
  8
Poly_FTE
  0
POLYLINE
  8
Poly_FTE
 66
       1
 70
       1
 10
0.0
 20
0.0
 30
0.0
  0
VERTEX
  8
Poly_FTE
 10
79.592000
 20
26.825000
 30
0.0
  0
VERTEX
  8
Poly_FTE
 10
80.592000
 20
26.825000
 30
0.0
  0
VERTEX
  8
Poly_FTE
 10
80.592000
 20
30.825000
 30
0.0
  0
VERTEX
  8
Poly_FTE
 10
79.592000
 20
30.825000
 30
0.0
  0
SEQEND
  8
Poly_FTE
  0
POLYLINE
  8
Poly_FTE
 66
       1
 70
       1
 10
0.0
 20
0.0
 30
0.0
  0
VERTEX
  8
Poly_FTE
 10
82.592000
 20
26.825000
 30
0.0
  0
VERTEX
  8
Poly_FTE
 10
83.592000
 20
26.825000
 30
0.0
  0
VERTEX
  8
Poly_FTE
 10
83.592000
 20
30.825000
 30
0.0
  0
VERTEX
  8
Poly_FTE
 10
82.592000
 20
30.825000
 30
0.0
  0
SEQEND
  8
Poly_FTE
  0
POLYLINE
  8
Poly_FTE
 66
       1
 70
       1
 10
0.0
 20
0.0
 30
0.0
  0
VERTEX
  8
Poly_FTE
 10
85.592000
 20
26.825000
 30
0.0
  0
VERTEX
  8
Poly_FTE
 10
86.592000
 20
26.825000
 30
0.0
  0
VERTEX
  8
Poly_FTE
 10
86.592000
 20
30.825000
 30
0.0
  0
VERTEX
  8
Poly_FTE
 10
85.592000
 20
30.825000
 30
0.0
  0
SEQEND
  8
Poly_FTE
  0
POLYLINE
  8
Poly_FTE
 66
       1
 70
       1
 10
0.0
 20
0.0
 30
0.0
  0
VERTEX
  8
Poly_FTE
 10
88.592000
 20
26.825000
 30
0.0
  0
VERTEX
  8
Poly_FTE
 10
89.592000
 20
26.825000
 30
0.0
  0
VERTEX
  8
Poly_FTE
 10
89.592000
 20
30.825000
 30
0.0
  0
VERTEX
  8
Poly_FTE
 10
88.592000
 20
30.825000
 30
0.0
  0
SEQEND
  8
Poly_FTE
  0
POLYLINE
  8
Poly_FTE
 66
       1
 70
       1
 10
0.0
 20
0.0
 30
0.0
  0
VERTEX
  8
Poly_FTE
 10
91.592000
 20
26.825000
 30
0.0
  0
VERTEX
  8
Poly_FTE
 10
92.592000
 20
26.825000
 30
0.0
  0
VERTEX
  8
Poly_FTE
 10
92.592000
 20
30.825000
 30
0.0
  0
VERTEX
  8
Poly_FTE
 10
91.592000
 20
30.825000
 30
0.0
  0
SEQEND
  8
Poly_FTE
  0
POLYLINE
  8
Poly_FTE
 66
       1
 70
       1
 10
0.0
 20
0.0
 30
0.0
  0
VERTEX
  8
Poly_FTE
 10
94.592000
 20
26.825000
 30
0.0
  0
VERTEX
  8
Poly_FTE
 10
95.592000
 20
26.825000
 30
0.0
  0
VERTEX
  8
Poly_FTE
 10
95.592000
 20
30.825000
 30
0.0
  0
VERTEX
  8
Poly_FTE
 10
94.592000
 20
30.825000
 30
0.0
  0
SEQEND
  8
Poly_FTE
  0
POLYLINE
  8
Poly_FTE
 66
       1
 70
       1
 10
0.0
 20
0.0
 30
0.0
  0
VERTEX
  8
Poly_FTE
 10
97.592000
 20
26.825000
 30
0.0
  0
VERTEX
  8
Poly_FTE
 10
98.592000
 20
26.825000
 30
0.0
  0
VERTEX
  8
Poly_FTE
 10
98.592000
 20
30.825000
 30
0.0
  0
VERTEX
  8
Poly_FTE
 10
97.592000
 20
30.825000
 30
0.0
  0
SEQEND
  8
Poly_FTE
  0
POLYLINE
  8
Poly_FTE
 66
       1
 70
       1
 10
0.0
 20
0.0
 30
0.0
  0
VERTEX
  8
Poly_FTE
 10
85.592000
 20
26.075000
 30
0.0
  0
VERTEX
  8
Poly_FTE
 10
86.592000
 20
26.075000
 30
0.0
  0
VERTEX
  8
Poly_FTE
 10
86.592000
 20
27.375000
 30
0.0
  0
VERTEX
  8
Poly_FTE
 10
85.592000
 20
27.375000
 30
0.0
  0
SEQEND
  8
Poly_FTE
  0
POLYLINE
  8
Poly_FTE
 66
       1
 70
       1
 10
0.0
 20
0.0
 30
0.0
  0
VERTEX
  8
Poly_FTE
 10
82.592000
 20
26.075000
 30
0.0
  0
VERTEX
  8
Poly_FTE
 10
83.592000
 20
26.075000
 30
0.0
  0
VERTEX
  8
Poly_FTE
 10
83.592000
 20
27.375000
 30
0.0
  0
VERTEX
  8
Poly_FTE
 10
82.592000
 20
27.375000
 30
0.0
  0
SEQEND
  8
Poly_FTE
  0
POLYLINE
  8
Poly_FTE
 66
       1
 70
       1
 10
0.0
 20
0.0
 30
0.0
  0
VERTEX
  8
Poly_FTE
 10
79.592000
 20
26.075000
 30
0.0
  0
VERTEX
  8
Poly_FTE
 10
80.592000
 20
26.075000
 30
0.0
  0
VERTEX
  8
Poly_FTE
 10
80.592000
 20
27.375000
 30
0.0
  0
VERTEX
  8
Poly_FTE
 10
79.592000
 20
27.375000
 30
0.0
  0
SEQEND
  8
Poly_FTE
  0
POLYLINE
  8
Poly_FTE
 66
       1
 70
       1
 10
0.0
 20
0.0
 30
0.0
  0
VERTEX
  8
Poly_FTE
 10
76.592000
 20
26.075000
 30
0.0
  0
VERTEX
  8
Poly_FTE
 10
77.592000
 20
26.075000
 30
0.0
  0
VERTEX
  8
Poly_FTE
 10
77.592000
 20
27.375000
 30
0.0
  0
VERTEX
  8
Poly_FTE
 10
76.592000
 20
27.375000
 30
0.0
  0
SEQEND
  8
Poly_FTE
  0
POLYLINE
  8
Poly_FTE
 66
       1
 70
       1
 10
0.0
 20
0.0
 30
0.0
  0
VERTEX
  8
Poly_FTE
 10
73.592000
 20
26.075000
 30
0.0
  0
VERTEX
  8
Poly_FTE
 10
74.592000
 20
26.075000
 30
0.0
  0
VERTEX
  8
Poly_FTE
 10
74.592000
 20
27.375000
 30
0.0
  0
VERTEX
  8
Poly_FTE
 10
73.592000
 20
27.375000
 30
0.0
  0
SEQEND
  8
Poly_FTE
  0
POLYLINE
  8
Poly_FTE
 66
       1
 70
       1
 10
0.0
 20
0.0
 30
0.0
  0
VERTEX
  8
Poly_FTE
 10
97.592000
 20
26.075000
 30
0.0
  0
VERTEX
  8
Poly_FTE
 10
98.592000
 20
26.075000
 30
0.0
  0
VERTEX
  8
Poly_FTE
 10
98.592000
 20
27.375000
 30
0.0
  0
VERTEX
  8
Poly_FTE
 10
97.592000
 20
27.375000
 30
0.0
  0
SEQEND
  8
Poly_FTE
  0
POLYLINE
  8
Poly_FTE
 66
       1
 70
       1
 10
0.0
 20
0.0
 30
0.0
  0
VERTEX
  8
Poly_FTE
 10
94.592000
 20
26.075000
 30
0.0
  0
VERTEX
  8
Poly_FTE
 10
95.592000
 20
26.075000
 30
0.0
  0
VERTEX
  8
Poly_FTE
 10
95.592000
 20
27.375000
 30
0.0
  0
VERTEX
  8
Poly_FTE
 10
94.592000
 20
27.375000
 30
0.0
  0
SEQEND
  8
Poly_FTE
  0
POLYLINE
  8
Poly_FTE
 66
       1
 70
       1
 10
0.0
 20
0.0
 30
0.0
  0
VERTEX
  8
Poly_FTE
 10
91.592000
 20
26.075000
 30
0.0
  0
VERTEX
  8
Poly_FTE
 10
92.592000
 20
26.075000
 30
0.0
  0
VERTEX
  8
Poly_FTE
 10
92.592000
 20
27.375000
 30
0.0
  0
VERTEX
  8
Poly_FTE
 10
91.592000
 20
27.375000
 30
0.0
  0
SEQEND
  8
Poly_FTE
  0
POLYLINE
  8
Poly_FTE
 66
       1
 70
       1
 10
0.0
 20
0.0
 30
0.0
  0
VERTEX
  8
Poly_FTE
 10
88.592000
 20
26.075000
 30
0.0
  0
VERTEX
  8
Poly_FTE
 10
89.592000
 20
26.075000
 30
0.0
  0
VERTEX
  8
Poly_FTE
 10
89.592000
 20
27.375000
 30
0.0
  0
VERTEX
  8
Poly_FTE
 10
88.592000
 20
27.375000
 30
0.0
  0
SEQEND
  8
Poly_FTE
  0
POLYLINE
  8
Poly_FTE
 66
       1
 70
       1
 10
0.0
 20
0.0
 30
0.0
  0
VERTEX
  8
Poly_FTE
 10
98.592000
 20
22.075000
 30
0.0
  0
VERTEX
  8
Poly_FTE
 10
73.592000
 20
22.075000
 30
0.0
  0
VERTEX
  8
Poly_FTE
 10
73.592000
 20
21.325000
 30
0.0
  0
VERTEX
  8
Poly_FTE
 10
98.592000
 20
21.325000
 30
0.0
  0
SEQEND
  8
Poly_FTE
  0
POLYLINE
  8
Poly_FTE
 66
       1
 70
       1
 10
0.0
 20
0.0
 30
0.0
  0
VERTEX
  8
Poly_FTE
 10
98.592000
 20
21.325000
 30
0.0
  0
VERTEX
  8
Poly_FTE
 10
97.592000
 20
21.325000
 30
0.0
  0
VERTEX
  8
Poly_FTE
 10
97.592000
 20
17.325000
 30
0.0
  0
VERTEX
  8
Poly_FTE
 10
98.592000
 20
17.325000
 30
0.0
  0
SEQEND
  8
Poly_FTE
  0
POLYLINE
  8
Poly_FTE
 66
       1
 70
       1
 10
0.0
 20
0.0
 30
0.0
  0
VERTEX
  8
Poly_FTE
 10
95.592000
 20
21.325000
 30
0.0
  0
VERTEX
  8
Poly_FTE
 10
94.592000
 20
21.325000
 30
0.0
  0
VERTEX
  8
Poly_FTE
 10
94.592000
 20
17.325000
 30
0.0
  0
VERTEX
  8
Poly_FTE
 10
95.592000
 20
17.325000
 30
0.0
  0
SEQEND
  8
Poly_FTE
  0
POLYLINE
  8
Poly_FTE
 66
       1
 70
       1
 10
0.0
 20
0.0
 30
0.0
  0
VERTEX
  8
Poly_FTE
 10
92.592000
 20
21.325000
 30
0.0
  0
VERTEX
  8
Poly_FTE
 10
91.592000
 20
21.325000
 30
0.0
  0
VERTEX
  8
Poly_FTE
 10
91.592000
 20
17.325000
 30
0.0
  0
VERTEX
  8
Poly_FTE
 10
92.592000
 20
17.325000
 30
0.0
  0
SEQEND
  8
Poly_FTE
  0
POLYLINE
  8
Poly_FTE
 66
       1
 70
       1
 10
0.0
 20
0.0
 30
0.0
  0
VERTEX
  8
Poly_FTE
 10
89.592000
 20
21.325000
 30
0.0
  0
VERTEX
  8
Poly_FTE
 10
88.592000
 20
21.325000
 30
0.0
  0
VERTEX
  8
Poly_FTE
 10
88.592000
 20
17.325000
 30
0.0
  0
VERTEX
  8
Poly_FTE
 10
89.592000
 20
17.325000
 30
0.0
  0
SEQEND
  8
Poly_FTE
  0
POLYLINE
  8
Poly_FTE
 66
       1
 70
       1
 10
0.0
 20
0.0
 30
0.0
  0
VERTEX
  8
Poly_FTE
 10
86.592000
 20
21.325000
 30
0.0
  0
VERTEX
  8
Poly_FTE
 10
85.592000
 20
21.325000
 30
0.0
  0
VERTEX
  8
Poly_FTE
 10
85.592000
 20
17.325000
 30
0.0
  0
VERTEX
  8
Poly_FTE
 10
86.592000
 20
17.325000
 30
0.0
  0
SEQEND
  8
Poly_FTE
  0
POLYLINE
  8
Poly_FTE
 66
       1
 70
       1
 10
0.0
 20
0.0
 30
0.0
  0
VERTEX
  8
Poly_FTE
 10
83.592000
 20
21.325000
 30
0.0
  0
VERTEX
  8
Poly_FTE
 10
82.592000
 20
21.325000
 30
0.0
  0
VERTEX
  8
Poly_FTE
 10
82.592000
 20
17.325000
 30
0.0
  0
VERTEX
  8
Poly_FTE
 10
83.592000
 20
17.325000
 30
0.0
  0
SEQEND
  8
Poly_FTE
  0
POLYLINE
  8
Poly_FTE
 66
       1
 70
       1
 10
0.0
 20
0.0
 30
0.0
  0
VERTEX
  8
Poly_FTE
 10
80.592000
 20
21.325000
 30
0.0
  0
VERTEX
  8
Poly_FTE
 10
79.592000
 20
21.325000
 30
0.0
  0
VERTEX
  8
Poly_FTE
 10
79.592000
 20
17.325000
 30
0.0
  0
VERTEX
  8
Poly_FTE
 10
80.592000
 20
17.325000
 30
0.0
  0
SEQEND
  8
Poly_FTE
  0
POLYLINE
  8
Poly_FTE
 66
       1
 70
       1
 10
0.0
 20
0.0
 30
0.0
  0
VERTEX
  8
Poly_FTE
 10
77.592000
 20
21.325000
 30
0.0
  0
VERTEX
  8
Poly_FTE
 10
76.592000
 20
21.325000
 30
0.0
  0
VERTEX
  8
Poly_FTE
 10
76.592000
 20
17.325000
 30
0.0
  0
VERTEX
  8
Poly_FTE
 10
77.592000
 20
17.325000
 30
0.0
  0
SEQEND
  8
Poly_FTE
  0
POLYLINE
  8
Poly_FTE
 66
       1
 70
       1
 10
0.0
 20
0.0
 30
0.0
  0
VERTEX
  8
Poly_FTE
 10
74.592000
 20
21.325000
 30
0.0
  0
VERTEX
  8
Poly_FTE
 10
73.592000
 20
21.325000
 30
0.0
  0
VERTEX
  8
Poly_FTE
 10
73.592000
 20
17.325000
 30
0.0
  0
VERTEX
  8
Poly_FTE
 10
74.592000
 20
17.325000
 30
0.0
  0
SEQEND
  8
Poly_FTE
  0
POLYLINE
  8
Poly_FTE
 66
       1
 70
       1
 10
0.0
 20
0.0
 30
0.0
  0
VERTEX
  8
Poly_FTE
 10
86.592000
 20
22.075000
 30
0.0
  0
VERTEX
  8
Poly_FTE
 10
85.592000
 20
22.075000
 30
0.0
  0
VERTEX
  8
Poly_FTE
 10
85.592000
 20
20.775000
 30
0.0
  0
VERTEX
  8
Poly_FTE
 10
86.592000
 20
20.775000
 30
0.0
  0
SEQEND
  8
Poly_FTE
  0
POLYLINE
  8
Poly_FTE
 66
       1
 70
       1
 10
0.0
 20
0.0
 30
0.0
  0
VERTEX
  8
Poly_FTE
 10
89.592000
 20
22.075000
 30
0.0
  0
VERTEX
  8
Poly_FTE
 10
88.592000
 20
22.075000
 30
0.0
  0
VERTEX
  8
Poly_FTE
 10
88.592000
 20
20.775000
 30
0.0
  0
VERTEX
  8
Poly_FTE
 10
89.592000
 20
20.775000
 30
0.0
  0
SEQEND
  8
Poly_FTE
  0
POLYLINE
  8
Poly_FTE
 66
       1
 70
       1
 10
0.0
 20
0.0
 30
0.0
  0
VERTEX
  8
Poly_FTE
 10
92.592000
 20
22.075000
 30
0.0
  0
VERTEX
  8
Poly_FTE
 10
91.592000
 20
22.075000
 30
0.0
  0
VERTEX
  8
Poly_FTE
 10
91.592000
 20
20.775000
 30
0.0
  0
VERTEX
  8
Poly_FTE
 10
92.592000
 20
20.775000
 30
0.0
  0
SEQEND
  8
Poly_FTE
  0
POLYLINE
  8
Poly_FTE
 66
       1
 70
       1
 10
0.0
 20
0.0
 30
0.0
  0
VERTEX
  8
Poly_FTE
 10
95.592000
 20
22.075000
 30
0.0
  0
VERTEX
  8
Poly_FTE
 10
94.592000
 20
22.075000
 30
0.0
  0
VERTEX
  8
Poly_FTE
 10
94.592000
 20
20.775000
 30
0.0
  0
VERTEX
  8
Poly_FTE
 10
95.592000
 20
20.775000
 30
0.0
  0
SEQEND
  8
Poly_FTE
  0
POLYLINE
  8
Poly_FTE
 66
       1
 70
       1
 10
0.0
 20
0.0
 30
0.0
  0
VERTEX
  8
Poly_FTE
 10
98.592000
 20
22.075000
 30
0.0
  0
VERTEX
  8
Poly_FTE
 10
97.592000
 20
22.075000
 30
0.0
  0
VERTEX
  8
Poly_FTE
 10
97.592000
 20
20.775000
 30
0.0
  0
VERTEX
  8
Poly_FTE
 10
98.592000
 20
20.775000
 30
0.0
  0
SEQEND
  8
Poly_FTE
  0
POLYLINE
  8
Poly_FTE
 66
       1
 70
       1
 10
0.0
 20
0.0
 30
0.0
  0
VERTEX
  8
Poly_FTE
 10
74.592000
 20
22.075000
 30
0.0
  0
VERTEX
  8
Poly_FTE
 10
73.592000
 20
22.075000
 30
0.0
  0
VERTEX
  8
Poly_FTE
 10
73.592000
 20
20.775000
 30
0.0
  0
VERTEX
  8
Poly_FTE
 10
74.592000
 20
20.775000
 30
0.0
  0
SEQEND
  8
Poly_FTE
  0
POLYLINE
  8
Poly_FTE
 66
       1
 70
       1
 10
0.0
 20
0.0
 30
0.0
  0
VERTEX
  8
Poly_FTE
 10
77.592000
 20
22.075000
 30
0.0
  0
VERTEX
  8
Poly_FTE
 10
76.592000
 20
22.075000
 30
0.0
  0
VERTEX
  8
Poly_FTE
 10
76.592000
 20
20.775000
 30
0.0
  0
VERTEX
  8
Poly_FTE
 10
77.592000
 20
20.775000
 30
0.0
  0
SEQEND
  8
Poly_FTE
  0
POLYLINE
  8
Poly_FTE
 66
       1
 70
       1
 10
0.0
 20
0.0
 30
0.0
  0
VERTEX
  8
Poly_FTE
 10
80.592000
 20
22.075000
 30
0.0
  0
VERTEX
  8
Poly_FTE
 10
79.592000
 20
22.075000
 30
0.0
  0
VERTEX
  8
Poly_FTE
 10
79.592000
 20
20.775000
 30
0.0
  0
VERTEX
  8
Poly_FTE
 10
80.592000
 20
20.775000
 30
0.0
  0
SEQEND
  8
Poly_FTE
  0
POLYLINE
  8
Poly_FTE
 66
       1
 70
       1
 10
0.0
 20
0.0
 30
0.0
  0
VERTEX
  8
Poly_FTE
 10
83.592000
 20
22.075000
 30
0.0
  0
VERTEX
  8
Poly_FTE
 10
82.592000
 20
22.075000
 30
0.0
  0
VERTEX
  8
Poly_FTE
 10
82.592000
 20
20.775000
 30
0.0
  0
VERTEX
  8
Poly_FTE
 10
83.592000
 20
20.775000
 30
0.0
  0
SEQEND
  8
Poly_FTE
  0
POLYLINE
  8
Poly_FTE
 66
       1
 70
       1
 10
0.0
 20
0.0
 30
0.0
  0
VERTEX
  8
Poly_FTE
 10
-38.091000
 20
9.075000
 30
0.0
  0
VERTEX
  8
Poly_FTE
 10
-37.091000
 20
9.075000
 30
0.0
  0
VERTEX
  8
Poly_FTE
 10
-37.091000
 20
22.075000
 30
0.0
  0
VERTEX
  8
Poly_FTE
 10
-38.091000
 20
22.075000
 30
0.0
  0
SEQEND
  8
Poly_FTE
  0
POLYLINE
  8
Poly_FTE
 66
       1
 70
       1
 10
0.0
 20
0.0
 30
0.0
  0
VERTEX
  8
Poly_FTE
 10
-38.091000
 20
26.075000
 30
0.0
  0
VERTEX
  8
Poly_FTE
 10
-37.091000
 20
26.075000
 30
0.0
  0
VERTEX
  8
Poly_FTE
 10
-37.091000
 20
39.075000
 30
0.0
  0
VERTEX
  8
Poly_FTE
 10
-38.091000
 20
39.075000
 30
0.0
  0
SEQEND
  8
Poly_FTE
  0
POLYLINE
  8
Poly_FTE
 66
       1
 70
       1
 10
0.0
 20
0.0
 30
0.0
  0
VERTEX
  8
Poly_FTE
 10
-9.091000
 20
9.075000
 30
0.0
  0
VERTEX
  8
Poly_FTE
 10
-8.091000
 20
9.075000
 30
0.0
  0
VERTEX
  8
Poly_FTE
 10
-8.091000
 20
22.075000
 30
0.0
  0
VERTEX
  8
Poly_FTE
 10
-9.091000
 20
22.075000
 30
0.0
  0
SEQEND
  8
Poly_FTE
  0
POLYLINE
  8
Poly_FTE
 66
       1
 70
       1
 10
0.0
 20
0.0
 30
0.0
  0
VERTEX
  8
Poly_FTE
 10
-9.091000
 20
26.075000
 30
0.0
  0
VERTEX
  8
Poly_FTE
 10
-8.091000
 20
26.075000
 30
0.0
  0
VERTEX
  8
Poly_FTE
 10
-8.091000
 20
39.075000
 30
0.0
  0
VERTEX
  8
Poly_FTE
 10
-9.091000
 20
39.075000
 30
0.0
  0
SEQEND
  8
Poly_FTE
  0
POLYLINE
  8
Poly_FTE
 66
       1
 70
       1
 10
0.0
 20
0.0
 30
0.0
  0
VERTEX
  8
Poly_FTE
 10
-38.091000
 20
22.075000
 30
0.0
  0
VERTEX
  8
Poly_FTE
 10
-8.091000
 20
22.075000
 30
0.0
  0
VERTEX
  8
Poly_FTE
 10
-8.091000
 20
26.075000
 30
0.0
  0
VERTEX
  8
Poly_FTE
 10
-38.091000
 20
26.075000
 30
0.0
  0
SEQEND
  8
Poly_FTE
  0
POLYLINE
  8
Poly_PTE
 66
       1
 70
       1
 10
0.0
 20
0.0
 30
0.0
  0
VERTEX
  8
Poly_PTE
 10
-38.091000
 20
24.150000
 30
0.0
  0
VERTEX
  8
Poly_PTE
 10
-8.091000
 20
24.575000
 30
0.0
  0
VERTEX
  8
Poly_PTE
 10
-8.091000
 20
23.575000
 30
0.0
  0
VERTEX
  8
Poly_PTE
 10
-38.091000
 20
24.000000
 30
0.0
  0
SEQEND
  8
Poly_PTE
  0
POLYLINE
  8
Poly_FTE
 66
       1
 70
       1
 10
0.0
 20
0.0
 30
0.0
  0
VERTEX
  8
Poly_FTE
 10
-10.591000
 20
22.075000
 30
0.0
  0
VERTEX
  8
Poly_FTE
 10
-35.591000
 20
22.075000
 30
0.0
  0
VERTEX
  8
Poly_FTE
 10
-35.591000
 20
21.325000
 30
0.0
  0
VERTEX
  8
Poly_FTE
 10
-10.591000
 20
21.325000
 30
0.0
  0
SEQEND
  8
Poly_FTE
  0
POLYLINE
  8
Poly_FTE
 66
       1
 70
       1
 10
0.0
 20
0.0
 30
0.0
  0
VERTEX
  8
Poly_FTE
 10
-10.591000
 20
21.325000
 30
0.0
  0
VERTEX
  8
Poly_FTE
 10
-11.591000
 20
21.325000
 30
0.0
  0
VERTEX
  8
Poly_FTE
 10
-11.591000
 20
17.325000
 30
0.0
  0
VERTEX
  8
Poly_FTE
 10
-10.591000
 20
17.325000
 30
0.0
  0
SEQEND
  8
Poly_FTE
  0
POLYLINE
  8
Poly_FTE
 66
       1
 70
       1
 10
0.0
 20
0.0
 30
0.0
  0
VERTEX
  8
Poly_FTE
 10
-13.591000
 20
21.325000
 30
0.0
  0
VERTEX
  8
Poly_FTE
 10
-14.591000
 20
21.325000
 30
0.0
  0
VERTEX
  8
Poly_FTE
 10
-14.591000
 20
17.325000
 30
0.0
  0
VERTEX
  8
Poly_FTE
 10
-13.591000
 20
17.325000
 30
0.0
  0
SEQEND
  8
Poly_FTE
  0
POLYLINE
  8
Poly_FTE
 66
       1
 70
       1
 10
0.0
 20
0.0
 30
0.0
  0
VERTEX
  8
Poly_FTE
 10
-16.591000
 20
21.325000
 30
0.0
  0
VERTEX
  8
Poly_FTE
 10
-17.591000
 20
21.325000
 30
0.0
  0
VERTEX
  8
Poly_FTE
 10
-17.591000
 20
17.325000
 30
0.0
  0
VERTEX
  8
Poly_FTE
 10
-16.591000
 20
17.325000
 30
0.0
  0
SEQEND
  8
Poly_FTE
  0
POLYLINE
  8
Poly_FTE
 66
       1
 70
       1
 10
0.0
 20
0.0
 30
0.0
  0
VERTEX
  8
Poly_FTE
 10
-19.591000
 20
21.325000
 30
0.0
  0
VERTEX
  8
Poly_FTE
 10
-20.591000
 20
21.325000
 30
0.0
  0
VERTEX
  8
Poly_FTE
 10
-20.591000
 20
17.325000
 30
0.0
  0
VERTEX
  8
Poly_FTE
 10
-19.591000
 20
17.325000
 30
0.0
  0
SEQEND
  8
Poly_FTE
  0
POLYLINE
  8
Poly_FTE
 66
       1
 70
       1
 10
0.0
 20
0.0
 30
0.0
  0
VERTEX
  8
Poly_FTE
 10
-22.591000
 20
21.325000
 30
0.0
  0
VERTEX
  8
Poly_FTE
 10
-23.591000
 20
21.325000
 30
0.0
  0
VERTEX
  8
Poly_FTE
 10
-23.591000
 20
17.325000
 30
0.0
  0
VERTEX
  8
Poly_FTE
 10
-22.591000
 20
17.325000
 30
0.0
  0
SEQEND
  8
Poly_FTE
  0
POLYLINE
  8
Poly_FTE
 66
       1
 70
       1
 10
0.0
 20
0.0
 30
0.0
  0
VERTEX
  8
Poly_FTE
 10
-25.591000
 20
21.325000
 30
0.0
  0
VERTEX
  8
Poly_FTE
 10
-26.591000
 20
21.325000
 30
0.0
  0
VERTEX
  8
Poly_FTE
 10
-26.591000
 20
17.325000
 30
0.0
  0
VERTEX
  8
Poly_FTE
 10
-25.591000
 20
17.325000
 30
0.0
  0
SEQEND
  8
Poly_FTE
  0
POLYLINE
  8
Poly_FTE
 66
       1
 70
       1
 10
0.0
 20
0.0
 30
0.0
  0
VERTEX
  8
Poly_FTE
 10
-28.591000
 20
21.325000
 30
0.0
  0
VERTEX
  8
Poly_FTE
 10
-29.591000
 20
21.325000
 30
0.0
  0
VERTEX
  8
Poly_FTE
 10
-29.591000
 20
17.325000
 30
0.0
  0
VERTEX
  8
Poly_FTE
 10
-28.591000
 20
17.325000
 30
0.0
  0
SEQEND
  8
Poly_FTE
  0
POLYLINE
  8
Poly_FTE
 66
       1
 70
       1
 10
0.0
 20
0.0
 30
0.0
  0
VERTEX
  8
Poly_FTE
 10
-31.591000
 20
21.325000
 30
0.0
  0
VERTEX
  8
Poly_FTE
 10
-32.591000
 20
21.325000
 30
0.0
  0
VERTEX
  8
Poly_FTE
 10
-32.591000
 20
17.325000
 30
0.0
  0
VERTEX
  8
Poly_FTE
 10
-31.591000
 20
17.325000
 30
0.0
  0
SEQEND
  8
Poly_FTE
  0
POLYLINE
  8
Poly_FTE
 66
       1
 70
       1
 10
0.0
 20
0.0
 30
0.0
  0
VERTEX
  8
Poly_FTE
 10
-34.591000
 20
21.325000
 30
0.0
  0
VERTEX
  8
Poly_FTE
 10
-35.591000
 20
21.325000
 30
0.0
  0
VERTEX
  8
Poly_FTE
 10
-35.591000
 20
17.325000
 30
0.0
  0
VERTEX
  8
Poly_FTE
 10
-34.591000
 20
17.325000
 30
0.0
  0
SEQEND
  8
Poly_FTE
  0
POLYLINE
  8
Poly_FTE
 66
       1
 70
       1
 10
0.0
 20
0.0
 30
0.0
  0
VERTEX
  8
Poly_FTE
 10
-22.591000
 20
22.075000
 30
0.0
  0
VERTEX
  8
Poly_FTE
 10
-23.591000
 20
22.075000
 30
0.0
  0
VERTEX
  8
Poly_FTE
 10
-23.591000
 20
20.775000
 30
0.0
  0
VERTEX
  8
Poly_FTE
 10
-22.591000
 20
20.775000
 30
0.0
  0
SEQEND
  8
Poly_FTE
  0
POLYLINE
  8
Poly_FTE
 66
       1
 70
       1
 10
0.0
 20
0.0
 30
0.0
  0
VERTEX
  8
Poly_FTE
 10
-19.591000
 20
22.075000
 30
0.0
  0
VERTEX
  8
Poly_FTE
 10
-20.591000
 20
22.075000
 30
0.0
  0
VERTEX
  8
Poly_FTE
 10
-20.591000
 20
20.775000
 30
0.0
  0
VERTEX
  8
Poly_FTE
 10
-19.591000
 20
20.775000
 30
0.0
  0
SEQEND
  8
Poly_FTE
  0
POLYLINE
  8
Poly_FTE
 66
       1
 70
       1
 10
0.0
 20
0.0
 30
0.0
  0
VERTEX
  8
Poly_FTE
 10
-16.591000
 20
22.075000
 30
0.0
  0
VERTEX
  8
Poly_FTE
 10
-17.591000
 20
22.075000
 30
0.0
  0
VERTEX
  8
Poly_FTE
 10
-17.591000
 20
20.775000
 30
0.0
  0
VERTEX
  8
Poly_FTE
 10
-16.591000
 20
20.775000
 30
0.0
  0
SEQEND
  8
Poly_FTE
  0
POLYLINE
  8
Poly_FTE
 66
       1
 70
       1
 10
0.0
 20
0.0
 30
0.0
  0
VERTEX
  8
Poly_FTE
 10
-13.591000
 20
22.075000
 30
0.0
  0
VERTEX
  8
Poly_FTE
 10
-14.591000
 20
22.075000
 30
0.0
  0
VERTEX
  8
Poly_FTE
 10
-14.591000
 20
20.775000
 30
0.0
  0
VERTEX
  8
Poly_FTE
 10
-13.591000
 20
20.775000
 30
0.0
  0
SEQEND
  8
Poly_FTE
  0
POLYLINE
  8
Poly_FTE
 66
       1
 70
       1
 10
0.0
 20
0.0
 30
0.0
  0
VERTEX
  8
Poly_FTE
 10
-10.591000
 20
22.075000
 30
0.0
  0
VERTEX
  8
Poly_FTE
 10
-11.591000
 20
22.075000
 30
0.0
  0
VERTEX
  8
Poly_FTE
 10
-11.591000
 20
20.775000
 30
0.0
  0
VERTEX
  8
Poly_FTE
 10
-10.591000
 20
20.775000
 30
0.0
  0
SEQEND
  8
Poly_FTE
  0
POLYLINE
  8
Poly_FTE
 66
       1
 70
       1
 10
0.0
 20
0.0
 30
0.0
  0
VERTEX
  8
Poly_FTE
 10
-34.591000
 20
22.075000
 30
0.0
  0
VERTEX
  8
Poly_FTE
 10
-35.591000
 20
22.075000
 30
0.0
  0
VERTEX
  8
Poly_FTE
 10
-35.591000
 20
20.775000
 30
0.0
  0
VERTEX
  8
Poly_FTE
 10
-34.591000
 20
20.775000
 30
0.0
  0
SEQEND
  8
Poly_FTE
  0
POLYLINE
  8
Poly_FTE
 66
       1
 70
       1
 10
0.0
 20
0.0
 30
0.0
  0
VERTEX
  8
Poly_FTE
 10
-31.591000
 20
22.075000
 30
0.0
  0
VERTEX
  8
Poly_FTE
 10
-32.591000
 20
22.075000
 30
0.0
  0
VERTEX
  8
Poly_FTE
 10
-32.591000
 20
20.775000
 30
0.0
  0
VERTEX
  8
Poly_FTE
 10
-31.591000
 20
20.775000
 30
0.0
  0
SEQEND
  8
Poly_FTE
  0
POLYLINE
  8
Poly_FTE
 66
       1
 70
       1
 10
0.0
 20
0.0
 30
0.0
  0
VERTEX
  8
Poly_FTE
 10
-28.591000
 20
22.075000
 30
0.0
  0
VERTEX
  8
Poly_FTE
 10
-29.591000
 20
22.075000
 30
0.0
  0
VERTEX
  8
Poly_FTE
 10
-29.591000
 20
20.775000
 30
0.0
  0
VERTEX
  8
Poly_FTE
 10
-28.591000
 20
20.775000
 30
0.0
  0
SEQEND
  8
Poly_FTE
  0
POLYLINE
  8
Poly_FTE
 66
       1
 70
       1
 10
0.0
 20
0.0
 30
0.0
  0
VERTEX
  8
Poly_FTE
 10
-25.591000
 20
22.075000
 30
0.0
  0
VERTEX
  8
Poly_FTE
 10
-26.591000
 20
22.075000
 30
0.0
  0
VERTEX
  8
Poly_FTE
 10
-26.591000
 20
20.775000
 30
0.0
  0
VERTEX
  8
Poly_FTE
 10
-25.591000
 20
20.775000
 30
0.0
  0
SEQEND
  8
Poly_FTE
  0
POLYLINE
  8
Poly_FTE
 66
       1
 70
       1
 10
0.0
 20
0.0
 30
0.0
  0
VERTEX
  8
Poly_FTE
 10
-35.591000
 20
26.075000
 30
0.0
  0
VERTEX
  8
Poly_FTE
 10
-10.591000
 20
26.075000
 30
0.0
  0
VERTEX
  8
Poly_FTE
 10
-10.591000
 20
26.825000
 30
0.0
  0
VERTEX
  8
Poly_FTE
 10
-35.591000
 20
26.825000
 30
0.0
  0
SEQEND
  8
Poly_FTE
  0
POLYLINE
  8
Poly_FTE
 66
       1
 70
       1
 10
0.0
 20
0.0
 30
0.0
  0
VERTEX
  8
Poly_FTE
 10
-35.591000
 20
26.825000
 30
0.0
  0
VERTEX
  8
Poly_FTE
 10
-34.591000
 20
26.825000
 30
0.0
  0
VERTEX
  8
Poly_FTE
 10
-34.591000
 20
30.825000
 30
0.0
  0
VERTEX
  8
Poly_FTE
 10
-35.591000
 20
30.825000
 30
0.0
  0
SEQEND
  8
Poly_FTE
  0
POLYLINE
  8
Poly_FTE
 66
       1
 70
       1
 10
0.0
 20
0.0
 30
0.0
  0
VERTEX
  8
Poly_FTE
 10
-32.591000
 20
26.825000
 30
0.0
  0
VERTEX
  8
Poly_FTE
 10
-31.591000
 20
26.825000
 30
0.0
  0
VERTEX
  8
Poly_FTE
 10
-31.591000
 20
30.825000
 30
0.0
  0
VERTEX
  8
Poly_FTE
 10
-32.591000
 20
30.825000
 30
0.0
  0
SEQEND
  8
Poly_FTE
  0
POLYLINE
  8
Poly_FTE
 66
       1
 70
       1
 10
0.0
 20
0.0
 30
0.0
  0
VERTEX
  8
Poly_FTE
 10
-29.591000
 20
26.825000
 30
0.0
  0
VERTEX
  8
Poly_FTE
 10
-28.591000
 20
26.825000
 30
0.0
  0
VERTEX
  8
Poly_FTE
 10
-28.591000
 20
30.825000
 30
0.0
  0
VERTEX
  8
Poly_FTE
 10
-29.591000
 20
30.825000
 30
0.0
  0
SEQEND
  8
Poly_FTE
  0
POLYLINE
  8
Poly_FTE
 66
       1
 70
       1
 10
0.0
 20
0.0
 30
0.0
  0
VERTEX
  8
Poly_FTE
 10
-26.591000
 20
26.825000
 30
0.0
  0
VERTEX
  8
Poly_FTE
 10
-25.591000
 20
26.825000
 30
0.0
  0
VERTEX
  8
Poly_FTE
 10
-25.591000
 20
30.825000
 30
0.0
  0
VERTEX
  8
Poly_FTE
 10
-26.591000
 20
30.825000
 30
0.0
  0
SEQEND
  8
Poly_FTE
  0
POLYLINE
  8
Poly_FTE
 66
       1
 70
       1
 10
0.0
 20
0.0
 30
0.0
  0
VERTEX
  8
Poly_FTE
 10
-23.591000
 20
26.825000
 30
0.0
  0
VERTEX
  8
Poly_FTE
 10
-22.591000
 20
26.825000
 30
0.0
  0
VERTEX
  8
Poly_FTE
 10
-22.591000
 20
30.825000
 30
0.0
  0
VERTEX
  8
Poly_FTE
 10
-23.591000
 20
30.825000
 30
0.0
  0
SEQEND
  8
Poly_FTE
  0
POLYLINE
  8
Poly_FTE
 66
       1
 70
       1
 10
0.0
 20
0.0
 30
0.0
  0
VERTEX
  8
Poly_FTE
 10
-20.591000
 20
26.825000
 30
0.0
  0
VERTEX
  8
Poly_FTE
 10
-19.591000
 20
26.825000
 30
0.0
  0
VERTEX
  8
Poly_FTE
 10
-19.591000
 20
30.825000
 30
0.0
  0
VERTEX
  8
Poly_FTE
 10
-20.591000
 20
30.825000
 30
0.0
  0
SEQEND
  8
Poly_FTE
  0
POLYLINE
  8
Poly_FTE
 66
       1
 70
       1
 10
0.0
 20
0.0
 30
0.0
  0
VERTEX
  8
Poly_FTE
 10
-17.591000
 20
26.825000
 30
0.0
  0
VERTEX
  8
Poly_FTE
 10
-16.591000
 20
26.825000
 30
0.0
  0
VERTEX
  8
Poly_FTE
 10
-16.591000
 20
30.825000
 30
0.0
  0
VERTEX
  8
Poly_FTE
 10
-17.591000
 20
30.825000
 30
0.0
  0
SEQEND
  8
Poly_FTE
  0
POLYLINE
  8
Poly_FTE
 66
       1
 70
       1
 10
0.0
 20
0.0
 30
0.0
  0
VERTEX
  8
Poly_FTE
 10
-14.591000
 20
26.825000
 30
0.0
  0
VERTEX
  8
Poly_FTE
 10
-13.591000
 20
26.825000
 30
0.0
  0
VERTEX
  8
Poly_FTE
 10
-13.591000
 20
30.825000
 30
0.0
  0
VERTEX
  8
Poly_FTE
 10
-14.591000
 20
30.825000
 30
0.0
  0
SEQEND
  8
Poly_FTE
  0
POLYLINE
  8
Poly_FTE
 66
       1
 70
       1
 10
0.0
 20
0.0
 30
0.0
  0
VERTEX
  8
Poly_FTE
 10
-11.591000
 20
26.825000
 30
0.0
  0
VERTEX
  8
Poly_FTE
 10
-10.591000
 20
26.825000
 30
0.0
  0
VERTEX
  8
Poly_FTE
 10
-10.591000
 20
30.825000
 30
0.0
  0
VERTEX
  8
Poly_FTE
 10
-11.591000
 20
30.825000
 30
0.0
  0
SEQEND
  8
Poly_FTE
  0
POLYLINE
  8
Poly_FTE
 66
       1
 70
       1
 10
0.0
 20
0.0
 30
0.0
  0
VERTEX
  8
Poly_FTE
 10
-23.591000
 20
26.075000
 30
0.0
  0
VERTEX
  8
Poly_FTE
 10
-22.591000
 20
26.075000
 30
0.0
  0
VERTEX
  8
Poly_FTE
 10
-22.591000
 20
27.375000
 30
0.0
  0
VERTEX
  8
Poly_FTE
 10
-23.591000
 20
27.375000
 30
0.0
  0
SEQEND
  8
Poly_FTE
  0
POLYLINE
  8
Poly_FTE
 66
       1
 70
       1
 10
0.0
 20
0.0
 30
0.0
  0
VERTEX
  8
Poly_FTE
 10
-26.591000
 20
26.075000
 30
0.0
  0
VERTEX
  8
Poly_FTE
 10
-25.591000
 20
26.075000
 30
0.0
  0
VERTEX
  8
Poly_FTE
 10
-25.591000
 20
27.375000
 30
0.0
  0
VERTEX
  8
Poly_FTE
 10
-26.591000
 20
27.375000
 30
0.0
  0
SEQEND
  8
Poly_FTE
  0
POLYLINE
  8
Poly_FTE
 66
       1
 70
       1
 10
0.0
 20
0.0
 30
0.0
  0
VERTEX
  8
Poly_FTE
 10
-29.591000
 20
26.075000
 30
0.0
  0
VERTEX
  8
Poly_FTE
 10
-28.591000
 20
26.075000
 30
0.0
  0
VERTEX
  8
Poly_FTE
 10
-28.591000
 20
27.375000
 30
0.0
  0
VERTEX
  8
Poly_FTE
 10
-29.591000
 20
27.375000
 30
0.0
  0
SEQEND
  8
Poly_FTE
  0
POLYLINE
  8
Poly_FTE
 66
       1
 70
       1
 10
0.0
 20
0.0
 30
0.0
  0
VERTEX
  8
Poly_FTE
 10
-32.591000
 20
26.075000
 30
0.0
  0
VERTEX
  8
Poly_FTE
 10
-31.591000
 20
26.075000
 30
0.0
  0
VERTEX
  8
Poly_FTE
 10
-31.591000
 20
27.375000
 30
0.0
  0
VERTEX
  8
Poly_FTE
 10
-32.591000
 20
27.375000
 30
0.0
  0
SEQEND
  8
Poly_FTE
  0
POLYLINE
  8
Poly_FTE
 66
       1
 70
       1
 10
0.0
 20
0.0
 30
0.0
  0
VERTEX
  8
Poly_FTE
 10
-35.591000
 20
26.075000
 30
0.0
  0
VERTEX
  8
Poly_FTE
 10
-34.591000
 20
26.075000
 30
0.0
  0
VERTEX
  8
Poly_FTE
 10
-34.591000
 20
27.375000
 30
0.0
  0
VERTEX
  8
Poly_FTE
 10
-35.591000
 20
27.375000
 30
0.0
  0
SEQEND
  8
Poly_FTE
  0
POLYLINE
  8
Poly_FTE
 66
       1
 70
       1
 10
0.0
 20
0.0
 30
0.0
  0
VERTEX
  8
Poly_FTE
 10
-11.591000
 20
26.075000
 30
0.0
  0
VERTEX
  8
Poly_FTE
 10
-10.591000
 20
26.075000
 30
0.0
  0
VERTEX
  8
Poly_FTE
 10
-10.591000
 20
27.375000
 30
0.0
  0
VERTEX
  8
Poly_FTE
 10
-11.591000
 20
27.375000
 30
0.0
  0
SEQEND
  8
Poly_FTE
  0
POLYLINE
  8
Poly_FTE
 66
       1
 70
       1
 10
0.0
 20
0.0
 30
0.0
  0
VERTEX
  8
Poly_FTE
 10
-14.591000
 20
26.075000
 30
0.0
  0
VERTEX
  8
Poly_FTE
 10
-13.591000
 20
26.075000
 30
0.0
  0
VERTEX
  8
Poly_FTE
 10
-13.591000
 20
27.375000
 30
0.0
  0
VERTEX
  8
Poly_FTE
 10
-14.591000
 20
27.375000
 30
0.0
  0
SEQEND
  8
Poly_FTE
  0
POLYLINE
  8
Poly_FTE
 66
       1
 70
       1
 10
0.0
 20
0.0
 30
0.0
  0
VERTEX
  8
Poly_FTE
 10
-17.591000
 20
26.075000
 30
0.0
  0
VERTEX
  8
Poly_FTE
 10
-16.591000
 20
26.075000
 30
0.0
  0
VERTEX
  8
Poly_FTE
 10
-16.591000
 20
27.375000
 30
0.0
  0
VERTEX
  8
Poly_FTE
 10
-17.591000
 20
27.375000
 30
0.0
  0
SEQEND
  8
Poly_FTE
  0
POLYLINE
  8
Poly_FTE
 66
       1
 70
       1
 10
0.0
 20
0.0
 30
0.0
  0
VERTEX
  8
Poly_FTE
 10
-20.591000
 20
26.075000
 30
0.0
  0
VERTEX
  8
Poly_FTE
 10
-19.591000
 20
26.075000
 30
0.0
  0
VERTEX
  8
Poly_FTE
 10
-19.591000
 20
27.375000
 30
0.0
  0
VERTEX
  8
Poly_FTE
 10
-20.591000
 20
27.375000
 30
0.0
  0
SEQEND
  8
Poly_FTE
  0
POLYLINE
  8
Poly_FTE
 66
       1
 70
       1
 10
0.0
 20
0.0
 30
0.0
  0
VERTEX
  8
Poly_FTE
 10
-8.091000
 20
22.075000
 30
0.0
  0
VERTEX
  8
Poly_FTE
 10
71.092000
 20
22.075000
 30
0.0
  0
VERTEX
  8
Poly_FTE
 10
71.092000
 20
26.075000
 30
0.0
  0
VERTEX
  8
Poly_FTE
 10
-8.091000
 20
26.075000
 30
0.0
  0
SEQEND
  8
Poly_FTE
  0
POLYLINE
  8
Poly_PTE
 66
       1
 70
       1
 10
0.0
 20
0.0
 30
0.0
  0
VERTEX
  8
Poly_PTE
 10
-8.091000
 20
23.575000
 30
0.0
  0
VERTEX
  8
Poly_PTE
 10
71.092000
 20
23.575000
 30
0.0
  0
VERTEX
  8
Poly_PTE
 10
71.092000
 20
24.575000
 30
0.0
  0
VERTEX
  8
Poly_PTE
 10
-8.091000
 20
24.575000
 30
0.0
  0
SEQEND
  8
Poly_PTE
  0
ENDSEC
  0
EOF
