  0
SECTION
  2
HEADER
  9
$ACADVER
  1
AC1009
999
L-Edit DXF writer Version 2016.2
  9
$PLINEWID
 40
10.000000
  9
$EXTMIN
 10
-45.891000
 20
9.147000
 30
0.0
  9
$EXTMAX
 10
75.953000
 20
60.147000
 30
0.0
  0
ENDSEC
  0
SECTION
  2
TABLES
  0
TABLE
  2
LTYPE
 70
       1
  0
LTYPE
  2
CONTINUOUS
 70
      64
  3
CONTINUOUS
 72
      65
 73
       0
 40
0.0
  0
ENDTAB
  0
TABLE
  2
LAYER
 70
       6
  0
LAYER
  2
0
 70
      64
  6
CONTINUOUS
 62
       7
  0
LAYER
  2
Si_FTE
 70
       0
  6
CONTINUOUS
 62
       7
  0
LAYER
  2
Poly_FTE
 70
       0
  6
CONTINUOUS
 62
       7
  0
LAYER
  2
Poly_PTE
 70
       0
  6
CONTINUOUS
 62
       7
  0
LAYER
  2
Oxide_FTE_drawing
 70
       0
  6
CONTINUOUS
 62
       7
  0
LAYER
  2
Oxide_PTE_drawing
 70
       0
  6
CONTINUOUS
 62
       7
  0
ENDTAB
  0
ENDSEC
  0
SECTION
  2
ENTITIES
  0
POLYLINE
  8
Si_FTE
 66
       1
 70
       1
 10
0.0
 20
0.0
 30
0.0
  0
VERTEX
  8
Si_FTE
 10
35.953000
 20
49.647000
 30
0.0
  0
VERTEX
  8
Si_FTE
 10
40.453000
 20
49.647000
 30
0.0
  0
VERTEX
  8
Si_FTE
 10
40.453000
 20
54.147000
 30
0.0
  0
VERTEX
  8
Si_FTE
 10
40.953000
 20
54.147000
 30
0.0
  0
VERTEX
  8
Si_FTE
 10
40.953000
 20
49.147000
 30
0.0
  0
VERTEX
  8
Si_FTE
 10
35.953000
 20
49.147000
 30
0.0
  0
SEQEND
  8
Si_FTE
  0
POLYLINE
  8
Si_FTE
 66
       1
 70
       1
 10
0.0
 20
0.0
 30
0.0
  0
VERTEX
  8
Si_FTE
 10
40.953000
 20
15.147000
 30
0.0
  0
VERTEX
  8
Si_FTE
 10
40.453000
 20
15.647000
 30
0.0
  0
VERTEX
  8
Si_FTE
 10
40.453000
 20
19.647000
 30
0.0
  0
VERTEX
  8
Si_FTE
 10
36.453000
 20
19.647000
 30
0.0
  0
VERTEX
  8
Si_FTE
 10
35.953000
 20
20.147000
 30
0.0
  0
VERTEX
  8
Si_FTE
 10
40.953000
 20
20.147000
 30
0.0
  0
SEQEND
  8
Si_FTE
  0
POLYLINE
  8
Poly_FTE
 66
       1
 70
       1
 10
0.0
 20
0.0
 30
0.0
  0
VERTEX
  8
Poly_FTE
 10
40.453000
 20
49.647000
 30
0.0
  0
VERTEX
  8
Poly_FTE
 10
36.453000
 20
49.647000
 30
0.0
  0
VERTEX
  8
Poly_FTE
 10
36.453000
 20
53.647000
 30
0.0
  0
VERTEX
  8
Poly_FTE
 10
40.453000
 20
53.647000
 30
0.0
  0
SEQEND
  8
Poly_FTE
  0
POLYLINE
  8
Poly_FTE
 66
       1
 70
       1
 10
0.0
 20
0.0
 30
0.0
  0
VERTEX
  8
Poly_FTE
 10
40.453000
 20
15.647000
 30
0.0
  0
VERTEX
  8
Poly_FTE
 10
36.453000
 20
15.647000
 30
0.0
  0
VERTEX
  8
Poly_FTE
 10
36.453000
 20
19.647000
 30
0.0
  0
VERTEX
  8
Poly_FTE
 10
40.453000
 20
19.647000
 30
0.0
  0
SEQEND
  8
Poly_FTE
  0
POLYLINE
  8
Poly_FTE
 66
       1
 70
       1
 10
0.0
 20
0.0
 30
0.0
  0
VERTEX
  8
Poly_FTE
 10
38.953000
 20
19.647000
 30
0.0
  0
VERTEX
  8
Poly_FTE
 10
37.953000
 20
19.647000
 30
0.0
  0
VERTEX
  8
Poly_FTE
 10
37.953000
 20
32.647000
 30
0.0
  0
VERTEX
  8
Poly_FTE
 10
38.953000
 20
32.647000
 30
0.0
  0
SEQEND
  8
Poly_FTE
  0
POLYLINE
  8
Poly_FTE
 66
       1
 70
       1
 10
0.0
 20
0.0
 30
0.0
  0
VERTEX
  8
Poly_FTE
 10
38.953000
 20
36.647000
 30
0.0
  0
VERTEX
  8
Poly_FTE
 10
37.953000
 20
36.647000
 30
0.0
  0
VERTEX
  8
Poly_FTE
 10
37.953000
 20
49.647000
 30
0.0
  0
VERTEX
  8
Poly_FTE
 10
38.953000
 20
49.647000
 30
0.0
  0
SEQEND
  8
Poly_FTE
  0
POLYLINE
  8
Oxide_FTE_drawing
 66
       1
 70
       1
 10
0.0
 20
0.0
 30
0.0
  0
VERTEX
  8
Oxide_FTE_drawing
 10
39.953000
 20
16.147000
 30
0.0
  0
VERTEX
  8
Oxide_FTE_drawing
 10
36.953000
 20
16.147000
 30
0.0
  0
VERTEX
  8
Oxide_FTE_drawing
 10
36.953000
 20
19.147000
 30
0.0
  0
VERTEX
  8
Oxide_FTE_drawing
 10
39.953000
 20
19.147000
 30
0.0
  0
SEQEND
  8
Oxide_FTE_drawing
  0
POLYLINE
  8
Oxide_FTE_drawing
 66
       1
 70
       1
 10
0.0
 20
0.0
 30
0.0
  0
VERTEX
  8
Oxide_FTE_drawing
 10
39.953000
 20
50.147000
 30
0.0
  0
VERTEX
  8
Oxide_FTE_drawing
 10
36.953000
 20
50.147000
 30
0.0
  0
VERTEX
  8
Oxide_FTE_drawing
 10
36.953000
 20
53.147000
 30
0.0
  0
VERTEX
  8
Oxide_FTE_drawing
 10
39.953000
 20
53.147000
 30
0.0
  0
SEQEND
  8
Oxide_FTE_drawing
  0
POLYLINE
  8
Poly_FTE
 66
       1
 70
       1
 10
0.0
 20
0.0
 30
0.0
  0
VERTEX
  8
Poly_FTE
 10
67.953000
 20
32.647000
 30
0.0
  0
VERTEX
  8
Poly_FTE
 10
37.953000
 20
32.647000
 30
0.0
  0
VERTEX
  8
Poly_FTE
 10
37.953000
 20
36.647000
 30
0.0
  0
VERTEX
  8
Poly_FTE
 10
67.953000
 20
36.647000
 30
0.0
  0
SEQEND
  8
Poly_FTE
  0
POLYLINE
  8
Poly_PTE
 66
       1
 70
       1
 10
0.0
 20
0.0
 30
0.0
  0
VERTEX
  8
Poly_PTE
 10
67.953000
 20
34.722000
 30
0.0
  0
VERTEX
  8
Poly_PTE
 10
37.953000
 20
35.147000
 30
0.0
  0
VERTEX
  8
Poly_PTE
 10
37.953000
 20
34.147000
 30
0.0
  0
VERTEX
  8
Poly_PTE
 10
67.953000
 20
34.572000
 30
0.0
  0
SEQEND
  8
Poly_PTE
  0
POLYLINE
  8
Si_FTE
 66
       1
 70
       1
 10
0.0
 20
0.0
 30
0.0
  0
VERTEX
  8
Si_FTE
 10
64.953000
 20
54.147000
 30
0.0
  0
VERTEX
  8
Si_FTE
 10
65.453000
 20
54.147000
 30
0.0
  0
VERTEX
  8
Si_FTE
 10
65.453000
 20
49.647000
 30
0.0
  0
VERTEX
  8
Si_FTE
 10
69.453000
 20
49.647000
 30
0.0
  0
VERTEX
  8
Si_FTE
 10
69.453000
 20
53.647000
 30
0.0
  0
VERTEX
  8
Si_FTE
 10
65.453000
 20
53.647000
 30
0.0
  0
VERTEX
  8
Si_FTE
 10
65.453000
 20
54.147000
 30
0.0
  0
VERTEX
  8
Si_FTE
 10
69.953000
 20
54.147000
 30
0.0
  0
VERTEX
  8
Si_FTE
 10
69.953000
 20
49.147000
 30
0.0
  0
VERTEX
  8
Si_FTE
 10
64.953000
 20
49.147000
 30
0.0
  0
SEQEND
  8
Si_FTE
  0
POLYLINE
  8
Poly_FTE
 66
       1
 70
       1
 10
0.0
 20
0.0
 30
0.0
  0
VERTEX
  8
Poly_FTE
 10
65.453000
 20
53.647000
 30
0.0
  0
VERTEX
  8
Poly_FTE
 10
69.453000
 20
53.647000
 30
0.0
  0
VERTEX
  8
Poly_FTE
 10
69.453000
 20
49.647000
 30
0.0
  0
VERTEX
  8
Poly_FTE
 10
65.453000
 20
49.647000
 30
0.0
  0
SEQEND
  8
Poly_FTE
  0
POLYLINE
  8
Poly_FTE
 66
       1
 70
       1
 10
0.0
 20
0.0
 30
0.0
  0
VERTEX
  8
Poly_FTE
 10
66.953000
 20
49.647000
 30
0.0
  0
VERTEX
  8
Poly_FTE
 10
67.953000
 20
49.647000
 30
0.0
  0
VERTEX
  8
Poly_FTE
 10
67.953000
 20
36.647000
 30
0.0
  0
VERTEX
  8
Poly_FTE
 10
66.953000
 20
36.647000
 30
0.0
  0
SEQEND
  8
Poly_FTE
  0
POLYLINE
  8
Oxide_FTE_drawing
 66
       1
 70
       1
 10
0.0
 20
0.0
 30
0.0
  0
VERTEX
  8
Oxide_FTE_drawing
 10
65.953000
 20
53.147000
 30
0.0
  0
VERTEX
  8
Oxide_FTE_drawing
 10
68.953000
 20
53.147000
 30
0.0
  0
VERTEX
  8
Oxide_FTE_drawing
 10
68.953000
 20
50.147000
 30
0.0
  0
VERTEX
  8
Oxide_FTE_drawing
 10
65.953000
 20
50.147000
 30
0.0
  0
SEQEND
  8
Oxide_FTE_drawing
  0
POLYLINE
  8
Si_FTE
 66
       1
 70
       1
 10
0.0
 20
0.0
 30
0.0
  0
VERTEX
  8
Si_FTE
 10
69.953000
 20
15.147000
 30
0.0
  0
VERTEX
  8
Si_FTE
 10
69.453000
 20
15.147000
 30
0.0
  0
VERTEX
  8
Si_FTE
 10
69.453000
 20
19.647000
 30
0.0
  0
VERTEX
  8
Si_FTE
 10
65.453000
 20
19.647000
 30
0.0
  0
VERTEX
  8
Si_FTE
 10
65.453000
 20
15.647000
 30
0.0
  0
VERTEX
  8
Si_FTE
 10
69.453000
 20
15.647000
 30
0.0
  0
VERTEX
  8
Si_FTE
 10
69.453000
 20
15.147000
 30
0.0
  0
VERTEX
  8
Si_FTE
 10
64.953000
 20
15.147000
 30
0.0
  0
VERTEX
  8
Si_FTE
 10
64.953000
 20
20.147000
 30
0.0
  0
VERTEX
  8
Si_FTE
 10
69.953000
 20
20.147000
 30
0.0
  0
SEQEND
  8
Si_FTE
  0
POLYLINE
  8
Poly_FTE
 66
       1
 70
       1
 10
0.0
 20
0.0
 30
0.0
  0
VERTEX
  8
Poly_FTE
 10
69.453000
 20
15.647000
 30
0.0
  0
VERTEX
  8
Poly_FTE
 10
65.453000
 20
15.647000
 30
0.0
  0
VERTEX
  8
Poly_FTE
 10
65.453000
 20
19.647000
 30
0.0
  0
VERTEX
  8
Poly_FTE
 10
69.453000
 20
19.647000
 30
0.0
  0
SEQEND
  8
Poly_FTE
  0
POLYLINE
  8
Poly_FTE
 66
       1
 70
       1
 10
0.0
 20
0.0
 30
0.0
  0
VERTEX
  8
Poly_FTE
 10
67.953000
 20
19.647000
 30
0.0
  0
VERTEX
  8
Poly_FTE
 10
66.953000
 20
19.647000
 30
0.0
  0
VERTEX
  8
Poly_FTE
 10
66.953000
 20
32.647000
 30
0.0
  0
VERTEX
  8
Poly_FTE
 10
67.953000
 20
32.647000
 30
0.0
  0
SEQEND
  8
Poly_FTE
  0
POLYLINE
  8
Oxide_FTE_drawing
 66
       1
 70
       1
 10
0.0
 20
0.0
 30
0.0
  0
VERTEX
  8
Oxide_FTE_drawing
 10
68.953000
 20
16.147000
 30
0.0
  0
VERTEX
  8
Oxide_FTE_drawing
 10
65.953000
 20
16.147000
 30
0.0
  0
VERTEX
  8
Oxide_FTE_drawing
 10
65.953000
 20
19.147000
 30
0.0
  0
VERTEX
  8
Oxide_FTE_drawing
 10
68.953000
 20
19.147000
 30
0.0
  0
SEQEND
  8
Oxide_FTE_drawing
  0
POLYLINE
  8
Si_FTE
 66
       1
 70
       1
 10
0.0
 20
0.0
 30
0.0
  0
VERTEX
  8
Si_FTE
 10
75.953000
 20
41.867000
 30
0.0
  0
VERTEX
  8
Si_FTE
 10
75.453000
 20
41.867000
 30
0.0
  0
VERTEX
  8
Si_FTE
 10
75.453000
 20
41.938000
 30
0.0
  0
VERTEX
  8
Si_FTE
 10
75.953000
 20
41.938000
 30
0.0
  0
SEQEND
  8
Si_FTE
  0
POLYLINE
  8
Si_FTE
 66
       1
 70
       1
 10
0.0
 20
0.0
 30
0.0
  0
VERTEX
  8
Si_FTE
 10
75.953000
 20
55.147000
 30
0.0
  0
VERTEX
  8
Si_FTE
 10
75.453000
 20
55.147000
 30
0.0
  0
VERTEX
  8
Si_FTE
 10
75.453000
 20
59.647000
 30
0.0
  0
VERTEX
  8
Si_FTE
 10
60.703000
 20
59.647000
 30
0.0
  0
VERTEX
  8
Si_FTE
 10
60.703000
 20
60.147000
 30
0.0
  0
VERTEX
  8
Si_FTE
 10
75.953000
 20
60.147000
 30
0.0
  0
SEQEND
  8
Si_FTE
  0
POLYLINE
  8
Si_FTE
 66
       1
 70
       1
 10
0.0
 20
0.0
 30
0.0
  0
VERTEX
  8
Si_FTE
 10
71.453000
 20
41.897000
 30
0.0
  0
VERTEX
  8
Si_FTE
 10
70.953000
 20
41.897000
 30
0.0
  0
VERTEX
  8
Si_FTE
 10
70.953000
 20
55.147000
 30
0.0
  0
VERTEX
  8
Si_FTE
 10
71.453000
 20
55.147000
 30
0.0
  0
SEQEND
  8
Si_FTE
  0
POLYLINE
  8
Si_FTE
 66
       1
 70
       1
 10
0.0
 20
0.0
 30
0.0
  0
VERTEX
  8
Si_FTE
 10
50.703000
 20
59.647000
 30
0.0
  0
VERTEX
  8
Si_FTE
 10
45.203000
 20
59.647000
 30
0.0
  0
VERTEX
  8
Si_FTE
 10
45.203000
 20
46.647000
 30
0.0
  0
VERTEX
  8
Si_FTE
 10
44.703000
 20
46.647000
 30
0.0
  0
VERTEX
  8
Si_FTE
 10
44.703000
 20
60.147000
 30
0.0
  0
VERTEX
  8
Si_FTE
 10
50.703000
 20
60.147000
 30
0.0
  0
SEQEND
  8
Si_FTE
  0
POLYLINE
  8
Si_FTE
 66
       1
 70
       1
 10
0.0
 20
0.0
 30
0.0
  0
VERTEX
  8
Si_FTE
 10
71.453000
 20
55.147000
 30
0.0
  0
VERTEX
  8
Si_FTE
 10
60.703000
 20
55.147000
 30
0.0
  0
VERTEX
  8
Si_FTE
 10
60.703000
 20
55.647000
 30
0.0
  0
VERTEX
  8
Si_FTE
 10
71.453000
 20
55.647000
 30
0.0
  0
SEQEND
  8
Si_FTE
  0
POLYLINE
  8
Si_FTE
 66
       1
 70
       1
 10
0.0
 20
0.0
 30
0.0
  0
VERTEX
  8
Si_FTE
 10
75.953000
 20
41.897000
 30
0.0
  0
VERTEX
  8
Si_FTE
 10
75.453000
 20
41.897000
 30
0.0
  0
VERTEX
  8
Si_FTE
 10
75.453000
 20
55.147000
 30
0.0
  0
VERTEX
  8
Si_FTE
 10
75.953000
 20
55.147000
 30
0.0
  0
SEQEND
  8
Si_FTE
  0
POLYLINE
  8
Si_FTE
 66
       1
 70
       1
 10
0.0
 20
0.0
 30
0.0
  0
VERTEX
  8
Si_FTE
 10
60.703000
 20
59.647000
 30
0.0
  0
VERTEX
  8
Si_FTE
 10
54.703000
 20
59.647000
 30
0.0
  0
VERTEX
  8
Si_FTE
 10
54.703000
 20
60.147000
 30
0.0
  0
VERTEX
  8
Si_FTE
 10
60.703000
 20
60.147000
 30
0.0
  0
SEQEND
  8
Si_FTE
  0
POLYLINE
  8
Si_FTE
 66
       1
 70
       1
 10
0.0
 20
0.0
 30
0.0
  0
VERTEX
  8
Si_FTE
 10
60.703000
 20
46.647000
 30
0.0
  0
VERTEX
  8
Si_FTE
 10
60.203000
 20
46.647000
 30
0.0
  0
VERTEX
  8
Si_FTE
 10
60.203000
 20
55.647000
 30
0.0
  0
VERTEX
  8
Si_FTE
 10
60.703000
 20
55.647000
 30
0.0
  0
SEQEND
  8
Si_FTE
  0
POLYLINE
  8
Poly_FTE
 66
       1
 70
       1
 10
0.0
 20
0.0
 30
0.0
  0
VERTEX
  8
Poly_FTE
 10
75.453000
 20
42.397000
 30
0.0
  0
VERTEX
  8
Poly_FTE
 10
71.453000
 20
42.397000
 30
0.0
  0
VERTEX
  8
Poly_FTE
 10
71.453000
 20
55.647000
 30
0.0
  0
VERTEX
  8
Poly_FTE
 10
75.453000
 20
55.647000
 30
0.0
  0
SEQEND
  8
Poly_FTE
  0
POLYLINE
  8
Poly_FTE
 66
       1
 70
       1
 10
0.0
 20
0.0
 30
0.0
  0
VERTEX
  8
Poly_FTE
 10
75.453000
 20
55.647000
 30
0.0
  0
VERTEX
  8
Poly_FTE
 10
60.203000
 20
55.647000
 30
0.0
  0
VERTEX
  8
Poly_FTE
 10
60.203000
 20
59.647000
 30
0.0
  0
VERTEX
  8
Poly_FTE
 10
75.453000
 20
59.647000
 30
0.0
  0
SEQEND
  8
Poly_FTE
  0
POLYLINE
  8
Poly_FTE
 66
       1
 70
       1
 10
0.0
 20
0.0
 30
0.0
  0
VERTEX
  8
Poly_FTE
 10
60.203000
 20
46.647000
 30
0.0
  0
VERTEX
  8
Poly_FTE
 10
45.203000
 20
46.647000
 30
0.0
  0
VERTEX
  8
Poly_FTE
 10
45.203000
 20
59.647000
 30
0.0
  0
VERTEX
  8
Poly_FTE
 10
60.203000
 20
59.647000
 30
0.0
  0
SEQEND
  8
Poly_FTE
  0
POLYLINE
  8
Poly_PTE
 66
       1
 70
       1
 10
0.0
 20
0.0
 30
0.0
  0
VERTEX
  8
Poly_PTE
 10
75.953000
 20
41.897000
 30
0.0
  0
VERTEX
  8
Poly_PTE
 10
70.953000
 20
41.897000
 30
0.0
  0
VERTEX
  8
Poly_PTE
 10
70.953000
 20
55.147000
 30
0.0
  0
VERTEX
  8
Poly_PTE
 10
75.953000
 20
55.147000
 30
0.0
  0
SEQEND
  8
Poly_PTE
  0
POLYLINE
  8
Poly_PTE
 66
       1
 70
       1
 10
0.0
 20
0.0
 30
0.0
  0
VERTEX
  8
Poly_PTE
 10
75.953000
 20
55.147000
 30
0.0
  0
VERTEX
  8
Poly_PTE
 10
60.703000
 20
55.147000
 30
0.0
  0
VERTEX
  8
Poly_PTE
 10
60.703000
 20
60.147000
 30
0.0
  0
VERTEX
  8
Poly_PTE
 10
75.953000
 20
60.147000
 30
0.0
  0
SEQEND
  8
Poly_PTE
  0
POLYLINE
  8
Poly_PTE
 66
       1
 70
       1
 10
0.0
 20
0.0
 30
0.0
  0
VERTEX
  8
Poly_PTE
 10
60.703000
 20
46.147000
 30
0.0
  0
VERTEX
  8
Poly_PTE
 10
44.703000
 20
46.147000
 30
0.0
  0
VERTEX
  8
Poly_PTE
 10
44.703000
 20
60.147000
 30
0.0
  0
VERTEX
  8
Poly_PTE
 10
60.703000
 20
60.147000
 30
0.0
  0
SEQEND
  8
Poly_PTE
  0
POLYLINE
  8
Oxide_FTE_drawing
 66
       1
 70
       1
 10
0.0
 20
0.0
 30
0.0
  0
VERTEX
  8
Oxide_FTE_drawing
 10
74.953000
 20
42.897000
 30
0.0
  0
VERTEX
  8
Oxide_FTE_drawing
 10
71.953000
 20
42.897000
 30
0.0
  0
VERTEX
  8
Oxide_FTE_drawing
 10
71.953000
 20
56.147000
 30
0.0
  0
VERTEX
  8
Oxide_FTE_drawing
 10
74.953000
 20
56.147000
 30
0.0
  0
SEQEND
  8
Oxide_FTE_drawing
  0
POLYLINE
  8
Oxide_FTE_drawing
 66
       1
 70
       1
 10
0.0
 20
0.0
 30
0.0
  0
VERTEX
  8
Oxide_FTE_drawing
 10
74.953000
 20
56.147000
 30
0.0
  0
VERTEX
  8
Oxide_FTE_drawing
 10
59.703000
 20
56.147000
 30
0.0
  0
VERTEX
  8
Oxide_FTE_drawing
 10
59.703000
 20
59.147000
 30
0.0
  0
VERTEX
  8
Oxide_FTE_drawing
 10
74.953000
 20
59.147000
 30
0.0
  0
SEQEND
  8
Oxide_FTE_drawing
  0
POLYLINE
  8
Oxide_FTE_drawing
 66
       1
 70
       1
 10
0.0
 20
0.0
 30
0.0
  0
VERTEX
  8
Oxide_FTE_drawing
 10
59.703000
 20
46.147000
 30
0.0
  0
VERTEX
  8
Oxide_FTE_drawing
 10
45.703000
 20
46.147000
 30
0.0
  0
VERTEX
  8
Oxide_FTE_drawing
 10
45.703000
 20
59.147000
 30
0.0
  0
VERTEX
  8
Oxide_FTE_drawing
 10
59.703000
 20
59.147000
 30
0.0
  0
SEQEND
  8
Oxide_FTE_drawing
  0
POLYLINE
  8
Si_FTE
 66
       1
 70
       1
 10
0.0
 20
0.0
 30
0.0
  0
VERTEX
  8
Si_FTE
 10
75.953000
 20
14.147000
 30
0.0
  0
VERTEX
  8
Si_FTE
 10
75.453000
 20
14.147000
 30
0.0
  0
VERTEX
  8
Si_FTE
 10
75.453000
 20
9.647000
 30
0.0
  0
VERTEX
  8
Si_FTE
 10
60.703000
 20
9.647000
 30
0.0
  0
VERTEX
  8
Si_FTE
 10
60.703000
 20
9.147000
 30
0.0
  0
VERTEX
  8
Si_FTE
 10
75.953000
 20
9.147000
 30
0.0
  0
SEQEND
  8
Si_FTE
  0
POLYLINE
  8
Si_FTE
 66
       1
 70
       1
 10
0.0
 20
0.0
 30
0.0
  0
VERTEX
  8
Si_FTE
 10
71.453000
 20
27.397000
 30
0.0
  0
VERTEX
  8
Si_FTE
 10
70.953000
 20
27.397000
 30
0.0
  0
VERTEX
  8
Si_FTE
 10
70.953000
 20
14.147000
 30
0.0
  0
VERTEX
  8
Si_FTE
 10
71.453000
 20
14.147000
 30
0.0
  0
SEQEND
  8
Si_FTE
  0
POLYLINE
  8
Si_FTE
 66
       1
 70
       1
 10
0.0
 20
0.0
 30
0.0
  0
VERTEX
  8
Si_FTE
 10
50.703000
 20
9.647000
 30
0.0
  0
VERTEX
  8
Si_FTE
 10
45.203000
 20
9.647000
 30
0.0
  0
VERTEX
  8
Si_FTE
 10
45.203000
 20
22.647000
 30
0.0
  0
VERTEX
  8
Si_FTE
 10
44.703000
 20
22.647000
 30
0.0
  0
VERTEX
  8
Si_FTE
 10
44.703000
 20
9.147000
 30
0.0
  0
VERTEX
  8
Si_FTE
 10
50.703000
 20
9.147000
 30
0.0
  0
SEQEND
  8
Si_FTE
  0
POLYLINE
  8
Si_FTE
 66
       1
 70
       1
 10
0.0
 20
0.0
 30
0.0
  0
VERTEX
  8
Si_FTE
 10
71.453000
 20
14.147000
 30
0.0
  0
VERTEX
  8
Si_FTE
 10
60.703000
 20
14.147000
 30
0.0
  0
VERTEX
  8
Si_FTE
 10
60.703000
 20
13.647000
 30
0.0
  0
VERTEX
  8
Si_FTE
 10
71.453000
 20
13.647000
 30
0.0
  0
SEQEND
  8
Si_FTE
  0
POLYLINE
  8
Si_FTE
 66
       1
 70
       1
 10
0.0
 20
0.0
 30
0.0
  0
VERTEX
  8
Si_FTE
 10
75.953000
 20
27.397000
 30
0.0
  0
VERTEX
  8
Si_FTE
 10
75.453000
 20
27.397000
 30
0.0
  0
VERTEX
  8
Si_FTE
 10
75.453000
 20
14.147000
 30
0.0
  0
VERTEX
  8
Si_FTE
 10
75.953000
 20
14.147000
 30
0.0
  0
SEQEND
  8
Si_FTE
  0
POLYLINE
  8
Si_FTE
 66
       1
 70
       1
 10
0.0
 20
0.0
 30
0.0
  0
VERTEX
  8
Si_FTE
 10
60.703000
 20
9.647000
 30
0.0
  0
VERTEX
  8
Si_FTE
 10
54.703000
 20
9.647000
 30
0.0
  0
VERTEX
  8
Si_FTE
 10
54.703000
 20
9.147000
 30
0.0
  0
VERTEX
  8
Si_FTE
 10
60.703000
 20
9.147000
 30
0.0
  0
SEQEND
  8
Si_FTE
  0
POLYLINE
  8
Si_FTE
 66
       1
 70
       1
 10
0.0
 20
0.0
 30
0.0
  0
VERTEX
  8
Si_FTE
 10
60.703000
 20
22.647000
 30
0.0
  0
VERTEX
  8
Si_FTE
 10
60.203000
 20
22.647000
 30
0.0
  0
VERTEX
  8
Si_FTE
 10
60.203000
 20
13.647000
 30
0.0
  0
VERTEX
  8
Si_FTE
 10
60.703000
 20
13.647000
 30
0.0
  0
SEQEND
  8
Si_FTE
  0
POLYLINE
  8
Poly_FTE
 66
       1
 70
       1
 10
0.0
 20
0.0
 30
0.0
  0
VERTEX
  8
Poly_FTE
 10
75.453000
 20
26.897000
 30
0.0
  0
VERTEX
  8
Poly_FTE
 10
71.453000
 20
26.897000
 30
0.0
  0
VERTEX
  8
Poly_FTE
 10
71.453000
 20
13.647000
 30
0.0
  0
VERTEX
  8
Poly_FTE
 10
75.453000
 20
13.647000
 30
0.0
  0
SEQEND
  8
Poly_FTE
  0
POLYLINE
  8
Poly_FTE
 66
       1
 70
       1
 10
0.0
 20
0.0
 30
0.0
  0
VERTEX
  8
Poly_FTE
 10
75.453000
 20
13.647000
 30
0.0
  0
VERTEX
  8
Poly_FTE
 10
60.203000
 20
13.647000
 30
0.0
  0
VERTEX
  8
Poly_FTE
 10
60.203000
 20
9.647000
 30
0.0
  0
VERTEX
  8
Poly_FTE
 10
75.453000
 20
9.647000
 30
0.0
  0
SEQEND
  8
Poly_FTE
  0
POLYLINE
  8
Poly_FTE
 66
       1
 70
       1
 10
0.0
 20
0.0
 30
0.0
  0
VERTEX
  8
Poly_FTE
 10
60.203000
 20
22.647000
 30
0.0
  0
VERTEX
  8
Poly_FTE
 10
45.203000
 20
22.647000
 30
0.0
  0
VERTEX
  8
Poly_FTE
 10
45.203000
 20
9.647000
 30
0.0
  0
VERTEX
  8
Poly_FTE
 10
60.203000
 20
9.647000
 30
0.0
  0
SEQEND
  8
Poly_FTE
  0
POLYLINE
  8
Poly_PTE
 66
       1
 70
       1
 10
0.0
 20
0.0
 30
0.0
  0
VERTEX
  8
Poly_PTE
 10
75.953000
 20
27.397000
 30
0.0
  0
VERTEX
  8
Poly_PTE
 10
70.953000
 20
27.397000
 30
0.0
  0
VERTEX
  8
Poly_PTE
 10
70.953000
 20
14.147000
 30
0.0
  0
VERTEX
  8
Poly_PTE
 10
75.953000
 20
14.147000
 30
0.0
  0
SEQEND
  8
Poly_PTE
  0
POLYLINE
  8
Poly_PTE
 66
       1
 70
       1
 10
0.0
 20
0.0
 30
0.0
  0
VERTEX
  8
Poly_PTE
 10
75.953000
 20
14.147000
 30
0.0
  0
VERTEX
  8
Poly_PTE
 10
60.703000
 20
14.147000
 30
0.0
  0
VERTEX
  8
Poly_PTE
 10
60.703000
 20
9.147000
 30
0.0
  0
VERTEX
  8
Poly_PTE
 10
75.953000
 20
9.147000
 30
0.0
  0
SEQEND
  8
Poly_PTE
  0
POLYLINE
  8
Poly_PTE
 66
       1
 70
       1
 10
0.0
 20
0.0
 30
0.0
  0
VERTEX
  8
Poly_PTE
 10
60.703000
 20
23.147000
 30
0.0
  0
VERTEX
  8
Poly_PTE
 10
44.703000
 20
23.147000
 30
0.0
  0
VERTEX
  8
Poly_PTE
 10
44.703000
 20
9.147000
 30
0.0
  0
VERTEX
  8
Poly_PTE
 10
60.703000
 20
9.147000
 30
0.0
  0
SEQEND
  8
Poly_PTE
  0
POLYLINE
  8
Oxide_FTE_drawing
 66
       1
 70
       1
 10
0.0
 20
0.0
 30
0.0
  0
VERTEX
  8
Oxide_FTE_drawing
 10
74.953000
 20
26.397000
 30
0.0
  0
VERTEX
  8
Oxide_FTE_drawing
 10
71.953000
 20
26.397000
 30
0.0
  0
VERTEX
  8
Oxide_FTE_drawing
 10
71.953000
 20
13.147000
 30
0.0
  0
VERTEX
  8
Oxide_FTE_drawing
 10
74.953000
 20
13.147000
 30
0.0
  0
SEQEND
  8
Oxide_FTE_drawing
  0
POLYLINE
  8
Oxide_FTE_drawing
 66
       1
 70
       1
 10
0.0
 20
0.0
 30
0.0
  0
VERTEX
  8
Oxide_FTE_drawing
 10
74.953000
 20
13.147000
 30
0.0
  0
VERTEX
  8
Oxide_FTE_drawing
 10
59.703000
 20
13.147000
 30
0.0
  0
VERTEX
  8
Oxide_FTE_drawing
 10
59.703000
 20
10.147000
 30
0.0
  0
VERTEX
  8
Oxide_FTE_drawing
 10
74.953000
 20
10.147000
 30
0.0
  0
SEQEND
  8
Oxide_FTE_drawing
  0
POLYLINE
  8
Oxide_FTE_drawing
 66
       1
 70
       1
 10
0.0
 20
0.0
 30
0.0
  0
VERTEX
  8
Oxide_FTE_drawing
 10
59.703000
 20
23.147000
 30
0.0
  0
VERTEX
  8
Oxide_FTE_drawing
 10
45.703000
 20
23.147000
 30
0.0
  0
VERTEX
  8
Oxide_FTE_drawing
 10
45.703000
 20
10.147000
 30
0.0
  0
VERTEX
  8
Oxide_FTE_drawing
 10
59.703000
 20
10.147000
 30
0.0
  0
SEQEND
  8
Oxide_FTE_drawing
  0
POLYLINE
  8
Si_FTE
 66
       1
 70
       1
 10
0.0
 20
0.0
 30
0.0
  0
VERTEX
  8
Si_FTE
 10
75.953000
 20
36.897000
 30
0.0
  0
VERTEX
  8
Si_FTE
 10
70.953000
 20
36.897000
 30
0.0
  0
VERTEX
  8
Si_FTE
 10
70.953000
 20
41.897000
 30
0.0
  0
VERTEX
  8
Si_FTE
 10
71.453000
 20
41.897000
 30
0.0
  0
VERTEX
  8
Si_FTE
 10
71.453000
 20
37.397000
 30
0.0
  0
VERTEX
  8
Si_FTE
 10
75.453000
 20
37.397000
 30
0.0
  0
VERTEX
  8
Si_FTE
 10
75.453000
 20
41.897000
 30
0.0
  0
VERTEX
  8
Si_FTE
 10
75.953000
 20
41.897000
 30
0.0
  0
SEQEND
  8
Si_FTE
  0
POLYLINE
  8
Si_FTE
 66
       1
 70
       1
 10
0.0
 20
0.0
 30
0.0
  0
VERTEX
  8
Si_FTE
 10
75.953000
 20
27.397000
 30
0.0
  0
VERTEX
  8
Si_FTE
 10
75.453000
 20
27.397000
 30
0.0
  0
VERTEX
  8
Si_FTE
 10
75.453000
 20
31.897000
 30
0.0
  0
VERTEX
  8
Si_FTE
 10
71.453000
 20
31.897000
 30
0.0
  0
VERTEX
  8
Si_FTE
 10
71.453000
 20
27.397000
 30
0.0
  0
VERTEX
  8
Si_FTE
 10
70.953000
 20
27.397000
 30
0.0
  0
VERTEX
  8
Si_FTE
 10
70.953000
 20
32.397000
 30
0.0
  0
VERTEX
  8
Si_FTE
 10
75.953000
 20
32.397000
 30
0.0
  0
SEQEND
  8
Si_FTE
  0
POLYLINE
  8
Poly_FTE
 66
       1
 70
       1
 10
0.0
 20
0.0
 30
0.0
  0
VERTEX
  8
Poly_FTE
 10
75.453000
 20
31.897000
 30
0.0
  0
VERTEX
  8
Poly_FTE
 10
71.453000
 20
31.897000
 30
0.0
  0
VERTEX
  8
Poly_FTE
 10
71.453000
 20
37.397000
 30
0.0
  0
VERTEX
  8
Poly_FTE
 10
75.453000
 20
37.397000
 30
0.0
  0
SEQEND
  8
Poly_FTE
  0
POLYLINE
  8
Poly_FTE
 66
       1
 70
       1
 10
0.0
 20
0.0
 30
0.0
  0
VERTEX
  8
Poly_FTE
 10
75.453000
 20
26.897000
 30
0.0
  0
VERTEX
  8
Poly_FTE
 10
71.453000
 20
26.897000
 30
0.0
  0
VERTEX
  8
Poly_FTE
 10
71.453000
 20
31.897000
 30
0.0
  0
VERTEX
  8
Poly_FTE
 10
75.453000
 20
31.897000
 30
0.0
  0
SEQEND
  8
Poly_FTE
  0
POLYLINE
  8
Poly_FTE
 66
       1
 70
       1
 10
0.0
 20
0.0
 30
0.0
  0
VERTEX
  8
Poly_FTE
 10
75.453000
 20
37.397000
 30
0.0
  0
VERTEX
  8
Poly_FTE
 10
71.453000
 20
37.397000
 30
0.0
  0
VERTEX
  8
Poly_FTE
 10
71.453000
 20
42.397000
 30
0.0
  0
VERTEX
  8
Poly_FTE
 10
75.453000
 20
42.397000
 30
0.0
  0
SEQEND
  8
Poly_FTE
  0
POLYLINE
  8
Poly_PTE
 66
       1
 70
       1
 10
0.0
 20
0.0
 30
0.0
  0
VERTEX
  8
Poly_PTE
 10
75.953000
 20
32.397000
 30
0.0
  0
VERTEX
  8
Poly_PTE
 10
70.953000
 20
32.397000
 30
0.0
  0
VERTEX
  8
Poly_PTE
 10
70.953000
 20
36.897000
 30
0.0
  0
VERTEX
  8
Poly_PTE
 10
75.953000
 20
36.897000
 30
0.0
  0
SEQEND
  8
Poly_PTE
  0
POLYLINE
  8
Poly_PTE
 66
       1
 70
       1
 10
0.0
 20
0.0
 30
0.0
  0
VERTEX
  8
Poly_PTE
 10
75.953000
 20
27.396000
 30
0.0
  0
VERTEX
  8
Poly_PTE
 10
70.953000
 20
27.396000
 30
0.0
  0
VERTEX
  8
Poly_PTE
 10
70.953000
 20
32.397000
 30
0.0
  0
VERTEX
  8
Poly_PTE
 10
75.953000
 20
32.397000
 30
0.0
  0
SEQEND
  8
Poly_PTE
  0
POLYLINE
  8
Poly_PTE
 66
       1
 70
       1
 10
0.0
 20
0.0
 30
0.0
  0
VERTEX
  8
Poly_PTE
 10
75.953000
 20
36.897000
 30
0.0
  0
VERTEX
  8
Poly_PTE
 10
70.953000
 20
36.897000
 30
0.0
  0
VERTEX
  8
Poly_PTE
 10
70.953000
 20
41.897000
 30
0.0
  0
VERTEX
  8
Poly_PTE
 10
75.953000
 20
41.897000
 30
0.0
  0
SEQEND
  8
Poly_PTE
  0
POLYLINE
  8
Oxide_FTE_drawing
 66
       1
 70
       1
 10
0.0
 20
0.0
 30
0.0
  0
VERTEX
  8
Oxide_FTE_drawing
 10
74.953000
 20
26.397000
 30
0.0
  0
VERTEX
  8
Oxide_FTE_drawing
 10
71.953000
 20
26.397000
 30
0.0
  0
VERTEX
  8
Oxide_FTE_drawing
 10
71.953000
 20
31.397000
 30
0.0
  0
VERTEX
  8
Oxide_FTE_drawing
 10
74.953000
 20
31.397000
 30
0.0
  0
SEQEND
  8
Oxide_FTE_drawing
  0
POLYLINE
  8
Oxide_FTE_drawing
 66
       1
 70
       1
 10
0.0
 20
0.0
 30
0.0
  0
VERTEX
  8
Oxide_FTE_drawing
 10
74.953000
 20
37.897000
 30
0.0
  0
VERTEX
  8
Oxide_FTE_drawing
 10
71.953000
 20
37.897000
 30
0.0
  0
VERTEX
  8
Oxide_FTE_drawing
 10
71.953000
 20
42.897000
 30
0.0
  0
VERTEX
  8
Oxide_FTE_drawing
 10
74.953000
 20
42.897000
 30
0.0
  0
SEQEND
  8
Oxide_FTE_drawing
  0
POLYLINE
  8
Si_FTE
 66
       1
 70
       1
 10
0.0
 20
0.0
 30
0.0
  0
VERTEX
  8
Si_FTE
 10
65.953000
 20
41.647000
 30
0.0
  0
VERTEX
  8
Si_FTE
 10
39.953000
 20
41.647000
 30
0.0
  0
VERTEX
  8
Si_FTE
 10
39.953000
 20
47.147000
 30
0.0
  0
VERTEX
  8
Si_FTE
 10
45.203000
 20
47.147000
 30
0.0
  0
VERTEX
  8
Si_FTE
 10
45.203000
 20
46.647000
 30
0.0
  0
VERTEX
  8
Si_FTE
 10
40.453000
 20
46.647000
 30
0.0
  0
VERTEX
  8
Si_FTE
 10
40.453000
 20
42.147000
 30
0.0
  0
VERTEX
  8
Si_FTE
 10
65.453000
 20
42.147000
 30
0.0
  0
VERTEX
  8
Si_FTE
 10
65.453000
 20
46.647000
 30
0.0
  0
VERTEX
  8
Si_FTE
 10
60.203000
 20
46.647000
 30
0.0
  0
VERTEX
  8
Si_FTE
 10
60.203000
 20
47.147000
 30
0.0
  0
VERTEX
  8
Si_FTE
 10
65.953000
 20
47.147000
 30
0.0
  0
SEQEND
  8
Si_FTE
  0
POLYLINE
  8
Poly_FTE
 66
       1
 70
       1
 10
0.0
 20
0.0
 30
0.0
  0
VERTEX
  8
Poly_FTE
 10
48.953000
 20
37.897000
 30
0.0
  0
VERTEX
  8
Poly_FTE
 10
47.953000
 20
37.897000
 30
0.0
  0
VERTEX
  8
Poly_FTE
 10
47.953000
 20
42.147000
 30
0.0
  0
VERTEX
  8
Poly_FTE
 10
48.953000
 20
42.147000
 30
0.0
  0
SEQEND
  8
Poly_FTE
  0
POLYLINE
  8
Poly_FTE
 66
       1
 70
       1
 10
0.0
 20
0.0
 30
0.0
  0
VERTEX
  8
Poly_FTE
 10
51.953000
 20
37.897000
 30
0.0
  0
VERTEX
  8
Poly_FTE
 10
50.953000
 20
37.897000
 30
0.0
  0
VERTEX
  8
Poly_FTE
 10
50.953000
 20
42.147000
 30
0.0
  0
VERTEX
  8
Poly_FTE
 10
51.953000
 20
42.147000
 30
0.0
  0
SEQEND
  8
Poly_FTE
  0
POLYLINE
  8
Poly_FTE
 66
       1
 70
       1
 10
0.0
 20
0.0
 30
0.0
  0
VERTEX
  8
Poly_FTE
 10
60.953000
 20
37.897000
 30
0.0
  0
VERTEX
  8
Poly_FTE
 10
59.953000
 20
37.897000
 30
0.0
  0
VERTEX
  8
Poly_FTE
 10
59.953000
 20
42.147000
 30
0.0
  0
VERTEX
  8
Poly_FTE
 10
60.953000
 20
42.147000
 30
0.0
  0
SEQEND
  8
Poly_FTE
  0
POLYLINE
  8
Poly_FTE
 66
       1
 70
       1
 10
0.0
 20
0.0
 30
0.0
  0
VERTEX
  8
Poly_FTE
 10
57.953000
 20
37.897000
 30
0.0
  0
VERTEX
  8
Poly_FTE
 10
56.953000
 20
37.897000
 30
0.0
  0
VERTEX
  8
Poly_FTE
 10
56.953000
 20
42.147000
 30
0.0
  0
VERTEX
  8
Poly_FTE
 10
57.953000
 20
42.147000
 30
0.0
  0
SEQEND
  8
Poly_FTE
  0
POLYLINE
  8
Poly_FTE
 66
       1
 70
       1
 10
0.0
 20
0.0
 30
0.0
  0
VERTEX
  8
Poly_FTE
 10
54.953000
 20
37.897000
 30
0.0
  0
VERTEX
  8
Poly_FTE
 10
53.953000
 20
37.897000
 30
0.0
  0
VERTEX
  8
Poly_FTE
 10
53.953000
 20
42.147000
 30
0.0
  0
VERTEX
  8
Poly_FTE
 10
54.953000
 20
42.147000
 30
0.0
  0
SEQEND
  8
Poly_FTE
  0
POLYLINE
  8
Poly_FTE
 66
       1
 70
       1
 10
0.0
 20
0.0
 30
0.0
  0
VERTEX
  8
Poly_FTE
 10
42.953000
 20
37.897000
 30
0.0
  0
VERTEX
  8
Poly_FTE
 10
41.953000
 20
37.897000
 30
0.0
  0
VERTEX
  8
Poly_FTE
 10
41.953000
 20
42.147000
 30
0.0
  0
VERTEX
  8
Poly_FTE
 10
42.953000
 20
42.147000
 30
0.0
  0
SEQEND
  8
Poly_FTE
  0
POLYLINE
  8
Poly_FTE
 66
       1
 70
       1
 10
0.0
 20
0.0
 30
0.0
  0
VERTEX
  8
Poly_FTE
 10
45.953000
 20
37.897000
 30
0.0
  0
VERTEX
  8
Poly_FTE
 10
44.953000
 20
37.897000
 30
0.0
  0
VERTEX
  8
Poly_FTE
 10
44.953000
 20
42.147000
 30
0.0
  0
VERTEX
  8
Poly_FTE
 10
45.953000
 20
42.147000
 30
0.0
  0
SEQEND
  8
Poly_FTE
  0
POLYLINE
  8
Poly_FTE
 66
       1
 70
       1
 10
0.0
 20
0.0
 30
0.0
  0
VERTEX
  8
Poly_FTE
 10
63.953000
 20
37.897000
 30
0.0
  0
VERTEX
  8
Poly_FTE
 10
62.953000
 20
37.897000
 30
0.0
  0
VERTEX
  8
Poly_FTE
 10
62.953000
 20
42.147000
 30
0.0
  0
VERTEX
  8
Poly_FTE
 10
63.953000
 20
42.147000
 30
0.0
  0
SEQEND
  8
Poly_FTE
  0
POLYLINE
  8
Poly_FTE
 66
       1
 70
       1
 10
0.0
 20
0.0
 30
0.0
  0
VERTEX
  8
Poly_FTE
 10
65.453000
 20
36.647000
 30
0.0
  0
VERTEX
  8
Poly_FTE
 10
40.453000
 20
36.647000
 30
0.0
  0
VERTEX
  8
Poly_FTE
 10
40.453000
 20
37.397000
 30
0.0
  0
VERTEX
  8
Poly_FTE
 10
65.453000
 20
37.397000
 30
0.0
  0
SEQEND
  8
Poly_FTE
  0
POLYLINE
  8
Poly_FTE
 66
       1
 70
       1
 10
0.0
 20
0.0
 30
0.0
  0
VERTEX
  8
Poly_FTE
 10
65.453000
 20
37.397000
 30
0.0
  0
VERTEX
  8
Poly_FTE
 10
64.453000
 20
37.397000
 30
0.0
  0
VERTEX
  8
Poly_FTE
 10
64.453000
 20
41.397000
 30
0.0
  0
VERTEX
  8
Poly_FTE
 10
65.453000
 20
41.397000
 30
0.0
  0
SEQEND
  8
Poly_FTE
  0
POLYLINE
  8
Poly_FTE
 66
       1
 70
       1
 10
0.0
 20
0.0
 30
0.0
  0
VERTEX
  8
Poly_FTE
 10
62.453000
 20
37.397000
 30
0.0
  0
VERTEX
  8
Poly_FTE
 10
61.453000
 20
37.397000
 30
0.0
  0
VERTEX
  8
Poly_FTE
 10
61.453000
 20
41.397000
 30
0.0
  0
VERTEX
  8
Poly_FTE
 10
62.453000
 20
41.397000
 30
0.0
  0
SEQEND
  8
Poly_FTE
  0
POLYLINE
  8
Poly_FTE
 66
       1
 70
       1
 10
0.0
 20
0.0
 30
0.0
  0
VERTEX
  8
Poly_FTE
 10
59.453000
 20
37.397000
 30
0.0
  0
VERTEX
  8
Poly_FTE
 10
58.453000
 20
37.397000
 30
0.0
  0
VERTEX
  8
Poly_FTE
 10
58.453000
 20
41.397000
 30
0.0
  0
VERTEX
  8
Poly_FTE
 10
59.453000
 20
41.397000
 30
0.0
  0
SEQEND
  8
Poly_FTE
  0
POLYLINE
  8
Poly_FTE
 66
       1
 70
       1
 10
0.0
 20
0.0
 30
0.0
  0
VERTEX
  8
Poly_FTE
 10
56.453000
 20
37.397000
 30
0.0
  0
VERTEX
  8
Poly_FTE
 10
55.453000
 20
37.397000
 30
0.0
  0
VERTEX
  8
Poly_FTE
 10
55.453000
 20
41.397000
 30
0.0
  0
VERTEX
  8
Poly_FTE
 10
56.453000
 20
41.397000
 30
0.0
  0
SEQEND
  8
Poly_FTE
  0
POLYLINE
  8
Poly_FTE
 66
       1
 70
       1
 10
0.0
 20
0.0
 30
0.0
  0
VERTEX
  8
Poly_FTE
 10
53.453000
 20
37.397000
 30
0.0
  0
VERTEX
  8
Poly_FTE
 10
52.453000
 20
37.397000
 30
0.0
  0
VERTEX
  8
Poly_FTE
 10
52.453000
 20
41.397000
 30
0.0
  0
VERTEX
  8
Poly_FTE
 10
53.453000
 20
41.397000
 30
0.0
  0
SEQEND
  8
Poly_FTE
  0
POLYLINE
  8
Poly_FTE
 66
       1
 70
       1
 10
0.0
 20
0.0
 30
0.0
  0
VERTEX
  8
Poly_FTE
 10
50.453000
 20
37.397000
 30
0.0
  0
VERTEX
  8
Poly_FTE
 10
49.453000
 20
37.397000
 30
0.0
  0
VERTEX
  8
Poly_FTE
 10
49.453000
 20
41.397000
 30
0.0
  0
VERTEX
  8
Poly_FTE
 10
50.453000
 20
41.397000
 30
0.0
  0
SEQEND
  8
Poly_FTE
  0
POLYLINE
  8
Poly_FTE
 66
       1
 70
       1
 10
0.0
 20
0.0
 30
0.0
  0
VERTEX
  8
Poly_FTE
 10
47.453000
 20
37.397000
 30
0.0
  0
VERTEX
  8
Poly_FTE
 10
46.453000
 20
37.397000
 30
0.0
  0
VERTEX
  8
Poly_FTE
 10
46.453000
 20
41.397000
 30
0.0
  0
VERTEX
  8
Poly_FTE
 10
47.453000
 20
41.397000
 30
0.0
  0
SEQEND
  8
Poly_FTE
  0
POLYLINE
  8
Poly_FTE
 66
       1
 70
       1
 10
0.0
 20
0.0
 30
0.0
  0
VERTEX
  8
Poly_FTE
 10
44.453000
 20
37.397000
 30
0.0
  0
VERTEX
  8
Poly_FTE
 10
43.453000
 20
37.397000
 30
0.0
  0
VERTEX
  8
Poly_FTE
 10
43.453000
 20
41.397000
 30
0.0
  0
VERTEX
  8
Poly_FTE
 10
44.453000
 20
41.397000
 30
0.0
  0
SEQEND
  8
Poly_FTE
  0
POLYLINE
  8
Poly_FTE
 66
       1
 70
       1
 10
0.0
 20
0.0
 30
0.0
  0
VERTEX
  8
Poly_FTE
 10
41.453000
 20
37.397000
 30
0.0
  0
VERTEX
  8
Poly_FTE
 10
40.453000
 20
37.397000
 30
0.0
  0
VERTEX
  8
Poly_FTE
 10
40.453000
 20
41.397000
 30
0.0
  0
VERTEX
  8
Poly_FTE
 10
41.453000
 20
41.397000
 30
0.0
  0
SEQEND
  8
Poly_FTE
  0
POLYLINE
  8
Poly_FTE
 66
       1
 70
       1
 10
0.0
 20
0.0
 30
0.0
  0
VERTEX
  8
Poly_FTE
 10
65.453000
 20
42.147000
 30
0.0
  0
VERTEX
  8
Poly_FTE
 10
40.453000
 20
42.147000
 30
0.0
  0
VERTEX
  8
Poly_FTE
 10
40.453000
 20
46.647000
 30
0.0
  0
VERTEX
  8
Poly_FTE
 10
65.453000
 20
46.647000
 30
0.0
  0
SEQEND
  8
Poly_FTE
  0
POLYLINE
  8
Poly_FTE
 66
       1
 70
       1
 10
0.0
 20
0.0
 30
0.0
  0
VERTEX
  8
Poly_FTE
 10
53.453000
 20
36.647000
 30
0.0
  0
VERTEX
  8
Poly_FTE
 10
52.453000
 20
36.647000
 30
0.0
  0
VERTEX
  8
Poly_FTE
 10
52.453000
 20
37.947000
 30
0.0
  0
VERTEX
  8
Poly_FTE
 10
53.453000
 20
37.947000
 30
0.0
  0
SEQEND
  8
Poly_FTE
  0
POLYLINE
  8
Poly_FTE
 66
       1
 70
       1
 10
0.0
 20
0.0
 30
0.0
  0
VERTEX
  8
Poly_FTE
 10
56.453000
 20
36.647000
 30
0.0
  0
VERTEX
  8
Poly_FTE
 10
55.453000
 20
36.647000
 30
0.0
  0
VERTEX
  8
Poly_FTE
 10
55.453000
 20
37.947000
 30
0.0
  0
VERTEX
  8
Poly_FTE
 10
56.453000
 20
37.947000
 30
0.0
  0
SEQEND
  8
Poly_FTE
  0
POLYLINE
  8
Poly_FTE
 66
       1
 70
       1
 10
0.0
 20
0.0
 30
0.0
  0
VERTEX
  8
Poly_FTE
 10
59.453000
 20
36.647000
 30
0.0
  0
VERTEX
  8
Poly_FTE
 10
58.453000
 20
36.647000
 30
0.0
  0
VERTEX
  8
Poly_FTE
 10
58.453000
 20
37.947000
 30
0.0
  0
VERTEX
  8
Poly_FTE
 10
59.453000
 20
37.947000
 30
0.0
  0
SEQEND
  8
Poly_FTE
  0
POLYLINE
  8
Poly_FTE
 66
       1
 70
       1
 10
0.0
 20
0.0
 30
0.0
  0
VERTEX
  8
Poly_FTE
 10
62.453000
 20
36.647000
 30
0.0
  0
VERTEX
  8
Poly_FTE
 10
61.453000
 20
36.647000
 30
0.0
  0
VERTEX
  8
Poly_FTE
 10
61.453000
 20
37.947000
 30
0.0
  0
VERTEX
  8
Poly_FTE
 10
62.453000
 20
37.947000
 30
0.0
  0
SEQEND
  8
Poly_FTE
  0
POLYLINE
  8
Poly_FTE
 66
       1
 70
       1
 10
0.0
 20
0.0
 30
0.0
  0
VERTEX
  8
Poly_FTE
 10
65.453000
 20
36.647000
 30
0.0
  0
VERTEX
  8
Poly_FTE
 10
64.453000
 20
36.647000
 30
0.0
  0
VERTEX
  8
Poly_FTE
 10
64.453000
 20
37.947000
 30
0.0
  0
VERTEX
  8
Poly_FTE
 10
65.453000
 20
37.947000
 30
0.0
  0
SEQEND
  8
Poly_FTE
  0
POLYLINE
  8
Poly_FTE
 66
       1
 70
       1
 10
0.0
 20
0.0
 30
0.0
  0
VERTEX
  8
Poly_FTE
 10
41.453000
 20
36.647000
 30
0.0
  0
VERTEX
  8
Poly_FTE
 10
40.453000
 20
36.647000
 30
0.0
  0
VERTEX
  8
Poly_FTE
 10
40.453000
 20
37.947000
 30
0.0
  0
VERTEX
  8
Poly_FTE
 10
41.453000
 20
37.947000
 30
0.0
  0
SEQEND
  8
Poly_FTE
  0
POLYLINE
  8
Poly_FTE
 66
       1
 70
       1
 10
0.0
 20
0.0
 30
0.0
  0
VERTEX
  8
Poly_FTE
 10
44.453000
 20
36.647000
 30
0.0
  0
VERTEX
  8
Poly_FTE
 10
43.453000
 20
36.647000
 30
0.0
  0
VERTEX
  8
Poly_FTE
 10
43.453000
 20
37.947000
 30
0.0
  0
VERTEX
  8
Poly_FTE
 10
44.453000
 20
37.947000
 30
0.0
  0
SEQEND
  8
Poly_FTE
  0
POLYLINE
  8
Poly_FTE
 66
       1
 70
       1
 10
0.0
 20
0.0
 30
0.0
  0
VERTEX
  8
Poly_FTE
 10
47.453000
 20
36.647000
 30
0.0
  0
VERTEX
  8
Poly_FTE
 10
46.453000
 20
36.647000
 30
0.0
  0
VERTEX
  8
Poly_FTE
 10
46.453000
 20
37.947000
 30
0.0
  0
VERTEX
  8
Poly_FTE
 10
47.453000
 20
37.947000
 30
0.0
  0
SEQEND
  8
Poly_FTE
  0
POLYLINE
  8
Poly_FTE
 66
       1
 70
       1
 10
0.0
 20
0.0
 30
0.0
  0
VERTEX
  8
Poly_FTE
 10
50.453000
 20
36.647000
 30
0.0
  0
VERTEX
  8
Poly_FTE
 10
49.453000
 20
36.647000
 30
0.0
  0
VERTEX
  8
Poly_FTE
 10
49.453000
 20
37.947000
 30
0.0
  0
VERTEX
  8
Poly_FTE
 10
50.453000
 20
37.947000
 30
0.0
  0
SEQEND
  8
Poly_FTE
  0
POLYLINE
  8
Poly_PTE
 66
       1
 70
       1
 10
0.0
 20
0.0
 30
0.0
  0
VERTEX
  8
Poly_PTE
 10
65.953000
 20
36.147000
 30
0.0
  0
VERTEX
  8
Poly_PTE
 10
39.953000
 20
36.147000
 30
0.0
  0
VERTEX
  8
Poly_PTE
 10
39.953000
 20
47.147000
 30
0.0
  0
VERTEX
  8
Poly_PTE
 10
65.953000
 20
47.147000
 30
0.0
  0
SEQEND
  8
Poly_PTE
  0
POLYLINE
  8
Oxide_FTE_drawing
 66
       1
 70
       1
 10
0.0
 20
0.0
 30
0.0
  0
VERTEX
  8
Oxide_FTE_drawing
 10
64.953000
 20
42.647000
 30
0.0
  0
VERTEX
  8
Oxide_FTE_drawing
 10
40.953000
 20
42.647000
 30
0.0
  0
VERTEX
  8
Oxide_FTE_drawing
 10
40.953000
 20
46.147000
 30
0.0
  0
VERTEX
  8
Oxide_FTE_drawing
 10
64.953000
 20
46.147000
 30
0.0
  0
SEQEND
  8
Oxide_FTE_drawing
  0
CIRCLE
  8
Oxide_PTE_drawing
 10
40.953000
 20
39.397000
 40
0.300000
  0
CIRCLE
  8
Oxide_PTE_drawing
 10
43.953000
 20
39.397000
 40
0.300000
  0
CIRCLE
  8
Oxide_PTE_drawing
 10
46.953000
 20
39.397000
 40
0.300000
  0
CIRCLE
  8
Oxide_PTE_drawing
 10
49.953000
 20
39.397000
 40
0.300000
  0
CIRCLE
  8
Oxide_PTE_drawing
 10
52.953000
 20
39.397000
 40
0.300000
  0
CIRCLE
  8
Oxide_PTE_drawing
 10
55.953000
 20
39.397000
 40
0.300000
  0
CIRCLE
  8
Oxide_PTE_drawing
 10
58.953000
 20
39.397000
 40
0.300000
  0
CIRCLE
  8
Oxide_PTE_drawing
 10
61.953000
 20
39.397000
 40
0.300000
  0
CIRCLE
  8
Oxide_PTE_drawing
 10
64.953000
 20
39.397000
 40
0.300000
  0
POLYLINE
  8
Si_FTE
 66
       1
 70
       1
 10
0.0
 20
0.0
 30
0.0
  0
VERTEX
  8
Si_FTE
 10
65.953000
 20
27.647000
 30
0.0
  0
VERTEX
  8
Si_FTE
 10
39.953000
 20
27.647000
 30
0.0
  0
VERTEX
  8
Si_FTE
 10
39.953000
 20
22.147000
 30
0.0
  0
VERTEX
  8
Si_FTE
 10
45.203000
 20
22.147000
 30
0.0
  0
VERTEX
  8
Si_FTE
 10
45.203000
 20
22.647000
 30
0.0
  0
VERTEX
  8
Si_FTE
 10
40.453000
 20
22.647000
 30
0.0
  0
VERTEX
  8
Si_FTE
 10
40.453000
 20
27.147000
 30
0.0
  0
VERTEX
  8
Si_FTE
 10
65.453000
 20
27.147000
 30
0.0
  0
VERTEX
  8
Si_FTE
 10
65.453000
 20
22.647000
 30
0.0
  0
VERTEX
  8
Si_FTE
 10
60.203000
 20
22.647000
 30
0.0
  0
VERTEX
  8
Si_FTE
 10
60.203000
 20
22.147000
 30
0.0
  0
VERTEX
  8
Si_FTE
 10
65.953000
 20
22.147000
 30
0.0
  0
SEQEND
  8
Si_FTE
  0
POLYLINE
  8
Poly_FTE
 66
       1
 70
       1
 10
0.0
 20
0.0
 30
0.0
  0
VERTEX
  8
Poly_FTE
 10
48.953000
 20
31.397000
 30
0.0
  0
VERTEX
  8
Poly_FTE
 10
47.953000
 20
31.397000
 30
0.0
  0
VERTEX
  8
Poly_FTE
 10
47.953000
 20
27.147000
 30
0.0
  0
VERTEX
  8
Poly_FTE
 10
48.953000
 20
27.147000
 30
0.0
  0
SEQEND
  8
Poly_FTE
  0
POLYLINE
  8
Poly_FTE
 66
       1
 70
       1
 10
0.0
 20
0.0
 30
0.0
  0
VERTEX
  8
Poly_FTE
 10
51.953000
 20
31.397000
 30
0.0
  0
VERTEX
  8
Poly_FTE
 10
50.953000
 20
31.397000
 30
0.0
  0
VERTEX
  8
Poly_FTE
 10
50.953000
 20
27.147000
 30
0.0
  0
VERTEX
  8
Poly_FTE
 10
51.953000
 20
27.147000
 30
0.0
  0
SEQEND
  8
Poly_FTE
  0
POLYLINE
  8
Poly_FTE
 66
       1
 70
       1
 10
0.0
 20
0.0
 30
0.0
  0
VERTEX
  8
Poly_FTE
 10
60.953000
 20
31.397000
 30
0.0
  0
VERTEX
  8
Poly_FTE
 10
59.953000
 20
31.397000
 30
0.0
  0
VERTEX
  8
Poly_FTE
 10
59.953000
 20
27.147000
 30
0.0
  0
VERTEX
  8
Poly_FTE
 10
60.953000
 20
27.147000
 30
0.0
  0
SEQEND
  8
Poly_FTE
  0
POLYLINE
  8
Poly_FTE
 66
       1
 70
       1
 10
0.0
 20
0.0
 30
0.0
  0
VERTEX
  8
Poly_FTE
 10
57.953000
 20
31.397000
 30
0.0
  0
VERTEX
  8
Poly_FTE
 10
56.953000
 20
31.397000
 30
0.0
  0
VERTEX
  8
Poly_FTE
 10
56.953000
 20
27.147000
 30
0.0
  0
VERTEX
  8
Poly_FTE
 10
57.953000
 20
27.147000
 30
0.0
  0
SEQEND
  8
Poly_FTE
  0
POLYLINE
  8
Poly_FTE
 66
       1
 70
       1
 10
0.0
 20
0.0
 30
0.0
  0
VERTEX
  8
Poly_FTE
 10
54.953000
 20
31.397000
 30
0.0
  0
VERTEX
  8
Poly_FTE
 10
53.953000
 20
31.397000
 30
0.0
  0
VERTEX
  8
Poly_FTE
 10
53.953000
 20
27.147000
 30
0.0
  0
VERTEX
  8
Poly_FTE
 10
54.953000
 20
27.147000
 30
0.0
  0
SEQEND
  8
Poly_FTE
  0
POLYLINE
  8
Poly_FTE
 66
       1
 70
       1
 10
0.0
 20
0.0
 30
0.0
  0
VERTEX
  8
Poly_FTE
 10
42.953000
 20
31.397000
 30
0.0
  0
VERTEX
  8
Poly_FTE
 10
41.953000
 20
31.397000
 30
0.0
  0
VERTEX
  8
Poly_FTE
 10
41.953000
 20
27.147000
 30
0.0
  0
VERTEX
  8
Poly_FTE
 10
42.953000
 20
27.147000
 30
0.0
  0
SEQEND
  8
Poly_FTE
  0
POLYLINE
  8
Poly_FTE
 66
       1
 70
       1
 10
0.0
 20
0.0
 30
0.0
  0
VERTEX
  8
Poly_FTE
 10
45.953000
 20
31.397000
 30
0.0
  0
VERTEX
  8
Poly_FTE
 10
44.953000
 20
31.397000
 30
0.0
  0
VERTEX
  8
Poly_FTE
 10
44.953000
 20
27.147000
 30
0.0
  0
VERTEX
  8
Poly_FTE
 10
45.953000
 20
27.147000
 30
0.0
  0
SEQEND
  8
Poly_FTE
  0
POLYLINE
  8
Poly_FTE
 66
       1
 70
       1
 10
0.0
 20
0.0
 30
0.0
  0
VERTEX
  8
Poly_FTE
 10
63.953000
 20
31.397000
 30
0.0
  0
VERTEX
  8
Poly_FTE
 10
62.953000
 20
31.397000
 30
0.0
  0
VERTEX
  8
Poly_FTE
 10
62.953000
 20
27.147000
 30
0.0
  0
VERTEX
  8
Poly_FTE
 10
63.953000
 20
27.147000
 30
0.0
  0
SEQEND
  8
Poly_FTE
  0
POLYLINE
  8
Poly_FTE
 66
       1
 70
       1
 10
0.0
 20
0.0
 30
0.0
  0
VERTEX
  8
Poly_FTE
 10
65.453000
 20
32.647000
 30
0.0
  0
VERTEX
  8
Poly_FTE
 10
40.453000
 20
32.647000
 30
0.0
  0
VERTEX
  8
Poly_FTE
 10
40.453000
 20
31.897000
 30
0.0
  0
VERTEX
  8
Poly_FTE
 10
65.453000
 20
31.897000
 30
0.0
  0
SEQEND
  8
Poly_FTE
  0
POLYLINE
  8
Poly_FTE
 66
       1
 70
       1
 10
0.0
 20
0.0
 30
0.0
  0
VERTEX
  8
Poly_FTE
 10
65.453000
 20
31.897000
 30
0.0
  0
VERTEX
  8
Poly_FTE
 10
64.453000
 20
31.897000
 30
0.0
  0
VERTEX
  8
Poly_FTE
 10
64.453000
 20
27.897000
 30
0.0
  0
VERTEX
  8
Poly_FTE
 10
65.453000
 20
27.897000
 30
0.0
  0
SEQEND
  8
Poly_FTE
  0
POLYLINE
  8
Poly_FTE
 66
       1
 70
       1
 10
0.0
 20
0.0
 30
0.0
  0
VERTEX
  8
Poly_FTE
 10
62.453000
 20
31.897000
 30
0.0
  0
VERTEX
  8
Poly_FTE
 10
61.453000
 20
31.897000
 30
0.0
  0
VERTEX
  8
Poly_FTE
 10
61.453000
 20
27.897000
 30
0.0
  0
VERTEX
  8
Poly_FTE
 10
62.453000
 20
27.897000
 30
0.0
  0
SEQEND
  8
Poly_FTE
  0
POLYLINE
  8
Poly_FTE
 66
       1
 70
       1
 10
0.0
 20
0.0
 30
0.0
  0
VERTEX
  8
Poly_FTE
 10
59.453000
 20
31.897000
 30
0.0
  0
VERTEX
  8
Poly_FTE
 10
58.453000
 20
31.897000
 30
0.0
  0
VERTEX
  8
Poly_FTE
 10
58.453000
 20
27.897000
 30
0.0
  0
VERTEX
  8
Poly_FTE
 10
59.453000
 20
27.897000
 30
0.0
  0
SEQEND
  8
Poly_FTE
  0
POLYLINE
  8
Poly_FTE
 66
       1
 70
       1
 10
0.0
 20
0.0
 30
0.0
  0
VERTEX
  8
Poly_FTE
 10
56.453000
 20
31.897000
 30
0.0
  0
VERTEX
  8
Poly_FTE
 10
55.453000
 20
31.897000
 30
0.0
  0
VERTEX
  8
Poly_FTE
 10
55.453000
 20
27.897000
 30
0.0
  0
VERTEX
  8
Poly_FTE
 10
56.453000
 20
27.897000
 30
0.0
  0
SEQEND
  8
Poly_FTE
  0
POLYLINE
  8
Poly_FTE
 66
       1
 70
       1
 10
0.0
 20
0.0
 30
0.0
  0
VERTEX
  8
Poly_FTE
 10
53.453000
 20
31.897000
 30
0.0
  0
VERTEX
  8
Poly_FTE
 10
52.453000
 20
31.897000
 30
0.0
  0
VERTEX
  8
Poly_FTE
 10
52.453000
 20
27.897000
 30
0.0
  0
VERTEX
  8
Poly_FTE
 10
53.453000
 20
27.897000
 30
0.0
  0
SEQEND
  8
Poly_FTE
  0
POLYLINE
  8
Poly_FTE
 66
       1
 70
       1
 10
0.0
 20
0.0
 30
0.0
  0
VERTEX
  8
Poly_FTE
 10
50.453000
 20
31.897000
 30
0.0
  0
VERTEX
  8
Poly_FTE
 10
49.453000
 20
31.897000
 30
0.0
  0
VERTEX
  8
Poly_FTE
 10
49.453000
 20
27.897000
 30
0.0
  0
VERTEX
  8
Poly_FTE
 10
50.453000
 20
27.897000
 30
0.0
  0
SEQEND
  8
Poly_FTE
  0
POLYLINE
  8
Poly_FTE
 66
       1
 70
       1
 10
0.0
 20
0.0
 30
0.0
  0
VERTEX
  8
Poly_FTE
 10
47.453000
 20
31.897000
 30
0.0
  0
VERTEX
  8
Poly_FTE
 10
46.453000
 20
31.897000
 30
0.0
  0
VERTEX
  8
Poly_FTE
 10
46.453000
 20
27.897000
 30
0.0
  0
VERTEX
  8
Poly_FTE
 10
47.453000
 20
27.897000
 30
0.0
  0
SEQEND
  8
Poly_FTE
  0
POLYLINE
  8
Poly_FTE
 66
       1
 70
       1
 10
0.0
 20
0.0
 30
0.0
  0
VERTEX
  8
Poly_FTE
 10
44.453000
 20
31.897000
 30
0.0
  0
VERTEX
  8
Poly_FTE
 10
43.453000
 20
31.897000
 30
0.0
  0
VERTEX
  8
Poly_FTE
 10
43.453000
 20
27.897000
 30
0.0
  0
VERTEX
  8
Poly_FTE
 10
44.453000
 20
27.897000
 30
0.0
  0
SEQEND
  8
Poly_FTE
  0
POLYLINE
  8
Poly_FTE
 66
       1
 70
       1
 10
0.0
 20
0.0
 30
0.0
  0
VERTEX
  8
Poly_FTE
 10
41.453000
 20
31.897000
 30
0.0
  0
VERTEX
  8
Poly_FTE
 10
40.453000
 20
31.897000
 30
0.0
  0
VERTEX
  8
Poly_FTE
 10
40.453000
 20
27.897000
 30
0.0
  0
VERTEX
  8
Poly_FTE
 10
41.453000
 20
27.897000
 30
0.0
  0
SEQEND
  8
Poly_FTE
  0
POLYLINE
  8
Poly_FTE
 66
       1
 70
       1
 10
0.0
 20
0.0
 30
0.0
  0
VERTEX
  8
Poly_FTE
 10
65.453000
 20
27.147000
 30
0.0
  0
VERTEX
  8
Poly_FTE
 10
40.453000
 20
27.147000
 30
0.0
  0
VERTEX
  8
Poly_FTE
 10
40.453000
 20
22.647000
 30
0.0
  0
VERTEX
  8
Poly_FTE
 10
65.453000
 20
22.647000
 30
0.0
  0
SEQEND
  8
Poly_FTE
  0
POLYLINE
  8
Poly_FTE
 66
       1
 70
       1
 10
0.0
 20
0.0
 30
0.0
  0
VERTEX
  8
Poly_FTE
 10
53.453000
 20
32.647000
 30
0.0
  0
VERTEX
  8
Poly_FTE
 10
52.453000
 20
32.647000
 30
0.0
  0
VERTEX
  8
Poly_FTE
 10
52.453000
 20
31.347000
 30
0.0
  0
VERTEX
  8
Poly_FTE
 10
53.453000
 20
31.347000
 30
0.0
  0
SEQEND
  8
Poly_FTE
  0
POLYLINE
  8
Poly_FTE
 66
       1
 70
       1
 10
0.0
 20
0.0
 30
0.0
  0
VERTEX
  8
Poly_FTE
 10
56.453000
 20
32.647000
 30
0.0
  0
VERTEX
  8
Poly_FTE
 10
55.453000
 20
32.647000
 30
0.0
  0
VERTEX
  8
Poly_FTE
 10
55.453000
 20
31.347000
 30
0.0
  0
VERTEX
  8
Poly_FTE
 10
56.453000
 20
31.347000
 30
0.0
  0
SEQEND
  8
Poly_FTE
  0
POLYLINE
  8
Poly_FTE
 66
       1
 70
       1
 10
0.0
 20
0.0
 30
0.0
  0
VERTEX
  8
Poly_FTE
 10
59.453000
 20
32.647000
 30
0.0
  0
VERTEX
  8
Poly_FTE
 10
58.453000
 20
32.647000
 30
0.0
  0
VERTEX
  8
Poly_FTE
 10
58.453000
 20
31.347000
 30
0.0
  0
VERTEX
  8
Poly_FTE
 10
59.453000
 20
31.347000
 30
0.0
  0
SEQEND
  8
Poly_FTE
  0
POLYLINE
  8
Poly_FTE
 66
       1
 70
       1
 10
0.0
 20
0.0
 30
0.0
  0
VERTEX
  8
Poly_FTE
 10
62.453000
 20
32.647000
 30
0.0
  0
VERTEX
  8
Poly_FTE
 10
61.453000
 20
32.647000
 30
0.0
  0
VERTEX
  8
Poly_FTE
 10
61.453000
 20
31.347000
 30
0.0
  0
VERTEX
  8
Poly_FTE
 10
62.453000
 20
31.347000
 30
0.0
  0
SEQEND
  8
Poly_FTE
  0
POLYLINE
  8
Poly_FTE
 66
       1
 70
       1
 10
0.0
 20
0.0
 30
0.0
  0
VERTEX
  8
Poly_FTE
 10
65.453000
 20
32.647000
 30
0.0
  0
VERTEX
  8
Poly_FTE
 10
64.453000
 20
32.647000
 30
0.0
  0
VERTEX
  8
Poly_FTE
 10
64.453000
 20
31.347000
 30
0.0
  0
VERTEX
  8
Poly_FTE
 10
65.453000
 20
31.347000
 30
0.0
  0
SEQEND
  8
Poly_FTE
  0
POLYLINE
  8
Poly_FTE
 66
       1
 70
       1
 10
0.0
 20
0.0
 30
0.0
  0
VERTEX
  8
Poly_FTE
 10
41.453000
 20
32.647000
 30
0.0
  0
VERTEX
  8
Poly_FTE
 10
40.453000
 20
32.647000
 30
0.0
  0
VERTEX
  8
Poly_FTE
 10
40.453000
 20
31.347000
 30
0.0
  0
VERTEX
  8
Poly_FTE
 10
41.453000
 20
31.347000
 30
0.0
  0
SEQEND
  8
Poly_FTE
  0
POLYLINE
  8
Poly_FTE
 66
       1
 70
       1
 10
0.0
 20
0.0
 30
0.0
  0
VERTEX
  8
Poly_FTE
 10
44.453000
 20
32.647000
 30
0.0
  0
VERTEX
  8
Poly_FTE
 10
43.453000
 20
32.647000
 30
0.0
  0
VERTEX
  8
Poly_FTE
 10
43.453000
 20
31.347000
 30
0.0
  0
VERTEX
  8
Poly_FTE
 10
44.453000
 20
31.347000
 30
0.0
  0
SEQEND
  8
Poly_FTE
  0
POLYLINE
  8
Poly_FTE
 66
       1
 70
       1
 10
0.0
 20
0.0
 30
0.0
  0
VERTEX
  8
Poly_FTE
 10
47.453000
 20
32.647000
 30
0.0
  0
VERTEX
  8
Poly_FTE
 10
46.453000
 20
32.647000
 30
0.0
  0
VERTEX
  8
Poly_FTE
 10
46.453000
 20
31.347000
 30
0.0
  0
VERTEX
  8
Poly_FTE
 10
47.453000
 20
31.347000
 30
0.0
  0
SEQEND
  8
Poly_FTE
  0
POLYLINE
  8
Poly_FTE
 66
       1
 70
       1
 10
0.0
 20
0.0
 30
0.0
  0
VERTEX
  8
Poly_FTE
 10
50.453000
 20
32.647000
 30
0.0
  0
VERTEX
  8
Poly_FTE
 10
49.453000
 20
32.647000
 30
0.0
  0
VERTEX
  8
Poly_FTE
 10
49.453000
 20
31.347000
 30
0.0
  0
VERTEX
  8
Poly_FTE
 10
50.453000
 20
31.347000
 30
0.0
  0
SEQEND
  8
Poly_FTE
  0
POLYLINE
  8
Poly_PTE
 66
       1
 70
       1
 10
0.0
 20
0.0
 30
0.0
  0
VERTEX
  8
Poly_PTE
 10
65.953000
 20
33.147000
 30
0.0
  0
VERTEX
  8
Poly_PTE
 10
39.953000
 20
33.147000
 30
0.0
  0
VERTEX
  8
Poly_PTE
 10
39.953000
 20
22.147000
 30
0.0
  0
VERTEX
  8
Poly_PTE
 10
65.953000
 20
22.147000
 30
0.0
  0
SEQEND
  8
Poly_PTE
  0
POLYLINE
  8
Oxide_FTE_drawing
 66
       1
 70
       1
 10
0.0
 20
0.0
 30
0.0
  0
VERTEX
  8
Oxide_FTE_drawing
 10
64.953000
 20
26.647000
 30
0.0
  0
VERTEX
  8
Oxide_FTE_drawing
 10
40.953000
 20
26.647000
 30
0.0
  0
VERTEX
  8
Oxide_FTE_drawing
 10
40.953000
 20
23.147000
 30
0.0
  0
VERTEX
  8
Oxide_FTE_drawing
 10
64.953000
 20
23.147000
 30
0.0
  0
SEQEND
  8
Oxide_FTE_drawing
  0
CIRCLE
  8
Oxide_PTE_drawing
 10
40.953000
 20
29.897000
 40
0.300000
  0
CIRCLE
  8
Oxide_PTE_drawing
 10
43.953000
 20
29.897000
 40
0.300000
  0
CIRCLE
  8
Oxide_PTE_drawing
 10
46.953000
 20
29.897000
 40
0.300000
  0
CIRCLE
  8
Oxide_PTE_drawing
 10
49.953000
 20
29.897000
 40
0.300000
  0
CIRCLE
  8
Oxide_PTE_drawing
 10
52.953000
 20
29.897000
 40
0.300000
  0
CIRCLE
  8
Oxide_PTE_drawing
 10
55.953000
 20
29.897000
 40
0.300000
  0
CIRCLE
  8
Oxide_PTE_drawing
 10
58.953000
 20
29.897000
 40
0.300000
  0
CIRCLE
  8
Oxide_PTE_drawing
 10
61.953000
 20
29.897000
 40
0.300000
  0
CIRCLE
  8
Oxide_PTE_drawing
 10
64.953000
 20
29.897000
 40
0.300000
  0
POLYLINE
  8
Si_FTE
 66
       1
 70
       1
 10
0.0
 20
0.0
 30
0.0
  0
VERTEX
  8
Si_FTE
 10
-5.891000
 20
49.647000
 30
0.0
  0
VERTEX
  8
Si_FTE
 10
-10.391000
 20
49.647000
 30
0.0
  0
VERTEX
  8
Si_FTE
 10
-10.391000
 20
54.147000
 30
0.0
  0
VERTEX
  8
Si_FTE
 10
-10.891000
 20
54.147000
 30
0.0
  0
VERTEX
  8
Si_FTE
 10
-10.891000
 20
49.147000
 30
0.0
  0
VERTEX
  8
Si_FTE
 10
-5.891000
 20
49.147000
 30
0.0
  0
SEQEND
  8
Si_FTE
  0
POLYLINE
  8
Si_FTE
 66
       1
 70
       1
 10
0.0
 20
0.0
 30
0.0
  0
VERTEX
  8
Si_FTE
 10
-10.891000
 20
15.147000
 30
0.0
  0
VERTEX
  8
Si_FTE
 10
-10.391000
 20
15.647000
 30
0.0
  0
VERTEX
  8
Si_FTE
 10
-10.391000
 20
19.647000
 30
0.0
  0
VERTEX
  8
Si_FTE
 10
-6.391000
 20
19.647000
 30
0.0
  0
VERTEX
  8
Si_FTE
 10
-5.891000
 20
20.147000
 30
0.0
  0
VERTEX
  8
Si_FTE
 10
-10.891000
 20
20.147000
 30
0.0
  0
SEQEND
  8
Si_FTE
  0
POLYLINE
  8
Poly_FTE
 66
       1
 70
       1
 10
0.0
 20
0.0
 30
0.0
  0
VERTEX
  8
Poly_FTE
 10
-10.391000
 20
49.647000
 30
0.0
  0
VERTEX
  8
Poly_FTE
 10
-6.391000
 20
49.647000
 30
0.0
  0
VERTEX
  8
Poly_FTE
 10
-6.391000
 20
53.647000
 30
0.0
  0
VERTEX
  8
Poly_FTE
 10
-10.391000
 20
53.647000
 30
0.0
  0
SEQEND
  8
Poly_FTE
  0
POLYLINE
  8
Poly_FTE
 66
       1
 70
       1
 10
0.0
 20
0.0
 30
0.0
  0
VERTEX
  8
Poly_FTE
 10
-10.391000
 20
15.647000
 30
0.0
  0
VERTEX
  8
Poly_FTE
 10
-6.391000
 20
15.647000
 30
0.0
  0
VERTEX
  8
Poly_FTE
 10
-6.391000
 20
19.647000
 30
0.0
  0
VERTEX
  8
Poly_FTE
 10
-10.391000
 20
19.647000
 30
0.0
  0
SEQEND
  8
Poly_FTE
  0
POLYLINE
  8
Poly_FTE
 66
       1
 70
       1
 10
0.0
 20
0.0
 30
0.0
  0
VERTEX
  8
Poly_FTE
 10
-8.891000
 20
19.647000
 30
0.0
  0
VERTEX
  8
Poly_FTE
 10
-7.891000
 20
19.647000
 30
0.0
  0
VERTEX
  8
Poly_FTE
 10
-7.891000
 20
32.647000
 30
0.0
  0
VERTEX
  8
Poly_FTE
 10
-8.891000
 20
32.647000
 30
0.0
  0
SEQEND
  8
Poly_FTE
  0
POLYLINE
  8
Poly_FTE
 66
       1
 70
       1
 10
0.0
 20
0.0
 30
0.0
  0
VERTEX
  8
Poly_FTE
 10
-8.891000
 20
36.647000
 30
0.0
  0
VERTEX
  8
Poly_FTE
 10
-7.891000
 20
36.647000
 30
0.0
  0
VERTEX
  8
Poly_FTE
 10
-7.891000
 20
49.647000
 30
0.0
  0
VERTEX
  8
Poly_FTE
 10
-8.891000
 20
49.647000
 30
0.0
  0
SEQEND
  8
Poly_FTE
  0
POLYLINE
  8
Oxide_FTE_drawing
 66
       1
 70
       1
 10
0.0
 20
0.0
 30
0.0
  0
VERTEX
  8
Oxide_FTE_drawing
 10
-9.891000
 20
16.147000
 30
0.0
  0
VERTEX
  8
Oxide_FTE_drawing
 10
-6.891000
 20
16.147000
 30
0.0
  0
VERTEX
  8
Oxide_FTE_drawing
 10
-6.891000
 20
19.147000
 30
0.0
  0
VERTEX
  8
Oxide_FTE_drawing
 10
-9.891000
 20
19.147000
 30
0.0
  0
SEQEND
  8
Oxide_FTE_drawing
  0
POLYLINE
  8
Oxide_FTE_drawing
 66
       1
 70
       1
 10
0.0
 20
0.0
 30
0.0
  0
VERTEX
  8
Oxide_FTE_drawing
 10
-9.891000
 20
50.147000
 30
0.0
  0
VERTEX
  8
Oxide_FTE_drawing
 10
-6.891000
 20
50.147000
 30
0.0
  0
VERTEX
  8
Oxide_FTE_drawing
 10
-6.891000
 20
53.147000
 30
0.0
  0
VERTEX
  8
Oxide_FTE_drawing
 10
-9.891000
 20
53.147000
 30
0.0
  0
SEQEND
  8
Oxide_FTE_drawing
  0
POLYLINE
  8
Poly_FTE
 66
       1
 70
       1
 10
0.0
 20
0.0
 30
0.0
  0
VERTEX
  8
Poly_FTE
 10
-37.891000
 20
32.647000
 30
0.0
  0
VERTEX
  8
Poly_FTE
 10
-7.891000
 20
32.647000
 30
0.0
  0
VERTEX
  8
Poly_FTE
 10
-7.891000
 20
36.647000
 30
0.0
  0
VERTEX
  8
Poly_FTE
 10
-37.891000
 20
36.647000
 30
0.0
  0
SEQEND
  8
Poly_FTE
  0
POLYLINE
  8
Poly_PTE
 66
       1
 70
       1
 10
0.0
 20
0.0
 30
0.0
  0
VERTEX
  8
Poly_PTE
 10
-37.891000
 20
34.722000
 30
0.0
  0
VERTEX
  8
Poly_PTE
 10
-7.891000
 20
35.147000
 30
0.0
  0
VERTEX
  8
Poly_PTE
 10
-7.891000
 20
34.147000
 30
0.0
  0
VERTEX
  8
Poly_PTE
 10
-37.891000
 20
34.572000
 30
0.0
  0
SEQEND
  8
Poly_PTE
  0
POLYLINE
  8
Si_FTE
 66
       1
 70
       1
 10
0.0
 20
0.0
 30
0.0
  0
VERTEX
  8
Si_FTE
 10
-34.891000
 20
54.147000
 30
0.0
  0
VERTEX
  8
Si_FTE
 10
-35.391000
 20
54.147000
 30
0.0
  0
VERTEX
  8
Si_FTE
 10
-35.391000
 20
49.647000
 30
0.0
  0
VERTEX
  8
Si_FTE
 10
-39.391000
 20
49.647000
 30
0.0
  0
VERTEX
  8
Si_FTE
 10
-39.391000
 20
53.647000
 30
0.0
  0
VERTEX
  8
Si_FTE
 10
-35.391000
 20
53.647000
 30
0.0
  0
VERTEX
  8
Si_FTE
 10
-35.391000
 20
54.147000
 30
0.0
  0
VERTEX
  8
Si_FTE
 10
-39.891000
 20
54.147000
 30
0.0
  0
VERTEX
  8
Si_FTE
 10
-39.891000
 20
49.147000
 30
0.0
  0
VERTEX
  8
Si_FTE
 10
-34.891000
 20
49.147000
 30
0.0
  0
SEQEND
  8
Si_FTE
  0
POLYLINE
  8
Poly_FTE
 66
       1
 70
       1
 10
0.0
 20
0.0
 30
0.0
  0
VERTEX
  8
Poly_FTE
 10
-35.391000
 20
53.647000
 30
0.0
  0
VERTEX
  8
Poly_FTE
 10
-39.391000
 20
53.647000
 30
0.0
  0
VERTEX
  8
Poly_FTE
 10
-39.391000
 20
49.647000
 30
0.0
  0
VERTEX
  8
Poly_FTE
 10
-35.391000
 20
49.647000
 30
0.0
  0
SEQEND
  8
Poly_FTE
  0
POLYLINE
  8
Poly_FTE
 66
       1
 70
       1
 10
0.0
 20
0.0
 30
0.0
  0
VERTEX
  8
Poly_FTE
 10
-36.891000
 20
49.647000
 30
0.0
  0
VERTEX
  8
Poly_FTE
 10
-37.891000
 20
49.647000
 30
0.0
  0
VERTEX
  8
Poly_FTE
 10
-37.891000
 20
36.647000
 30
0.0
  0
VERTEX
  8
Poly_FTE
 10
-36.891000
 20
36.647000
 30
0.0
  0
SEQEND
  8
Poly_FTE
  0
POLYLINE
  8
Oxide_FTE_drawing
 66
       1
 70
       1
 10
0.0
 20
0.0
 30
0.0
  0
VERTEX
  8
Oxide_FTE_drawing
 10
-35.891000
 20
53.147000
 30
0.0
  0
VERTEX
  8
Oxide_FTE_drawing
 10
-38.891000
 20
53.147000
 30
0.0
  0
VERTEX
  8
Oxide_FTE_drawing
 10
-38.891000
 20
50.147000
 30
0.0
  0
VERTEX
  8
Oxide_FTE_drawing
 10
-35.891000
 20
50.147000
 30
0.0
  0
SEQEND
  8
Oxide_FTE_drawing
  0
POLYLINE
  8
Si_FTE
 66
       1
 70
       1
 10
0.0
 20
0.0
 30
0.0
  0
VERTEX
  8
Si_FTE
 10
-39.891000
 20
15.147000
 30
0.0
  0
VERTEX
  8
Si_FTE
 10
-39.391000
 20
15.147000
 30
0.0
  0
VERTEX
  8
Si_FTE
 10
-39.391000
 20
19.647000
 30
0.0
  0
VERTEX
  8
Si_FTE
 10
-35.391000
 20
19.647000
 30
0.0
  0
VERTEX
  8
Si_FTE
 10
-35.391000
 20
15.647000
 30
0.0
  0
VERTEX
  8
Si_FTE
 10
-39.391000
 20
15.647000
 30
0.0
  0
VERTEX
  8
Si_FTE
 10
-39.391000
 20
15.147000
 30
0.0
  0
VERTEX
  8
Si_FTE
 10
-34.891000
 20
15.147000
 30
0.0
  0
VERTEX
  8
Si_FTE
 10
-34.891000
 20
20.147000
 30
0.0
  0
VERTEX
  8
Si_FTE
 10
-39.891000
 20
20.147000
 30
0.0
  0
SEQEND
  8
Si_FTE
  0
POLYLINE
  8
Poly_FTE
 66
       1
 70
       1
 10
0.0
 20
0.0
 30
0.0
  0
VERTEX
  8
Poly_FTE
 10
-39.391000
 20
15.647000
 30
0.0
  0
VERTEX
  8
Poly_FTE
 10
-35.391000
 20
15.647000
 30
0.0
  0
VERTEX
  8
Poly_FTE
 10
-35.391000
 20
19.647000
 30
0.0
  0
VERTEX
  8
Poly_FTE
 10
-39.391000
 20
19.647000
 30
0.0
  0
SEQEND
  8
Poly_FTE
  0
POLYLINE
  8
Poly_FTE
 66
       1
 70
       1
 10
0.0
 20
0.0
 30
0.0
  0
VERTEX
  8
Poly_FTE
 10
-37.891000
 20
19.647000
 30
0.0
  0
VERTEX
  8
Poly_FTE
 10
-36.891000
 20
19.647000
 30
0.0
  0
VERTEX
  8
Poly_FTE
 10
-36.891000
 20
32.647000
 30
0.0
  0
VERTEX
  8
Poly_FTE
 10
-37.891000
 20
32.647000
 30
0.0
  0
SEQEND
  8
Poly_FTE
  0
POLYLINE
  8
Oxide_FTE_drawing
 66
       1
 70
       1
 10
0.0
 20
0.0
 30
0.0
  0
VERTEX
  8
Oxide_FTE_drawing
 10
-38.891000
 20
16.147000
 30
0.0
  0
VERTEX
  8
Oxide_FTE_drawing
 10
-35.891000
 20
16.147000
 30
0.0
  0
VERTEX
  8
Oxide_FTE_drawing
 10
-35.891000
 20
19.147000
 30
0.0
  0
VERTEX
  8
Oxide_FTE_drawing
 10
-38.891000
 20
19.147000
 30
0.0
  0
SEQEND
  8
Oxide_FTE_drawing
  0
POLYLINE
  8
Si_FTE
 66
       1
 70
       1
 10
0.0
 20
0.0
 30
0.0
  0
VERTEX
  8
Si_FTE
 10
-45.891000
 20
41.867000
 30
0.0
  0
VERTEX
  8
Si_FTE
 10
-45.391000
 20
41.867000
 30
0.0
  0
VERTEX
  8
Si_FTE
 10
-45.391000
 20
41.938000
 30
0.0
  0
VERTEX
  8
Si_FTE
 10
-45.891000
 20
41.938000
 30
0.0
  0
SEQEND
  8
Si_FTE
  0
POLYLINE
  8
Si_FTE
 66
       1
 70
       1
 10
0.0
 20
0.0
 30
0.0
  0
VERTEX
  8
Si_FTE
 10
-45.891000
 20
55.147000
 30
0.0
  0
VERTEX
  8
Si_FTE
 10
-45.391000
 20
55.147000
 30
0.0
  0
VERTEX
  8
Si_FTE
 10
-45.391000
 20
59.647000
 30
0.0
  0
VERTEX
  8
Si_FTE
 10
-30.641000
 20
59.647000
 30
0.0
  0
VERTEX
  8
Si_FTE
 10
-30.641000
 20
60.147000
 30
0.0
  0
VERTEX
  8
Si_FTE
 10
-45.891000
 20
60.147000
 30
0.0
  0
SEQEND
  8
Si_FTE
  0
POLYLINE
  8
Si_FTE
 66
       1
 70
       1
 10
0.0
 20
0.0
 30
0.0
  0
VERTEX
  8
Si_FTE
 10
-41.391000
 20
41.897000
 30
0.0
  0
VERTEX
  8
Si_FTE
 10
-40.891000
 20
41.897000
 30
0.0
  0
VERTEX
  8
Si_FTE
 10
-40.891000
 20
55.147000
 30
0.0
  0
VERTEX
  8
Si_FTE
 10
-41.391000
 20
55.147000
 30
0.0
  0
SEQEND
  8
Si_FTE
  0
POLYLINE
  8
Si_FTE
 66
       1
 70
       1
 10
0.0
 20
0.0
 30
0.0
  0
VERTEX
  8
Si_FTE
 10
-20.641000
 20
59.647000
 30
0.0
  0
VERTEX
  8
Si_FTE
 10
-15.141000
 20
59.647000
 30
0.0
  0
VERTEX
  8
Si_FTE
 10
-15.141000
 20
46.647000
 30
0.0
  0
VERTEX
  8
Si_FTE
 10
-14.641000
 20
46.647000
 30
0.0
  0
VERTEX
  8
Si_FTE
 10
-14.641000
 20
60.147000
 30
0.0
  0
VERTEX
  8
Si_FTE
 10
-20.641000
 20
60.147000
 30
0.0
  0
SEQEND
  8
Si_FTE
  0
POLYLINE
  8
Si_FTE
 66
       1
 70
       1
 10
0.0
 20
0.0
 30
0.0
  0
VERTEX
  8
Si_FTE
 10
-41.391000
 20
55.147000
 30
0.0
  0
VERTEX
  8
Si_FTE
 10
-30.641000
 20
55.147000
 30
0.0
  0
VERTEX
  8
Si_FTE
 10
-30.641000
 20
55.647000
 30
0.0
  0
VERTEX
  8
Si_FTE
 10
-41.391000
 20
55.647000
 30
0.0
  0
SEQEND
  8
Si_FTE
  0
POLYLINE
  8
Si_FTE
 66
       1
 70
       1
 10
0.0
 20
0.0
 30
0.0
  0
VERTEX
  8
Si_FTE
 10
-45.891000
 20
41.897000
 30
0.0
  0
VERTEX
  8
Si_FTE
 10
-45.391000
 20
41.897000
 30
0.0
  0
VERTEX
  8
Si_FTE
 10
-45.391000
 20
55.147000
 30
0.0
  0
VERTEX
  8
Si_FTE
 10
-45.891000
 20
55.147000
 30
0.0
  0
SEQEND
  8
Si_FTE
  0
POLYLINE
  8
Si_FTE
 66
       1
 70
       1
 10
0.0
 20
0.0
 30
0.0
  0
VERTEX
  8
Si_FTE
 10
-30.641000
 20
59.647000
 30
0.0
  0
VERTEX
  8
Si_FTE
 10
-24.641000
 20
59.647000
 30
0.0
  0
VERTEX
  8
Si_FTE
 10
-24.641000
 20
60.147000
 30
0.0
  0
VERTEX
  8
Si_FTE
 10
-30.641000
 20
60.147000
 30
0.0
  0
SEQEND
  8
Si_FTE
  0
POLYLINE
  8
Si_FTE
 66
       1
 70
       1
 10
0.0
 20
0.0
 30
0.0
  0
VERTEX
  8
Si_FTE
 10
-30.641000
 20
46.647000
 30
0.0
  0
VERTEX
  8
Si_FTE
 10
-30.141000
 20
46.647000
 30
0.0
  0
VERTEX
  8
Si_FTE
 10
-30.141000
 20
55.647000
 30
0.0
  0
VERTEX
  8
Si_FTE
 10
-30.641000
 20
55.647000
 30
0.0
  0
SEQEND
  8
Si_FTE
  0
POLYLINE
  8
Poly_FTE
 66
       1
 70
       1
 10
0.0
 20
0.0
 30
0.0
  0
VERTEX
  8
Poly_FTE
 10
-45.391000
 20
42.397000
 30
0.0
  0
VERTEX
  8
Poly_FTE
 10
-41.391000
 20
42.397000
 30
0.0
  0
VERTEX
  8
Poly_FTE
 10
-41.391000
 20
55.647000
 30
0.0
  0
VERTEX
  8
Poly_FTE
 10
-45.391000
 20
55.647000
 30
0.0
  0
SEQEND
  8
Poly_FTE
  0
POLYLINE
  8
Poly_FTE
 66
       1
 70
       1
 10
0.0
 20
0.0
 30
0.0
  0
VERTEX
  8
Poly_FTE
 10
-45.391000
 20
55.647000
 30
0.0
  0
VERTEX
  8
Poly_FTE
 10
-30.141000
 20
55.647000
 30
0.0
  0
VERTEX
  8
Poly_FTE
 10
-30.141000
 20
59.647000
 30
0.0
  0
VERTEX
  8
Poly_FTE
 10
-45.391000
 20
59.647000
 30
0.0
  0
SEQEND
  8
Poly_FTE
  0
POLYLINE
  8
Poly_FTE
 66
       1
 70
       1
 10
0.0
 20
0.0
 30
0.0
  0
VERTEX
  8
Poly_FTE
 10
-30.141000
 20
46.647000
 30
0.0
  0
VERTEX
  8
Poly_FTE
 10
-15.141000
 20
46.647000
 30
0.0
  0
VERTEX
  8
Poly_FTE
 10
-15.141000
 20
59.647000
 30
0.0
  0
VERTEX
  8
Poly_FTE
 10
-30.141000
 20
59.647000
 30
0.0
  0
SEQEND
  8
Poly_FTE
  0
POLYLINE
  8
Poly_PTE
 66
       1
 70
       1
 10
0.0
 20
0.0
 30
0.0
  0
VERTEX
  8
Poly_PTE
 10
-45.891000
 20
41.897000
 30
0.0
  0
VERTEX
  8
Poly_PTE
 10
-40.891000
 20
41.897000
 30
0.0
  0
VERTEX
  8
Poly_PTE
 10
-40.891000
 20
55.147000
 30
0.0
  0
VERTEX
  8
Poly_PTE
 10
-45.891000
 20
55.147000
 30
0.0
  0
SEQEND
  8
Poly_PTE
  0
POLYLINE
  8
Poly_PTE
 66
       1
 70
       1
 10
0.0
 20
0.0
 30
0.0
  0
VERTEX
  8
Poly_PTE
 10
-45.891000
 20
55.147000
 30
0.0
  0
VERTEX
  8
Poly_PTE
 10
-30.641000
 20
55.147000
 30
0.0
  0
VERTEX
  8
Poly_PTE
 10
-30.641000
 20
60.147000
 30
0.0
  0
VERTEX
  8
Poly_PTE
 10
-45.891000
 20
60.147000
 30
0.0
  0
SEQEND
  8
Poly_PTE
  0
POLYLINE
  8
Poly_PTE
 66
       1
 70
       1
 10
0.0
 20
0.0
 30
0.0
  0
VERTEX
  8
Poly_PTE
 10
-30.641000
 20
46.147000
 30
0.0
  0
VERTEX
  8
Poly_PTE
 10
-14.641000
 20
46.147000
 30
0.0
  0
VERTEX
  8
Poly_PTE
 10
-14.641000
 20
60.147000
 30
0.0
  0
VERTEX
  8
Poly_PTE
 10
-30.641000
 20
60.147000
 30
0.0
  0
SEQEND
  8
Poly_PTE
  0
POLYLINE
  8
Oxide_FTE_drawing
 66
       1
 70
       1
 10
0.0
 20
0.0
 30
0.0
  0
VERTEX
  8
Oxide_FTE_drawing
 10
-44.891000
 20
42.897000
 30
0.0
  0
VERTEX
  8
Oxide_FTE_drawing
 10
-41.891000
 20
42.897000
 30
0.0
  0
VERTEX
  8
Oxide_FTE_drawing
 10
-41.891000
 20
56.147000
 30
0.0
  0
VERTEX
  8
Oxide_FTE_drawing
 10
-44.891000
 20
56.147000
 30
0.0
  0
SEQEND
  8
Oxide_FTE_drawing
  0
POLYLINE
  8
Oxide_FTE_drawing
 66
       1
 70
       1
 10
0.0
 20
0.0
 30
0.0
  0
VERTEX
  8
Oxide_FTE_drawing
 10
-44.891000
 20
56.147000
 30
0.0
  0
VERTEX
  8
Oxide_FTE_drawing
 10
-29.641000
 20
56.147000
 30
0.0
  0
VERTEX
  8
Oxide_FTE_drawing
 10
-29.641000
 20
59.147000
 30
0.0
  0
VERTEX
  8
Oxide_FTE_drawing
 10
-44.891000
 20
59.147000
 30
0.0
  0
SEQEND
  8
Oxide_FTE_drawing
  0
POLYLINE
  8
Oxide_FTE_drawing
 66
       1
 70
       1
 10
0.0
 20
0.0
 30
0.0
  0
VERTEX
  8
Oxide_FTE_drawing
 10
-29.641000
 20
46.147000
 30
0.0
  0
VERTEX
  8
Oxide_FTE_drawing
 10
-15.641000
 20
46.147000
 30
0.0
  0
VERTEX
  8
Oxide_FTE_drawing
 10
-15.641000
 20
59.147000
 30
0.0
  0
VERTEX
  8
Oxide_FTE_drawing
 10
-29.641000
 20
59.147000
 30
0.0
  0
SEQEND
  8
Oxide_FTE_drawing
  0
POLYLINE
  8
Si_FTE
 66
       1
 70
       1
 10
0.0
 20
0.0
 30
0.0
  0
VERTEX
  8
Si_FTE
 10
-45.891000
 20
14.147000
 30
0.0
  0
VERTEX
  8
Si_FTE
 10
-45.391000
 20
14.147000
 30
0.0
  0
VERTEX
  8
Si_FTE
 10
-45.391000
 20
9.647000
 30
0.0
  0
VERTEX
  8
Si_FTE
 10
-30.641000
 20
9.647000
 30
0.0
  0
VERTEX
  8
Si_FTE
 10
-30.641000
 20
9.147000
 30
0.0
  0
VERTEX
  8
Si_FTE
 10
-45.891000
 20
9.147000
 30
0.0
  0
SEQEND
  8
Si_FTE
  0
POLYLINE
  8
Si_FTE
 66
       1
 70
       1
 10
0.0
 20
0.0
 30
0.0
  0
VERTEX
  8
Si_FTE
 10
-41.391000
 20
27.397000
 30
0.0
  0
VERTEX
  8
Si_FTE
 10
-40.891000
 20
27.397000
 30
0.0
  0
VERTEX
  8
Si_FTE
 10
-40.891000
 20
14.147000
 30
0.0
  0
VERTEX
  8
Si_FTE
 10
-41.391000
 20
14.147000
 30
0.0
  0
SEQEND
  8
Si_FTE
  0
POLYLINE
  8
Si_FTE
 66
       1
 70
       1
 10
0.0
 20
0.0
 30
0.0
  0
VERTEX
  8
Si_FTE
 10
-20.641000
 20
9.647000
 30
0.0
  0
VERTEX
  8
Si_FTE
 10
-15.141000
 20
9.647000
 30
0.0
  0
VERTEX
  8
Si_FTE
 10
-15.141000
 20
22.647000
 30
0.0
  0
VERTEX
  8
Si_FTE
 10
-14.641000
 20
22.647000
 30
0.0
  0
VERTEX
  8
Si_FTE
 10
-14.641000
 20
9.147000
 30
0.0
  0
VERTEX
  8
Si_FTE
 10
-20.641000
 20
9.147000
 30
0.0
  0
SEQEND
  8
Si_FTE
  0
POLYLINE
  8
Si_FTE
 66
       1
 70
       1
 10
0.0
 20
0.0
 30
0.0
  0
VERTEX
  8
Si_FTE
 10
-41.391000
 20
14.147000
 30
0.0
  0
VERTEX
  8
Si_FTE
 10
-30.641000
 20
14.147000
 30
0.0
  0
VERTEX
  8
Si_FTE
 10
-30.641000
 20
13.647000
 30
0.0
  0
VERTEX
  8
Si_FTE
 10
-41.391000
 20
13.647000
 30
0.0
  0
SEQEND
  8
Si_FTE
  0
POLYLINE
  8
Si_FTE
 66
       1
 70
       1
 10
0.0
 20
0.0
 30
0.0
  0
VERTEX
  8
Si_FTE
 10
-45.891000
 20
27.397000
 30
0.0
  0
VERTEX
  8
Si_FTE
 10
-45.391000
 20
27.397000
 30
0.0
  0
VERTEX
  8
Si_FTE
 10
-45.391000
 20
14.147000
 30
0.0
  0
VERTEX
  8
Si_FTE
 10
-45.891000
 20
14.147000
 30
0.0
  0
SEQEND
  8
Si_FTE
  0
POLYLINE
  8
Si_FTE
 66
       1
 70
       1
 10
0.0
 20
0.0
 30
0.0
  0
VERTEX
  8
Si_FTE
 10
-30.641000
 20
9.647000
 30
0.0
  0
VERTEX
  8
Si_FTE
 10
-24.641000
 20
9.647000
 30
0.0
  0
VERTEX
  8
Si_FTE
 10
-24.641000
 20
9.147000
 30
0.0
  0
VERTEX
  8
Si_FTE
 10
-30.641000
 20
9.147000
 30
0.0
  0
SEQEND
  8
Si_FTE
  0
POLYLINE
  8
Si_FTE
 66
       1
 70
       1
 10
0.0
 20
0.0
 30
0.0
  0
VERTEX
  8
Si_FTE
 10
-30.641000
 20
22.647000
 30
0.0
  0
VERTEX
  8
Si_FTE
 10
-30.141000
 20
22.647000
 30
0.0
  0
VERTEX
  8
Si_FTE
 10
-30.141000
 20
13.647000
 30
0.0
  0
VERTEX
  8
Si_FTE
 10
-30.641000
 20
13.647000
 30
0.0
  0
SEQEND
  8
Si_FTE
  0
POLYLINE
  8
Poly_FTE
 66
       1
 70
       1
 10
0.0
 20
0.0
 30
0.0
  0
VERTEX
  8
Poly_FTE
 10
-45.391000
 20
26.897000
 30
0.0
  0
VERTEX
  8
Poly_FTE
 10
-41.391000
 20
26.897000
 30
0.0
  0
VERTEX
  8
Poly_FTE
 10
-41.391000
 20
13.647000
 30
0.0
  0
VERTEX
  8
Poly_FTE
 10
-45.391000
 20
13.647000
 30
0.0
  0
SEQEND
  8
Poly_FTE
  0
POLYLINE
  8
Poly_FTE
 66
       1
 70
       1
 10
0.0
 20
0.0
 30
0.0
  0
VERTEX
  8
Poly_FTE
 10
-45.391000
 20
13.647000
 30
0.0
  0
VERTEX
  8
Poly_FTE
 10
-30.141000
 20
13.647000
 30
0.0
  0
VERTEX
  8
Poly_FTE
 10
-30.141000
 20
9.647000
 30
0.0
  0
VERTEX
  8
Poly_FTE
 10
-45.391000
 20
9.647000
 30
0.0
  0
SEQEND
  8
Poly_FTE
  0
POLYLINE
  8
Poly_FTE
 66
       1
 70
       1
 10
0.0
 20
0.0
 30
0.0
  0
VERTEX
  8
Poly_FTE
 10
-30.141000
 20
22.647000
 30
0.0
  0
VERTEX
  8
Poly_FTE
 10
-15.141000
 20
22.647000
 30
0.0
  0
VERTEX
  8
Poly_FTE
 10
-15.141000
 20
9.647000
 30
0.0
  0
VERTEX
  8
Poly_FTE
 10
-30.141000
 20
9.647000
 30
0.0
  0
SEQEND
  8
Poly_FTE
  0
POLYLINE
  8
Poly_PTE
 66
       1
 70
       1
 10
0.0
 20
0.0
 30
0.0
  0
VERTEX
  8
Poly_PTE
 10
-45.891000
 20
27.397000
 30
0.0
  0
VERTEX
  8
Poly_PTE
 10
-40.891000
 20
27.397000
 30
0.0
  0
VERTEX
  8
Poly_PTE
 10
-40.891000
 20
14.147000
 30
0.0
  0
VERTEX
  8
Poly_PTE
 10
-45.891000
 20
14.147000
 30
0.0
  0
SEQEND
  8
Poly_PTE
  0
POLYLINE
  8
Poly_PTE
 66
       1
 70
       1
 10
0.0
 20
0.0
 30
0.0
  0
VERTEX
  8
Poly_PTE
 10
-45.891000
 20
14.147000
 30
0.0
  0
VERTEX
  8
Poly_PTE
 10
-30.641000
 20
14.147000
 30
0.0
  0
VERTEX
  8
Poly_PTE
 10
-30.641000
 20
9.147000
 30
0.0
  0
VERTEX
  8
Poly_PTE
 10
-45.891000
 20
9.147000
 30
0.0
  0
SEQEND
  8
Poly_PTE
  0
POLYLINE
  8
Poly_PTE
 66
       1
 70
       1
 10
0.0
 20
0.0
 30
0.0
  0
VERTEX
  8
Poly_PTE
 10
-30.641000
 20
23.147000
 30
0.0
  0
VERTEX
  8
Poly_PTE
 10
-14.641000
 20
23.147000
 30
0.0
  0
VERTEX
  8
Poly_PTE
 10
-14.641000
 20
9.147000
 30
0.0
  0
VERTEX
  8
Poly_PTE
 10
-30.641000
 20
9.147000
 30
0.0
  0
SEQEND
  8
Poly_PTE
  0
POLYLINE
  8
Oxide_FTE_drawing
 66
       1
 70
       1
 10
0.0
 20
0.0
 30
0.0
  0
VERTEX
  8
Oxide_FTE_drawing
 10
-44.891000
 20
26.397000
 30
0.0
  0
VERTEX
  8
Oxide_FTE_drawing
 10
-41.891000
 20
26.397000
 30
0.0
  0
VERTEX
  8
Oxide_FTE_drawing
 10
-41.891000
 20
13.147000
 30
0.0
  0
VERTEX
  8
Oxide_FTE_drawing
 10
-44.891000
 20
13.147000
 30
0.0
  0
SEQEND
  8
Oxide_FTE_drawing
  0
POLYLINE
  8
Oxide_FTE_drawing
 66
       1
 70
       1
 10
0.0
 20
0.0
 30
0.0
  0
VERTEX
  8
Oxide_FTE_drawing
 10
-44.891000
 20
13.147000
 30
0.0
  0
VERTEX
  8
Oxide_FTE_drawing
 10
-29.641000
 20
13.147000
 30
0.0
  0
VERTEX
  8
Oxide_FTE_drawing
 10
-29.641000
 20
10.147000
 30
0.0
  0
VERTEX
  8
Oxide_FTE_drawing
 10
-44.891000
 20
10.147000
 30
0.0
  0
SEQEND
  8
Oxide_FTE_drawing
  0
POLYLINE
  8
Oxide_FTE_drawing
 66
       1
 70
       1
 10
0.0
 20
0.0
 30
0.0
  0
VERTEX
  8
Oxide_FTE_drawing
 10
-29.641000
 20
23.147000
 30
0.0
  0
VERTEX
  8
Oxide_FTE_drawing
 10
-15.641000
 20
23.147000
 30
0.0
  0
VERTEX
  8
Oxide_FTE_drawing
 10
-15.641000
 20
10.147000
 30
0.0
  0
VERTEX
  8
Oxide_FTE_drawing
 10
-29.641000
 20
10.147000
 30
0.0
  0
SEQEND
  8
Oxide_FTE_drawing
  0
POLYLINE
  8
Si_FTE
 66
       1
 70
       1
 10
0.0
 20
0.0
 30
0.0
  0
VERTEX
  8
Si_FTE
 10
-45.891000
 20
36.897000
 30
0.0
  0
VERTEX
  8
Si_FTE
 10
-40.891000
 20
36.897000
 30
0.0
  0
VERTEX
  8
Si_FTE
 10
-40.891000
 20
41.897000
 30
0.0
  0
VERTEX
  8
Si_FTE
 10
-41.391000
 20
41.897000
 30
0.0
  0
VERTEX
  8
Si_FTE
 10
-41.391000
 20
37.397000
 30
0.0
  0
VERTEX
  8
Si_FTE
 10
-45.391000
 20
37.397000
 30
0.0
  0
VERTEX
  8
Si_FTE
 10
-45.391000
 20
41.897000
 30
0.0
  0
VERTEX
  8
Si_FTE
 10
-45.891000
 20
41.897000
 30
0.0
  0
SEQEND
  8
Si_FTE
  0
POLYLINE
  8
Si_FTE
 66
       1
 70
       1
 10
0.0
 20
0.0
 30
0.0
  0
VERTEX
  8
Si_FTE
 10
-45.891000
 20
27.397000
 30
0.0
  0
VERTEX
  8
Si_FTE
 10
-45.391000
 20
27.397000
 30
0.0
  0
VERTEX
  8
Si_FTE
 10
-45.391000
 20
31.897000
 30
0.0
  0
VERTEX
  8
Si_FTE
 10
-41.391000
 20
31.897000
 30
0.0
  0
VERTEX
  8
Si_FTE
 10
-41.391000
 20
27.397000
 30
0.0
  0
VERTEX
  8
Si_FTE
 10
-40.891000
 20
27.397000
 30
0.0
  0
VERTEX
  8
Si_FTE
 10
-40.891000
 20
32.397000
 30
0.0
  0
VERTEX
  8
Si_FTE
 10
-45.891000
 20
32.397000
 30
0.0
  0
SEQEND
  8
Si_FTE
  0
POLYLINE
  8
Poly_FTE
 66
       1
 70
       1
 10
0.0
 20
0.0
 30
0.0
  0
VERTEX
  8
Poly_FTE
 10
-45.391000
 20
31.897000
 30
0.0
  0
VERTEX
  8
Poly_FTE
 10
-41.391000
 20
31.897000
 30
0.0
  0
VERTEX
  8
Poly_FTE
 10
-41.391000
 20
37.397000
 30
0.0
  0
VERTEX
  8
Poly_FTE
 10
-45.391000
 20
37.397000
 30
0.0
  0
SEQEND
  8
Poly_FTE
  0
POLYLINE
  8
Poly_FTE
 66
       1
 70
       1
 10
0.0
 20
0.0
 30
0.0
  0
VERTEX
  8
Poly_FTE
 10
-45.391000
 20
26.897000
 30
0.0
  0
VERTEX
  8
Poly_FTE
 10
-41.391000
 20
26.897000
 30
0.0
  0
VERTEX
  8
Poly_FTE
 10
-41.391000
 20
31.897000
 30
0.0
  0
VERTEX
  8
Poly_FTE
 10
-45.391000
 20
31.897000
 30
0.0
  0
SEQEND
  8
Poly_FTE
  0
POLYLINE
  8
Poly_FTE
 66
       1
 70
       1
 10
0.0
 20
0.0
 30
0.0
  0
VERTEX
  8
Poly_FTE
 10
-45.391000
 20
37.397000
 30
0.0
  0
VERTEX
  8
Poly_FTE
 10
-41.391000
 20
37.397000
 30
0.0
  0
VERTEX
  8
Poly_FTE
 10
-41.391000
 20
42.397000
 30
0.0
  0
VERTEX
  8
Poly_FTE
 10
-45.391000
 20
42.397000
 30
0.0
  0
SEQEND
  8
Poly_FTE
  0
POLYLINE
  8
Poly_PTE
 66
       1
 70
       1
 10
0.0
 20
0.0
 30
0.0
  0
VERTEX
  8
Poly_PTE
 10
-45.891000
 20
32.397000
 30
0.0
  0
VERTEX
  8
Poly_PTE
 10
-40.891000
 20
32.397000
 30
0.0
  0
VERTEX
  8
Poly_PTE
 10
-40.891000
 20
36.897000
 30
0.0
  0
VERTEX
  8
Poly_PTE
 10
-45.891000
 20
36.897000
 30
0.0
  0
SEQEND
  8
Poly_PTE
  0
POLYLINE
  8
Poly_PTE
 66
       1
 70
       1
 10
0.0
 20
0.0
 30
0.0
  0
VERTEX
  8
Poly_PTE
 10
-45.891000
 20
27.396000
 30
0.0
  0
VERTEX
  8
Poly_PTE
 10
-40.891000
 20
27.396000
 30
0.0
  0
VERTEX
  8
Poly_PTE
 10
-40.891000
 20
32.397000
 30
0.0
  0
VERTEX
  8
Poly_PTE
 10
-45.891000
 20
32.397000
 30
0.0
  0
SEQEND
  8
Poly_PTE
  0
POLYLINE
  8
Poly_PTE
 66
       1
 70
       1
 10
0.0
 20
0.0
 30
0.0
  0
VERTEX
  8
Poly_PTE
 10
-45.891000
 20
36.897000
 30
0.0
  0
VERTEX
  8
Poly_PTE
 10
-40.891000
 20
36.897000
 30
0.0
  0
VERTEX
  8
Poly_PTE
 10
-40.891000
 20
41.897000
 30
0.0
  0
VERTEX
  8
Poly_PTE
 10
-45.891000
 20
41.897000
 30
0.0
  0
SEQEND
  8
Poly_PTE
  0
POLYLINE
  8
Oxide_FTE_drawing
 66
       1
 70
       1
 10
0.0
 20
0.0
 30
0.0
  0
VERTEX
  8
Oxide_FTE_drawing
 10
-44.891000
 20
26.397000
 30
0.0
  0
VERTEX
  8
Oxide_FTE_drawing
 10
-41.891000
 20
26.397000
 30
0.0
  0
VERTEX
  8
Oxide_FTE_drawing
 10
-41.891000
 20
31.397000
 30
0.0
  0
VERTEX
  8
Oxide_FTE_drawing
 10
-44.891000
 20
31.397000
 30
0.0
  0
SEQEND
  8
Oxide_FTE_drawing
  0
POLYLINE
  8
Oxide_FTE_drawing
 66
       1
 70
       1
 10
0.0
 20
0.0
 30
0.0
  0
VERTEX
  8
Oxide_FTE_drawing
 10
-44.891000
 20
37.897000
 30
0.0
  0
VERTEX
  8
Oxide_FTE_drawing
 10
-41.891000
 20
37.897000
 30
0.0
  0
VERTEX
  8
Oxide_FTE_drawing
 10
-41.891000
 20
42.897000
 30
0.0
  0
VERTEX
  8
Oxide_FTE_drawing
 10
-44.891000
 20
42.897000
 30
0.0
  0
SEQEND
  8
Oxide_FTE_drawing
  0
POLYLINE
  8
Si_FTE
 66
       1
 70
       1
 10
0.0
 20
0.0
 30
0.0
  0
VERTEX
  8
Si_FTE
 10
-35.891000
 20
41.647000
 30
0.0
  0
VERTEX
  8
Si_FTE
 10
-9.891000
 20
41.647000
 30
0.0
  0
VERTEX
  8
Si_FTE
 10
-9.891000
 20
47.147000
 30
0.0
  0
VERTEX
  8
Si_FTE
 10
-15.141000
 20
47.147000
 30
0.0
  0
VERTEX
  8
Si_FTE
 10
-15.141000
 20
46.647000
 30
0.0
  0
VERTEX
  8
Si_FTE
 10
-10.391000
 20
46.647000
 30
0.0
  0
VERTEX
  8
Si_FTE
 10
-10.391000
 20
42.147000
 30
0.0
  0
VERTEX
  8
Si_FTE
 10
-35.391000
 20
42.147000
 30
0.0
  0
VERTEX
  8
Si_FTE
 10
-35.391000
 20
46.647000
 30
0.0
  0
VERTEX
  8
Si_FTE
 10
-30.141000
 20
46.647000
 30
0.0
  0
VERTEX
  8
Si_FTE
 10
-30.141000
 20
47.147000
 30
0.0
  0
VERTEX
  8
Si_FTE
 10
-35.891000
 20
47.147000
 30
0.0
  0
SEQEND
  8
Si_FTE
  0
POLYLINE
  8
Poly_FTE
 66
       1
 70
       1
 10
0.0
 20
0.0
 30
0.0
  0
VERTEX
  8
Poly_FTE
 10
-18.891000
 20
37.897000
 30
0.0
  0
VERTEX
  8
Poly_FTE
 10
-17.891000
 20
37.897000
 30
0.0
  0
VERTEX
  8
Poly_FTE
 10
-17.891000
 20
42.147000
 30
0.0
  0
VERTEX
  8
Poly_FTE
 10
-18.891000
 20
42.147000
 30
0.0
  0
SEQEND
  8
Poly_FTE
  0
POLYLINE
  8
Poly_FTE
 66
       1
 70
       1
 10
0.0
 20
0.0
 30
0.0
  0
VERTEX
  8
Poly_FTE
 10
-21.891000
 20
37.897000
 30
0.0
  0
VERTEX
  8
Poly_FTE
 10
-20.891000
 20
37.897000
 30
0.0
  0
VERTEX
  8
Poly_FTE
 10
-20.891000
 20
42.147000
 30
0.0
  0
VERTEX
  8
Poly_FTE
 10
-21.891000
 20
42.147000
 30
0.0
  0
SEQEND
  8
Poly_FTE
  0
POLYLINE
  8
Poly_FTE
 66
       1
 70
       1
 10
0.0
 20
0.0
 30
0.0
  0
VERTEX
  8
Poly_FTE
 10
-30.891000
 20
37.897000
 30
0.0
  0
VERTEX
  8
Poly_FTE
 10
-29.891000
 20
37.897000
 30
0.0
  0
VERTEX
  8
Poly_FTE
 10
-29.891000
 20
42.147000
 30
0.0
  0
VERTEX
  8
Poly_FTE
 10
-30.891000
 20
42.147000
 30
0.0
  0
SEQEND
  8
Poly_FTE
  0
POLYLINE
  8
Poly_FTE
 66
       1
 70
       1
 10
0.0
 20
0.0
 30
0.0
  0
VERTEX
  8
Poly_FTE
 10
-27.891000
 20
37.897000
 30
0.0
  0
VERTEX
  8
Poly_FTE
 10
-26.891000
 20
37.897000
 30
0.0
  0
VERTEX
  8
Poly_FTE
 10
-26.891000
 20
42.147000
 30
0.0
  0
VERTEX
  8
Poly_FTE
 10
-27.891000
 20
42.147000
 30
0.0
  0
SEQEND
  8
Poly_FTE
  0
POLYLINE
  8
Poly_FTE
 66
       1
 70
       1
 10
0.0
 20
0.0
 30
0.0
  0
VERTEX
  8
Poly_FTE
 10
-24.891000
 20
37.897000
 30
0.0
  0
VERTEX
  8
Poly_FTE
 10
-23.891000
 20
37.897000
 30
0.0
  0
VERTEX
  8
Poly_FTE
 10
-23.891000
 20
42.147000
 30
0.0
  0
VERTEX
  8
Poly_FTE
 10
-24.891000
 20
42.147000
 30
0.0
  0
SEQEND
  8
Poly_FTE
  0
POLYLINE
  8
Poly_FTE
 66
       1
 70
       1
 10
0.0
 20
0.0
 30
0.0
  0
VERTEX
  8
Poly_FTE
 10
-12.891000
 20
37.897000
 30
0.0
  0
VERTEX
  8
Poly_FTE
 10
-11.891000
 20
37.897000
 30
0.0
  0
VERTEX
  8
Poly_FTE
 10
-11.891000
 20
42.147000
 30
0.0
  0
VERTEX
  8
Poly_FTE
 10
-12.891000
 20
42.147000
 30
0.0
  0
SEQEND
  8
Poly_FTE
  0
POLYLINE
  8
Poly_FTE
 66
       1
 70
       1
 10
0.0
 20
0.0
 30
0.0
  0
VERTEX
  8
Poly_FTE
 10
-15.891000
 20
37.897000
 30
0.0
  0
VERTEX
  8
Poly_FTE
 10
-14.891000
 20
37.897000
 30
0.0
  0
VERTEX
  8
Poly_FTE
 10
-14.891000
 20
42.147000
 30
0.0
  0
VERTEX
  8
Poly_FTE
 10
-15.891000
 20
42.147000
 30
0.0
  0
SEQEND
  8
Poly_FTE
  0
POLYLINE
  8
Poly_FTE
 66
       1
 70
       1
 10
0.0
 20
0.0
 30
0.0
  0
VERTEX
  8
Poly_FTE
 10
-33.891000
 20
37.897000
 30
0.0
  0
VERTEX
  8
Poly_FTE
 10
-32.891000
 20
37.897000
 30
0.0
  0
VERTEX
  8
Poly_FTE
 10
-32.891000
 20
42.147000
 30
0.0
  0
VERTEX
  8
Poly_FTE
 10
-33.891000
 20
42.147000
 30
0.0
  0
SEQEND
  8
Poly_FTE
  0
POLYLINE
  8
Poly_FTE
 66
       1
 70
       1
 10
0.0
 20
0.0
 30
0.0
  0
VERTEX
  8
Poly_FTE
 10
-35.391000
 20
36.647000
 30
0.0
  0
VERTEX
  8
Poly_FTE
 10
-10.391000
 20
36.647000
 30
0.0
  0
VERTEX
  8
Poly_FTE
 10
-10.391000
 20
37.397000
 30
0.0
  0
VERTEX
  8
Poly_FTE
 10
-35.391000
 20
37.397000
 30
0.0
  0
SEQEND
  8
Poly_FTE
  0
POLYLINE
  8
Poly_FTE
 66
       1
 70
       1
 10
0.0
 20
0.0
 30
0.0
  0
VERTEX
  8
Poly_FTE
 10
-35.391000
 20
37.397000
 30
0.0
  0
VERTEX
  8
Poly_FTE
 10
-34.391000
 20
37.397000
 30
0.0
  0
VERTEX
  8
Poly_FTE
 10
-34.391000
 20
41.397000
 30
0.0
  0
VERTEX
  8
Poly_FTE
 10
-35.391000
 20
41.397000
 30
0.0
  0
SEQEND
  8
Poly_FTE
  0
POLYLINE
  8
Poly_FTE
 66
       1
 70
       1
 10
0.0
 20
0.0
 30
0.0
  0
VERTEX
  8
Poly_FTE
 10
-32.391000
 20
37.397000
 30
0.0
  0
VERTEX
  8
Poly_FTE
 10
-31.391000
 20
37.397000
 30
0.0
  0
VERTEX
  8
Poly_FTE
 10
-31.391000
 20
41.397000
 30
0.0
  0
VERTEX
  8
Poly_FTE
 10
-32.391000
 20
41.397000
 30
0.0
  0
SEQEND
  8
Poly_FTE
  0
POLYLINE
  8
Poly_FTE
 66
       1
 70
       1
 10
0.0
 20
0.0
 30
0.0
  0
VERTEX
  8
Poly_FTE
 10
-29.391000
 20
37.397000
 30
0.0
  0
VERTEX
  8
Poly_FTE
 10
-28.391000
 20
37.397000
 30
0.0
  0
VERTEX
  8
Poly_FTE
 10
-28.391000
 20
41.397000
 30
0.0
  0
VERTEX
  8
Poly_FTE
 10
-29.391000
 20
41.397000
 30
0.0
  0
SEQEND
  8
Poly_FTE
  0
POLYLINE
  8
Poly_FTE
 66
       1
 70
       1
 10
0.0
 20
0.0
 30
0.0
  0
VERTEX
  8
Poly_FTE
 10
-26.391000
 20
37.397000
 30
0.0
  0
VERTEX
  8
Poly_FTE
 10
-25.391000
 20
37.397000
 30
0.0
  0
VERTEX
  8
Poly_FTE
 10
-25.391000
 20
41.397000
 30
0.0
  0
VERTEX
  8
Poly_FTE
 10
-26.391000
 20
41.397000
 30
0.0
  0
SEQEND
  8
Poly_FTE
  0
POLYLINE
  8
Poly_FTE
 66
       1
 70
       1
 10
0.0
 20
0.0
 30
0.0
  0
VERTEX
  8
Poly_FTE
 10
-23.391000
 20
37.397000
 30
0.0
  0
VERTEX
  8
Poly_FTE
 10
-22.391000
 20
37.397000
 30
0.0
  0
VERTEX
  8
Poly_FTE
 10
-22.391000
 20
41.397000
 30
0.0
  0
VERTEX
  8
Poly_FTE
 10
-23.391000
 20
41.397000
 30
0.0
  0
SEQEND
  8
Poly_FTE
  0
POLYLINE
  8
Poly_FTE
 66
       1
 70
       1
 10
0.0
 20
0.0
 30
0.0
  0
VERTEX
  8
Poly_FTE
 10
-20.391000
 20
37.397000
 30
0.0
  0
VERTEX
  8
Poly_FTE
 10
-19.391000
 20
37.397000
 30
0.0
  0
VERTEX
  8
Poly_FTE
 10
-19.391000
 20
41.397000
 30
0.0
  0
VERTEX
  8
Poly_FTE
 10
-20.391000
 20
41.397000
 30
0.0
  0
SEQEND
  8
Poly_FTE
  0
POLYLINE
  8
Poly_FTE
 66
       1
 70
       1
 10
0.0
 20
0.0
 30
0.0
  0
VERTEX
  8
Poly_FTE
 10
-17.391000
 20
37.397000
 30
0.0
  0
VERTEX
  8
Poly_FTE
 10
-16.391000
 20
37.397000
 30
0.0
  0
VERTEX
  8
Poly_FTE
 10
-16.391000
 20
41.397000
 30
0.0
  0
VERTEX
  8
Poly_FTE
 10
-17.391000
 20
41.397000
 30
0.0
  0
SEQEND
  8
Poly_FTE
  0
POLYLINE
  8
Poly_FTE
 66
       1
 70
       1
 10
0.0
 20
0.0
 30
0.0
  0
VERTEX
  8
Poly_FTE
 10
-14.391000
 20
37.397000
 30
0.0
  0
VERTEX
  8
Poly_FTE
 10
-13.391000
 20
37.397000
 30
0.0
  0
VERTEX
  8
Poly_FTE
 10
-13.391000
 20
41.397000
 30
0.0
  0
VERTEX
  8
Poly_FTE
 10
-14.391000
 20
41.397000
 30
0.0
  0
SEQEND
  8
Poly_FTE
  0
POLYLINE
  8
Poly_FTE
 66
       1
 70
       1
 10
0.0
 20
0.0
 30
0.0
  0
VERTEX
  8
Poly_FTE
 10
-11.391000
 20
37.397000
 30
0.0
  0
VERTEX
  8
Poly_FTE
 10
-10.391000
 20
37.397000
 30
0.0
  0
VERTEX
  8
Poly_FTE
 10
-10.391000
 20
41.397000
 30
0.0
  0
VERTEX
  8
Poly_FTE
 10
-11.391000
 20
41.397000
 30
0.0
  0
SEQEND
  8
Poly_FTE
  0
POLYLINE
  8
Poly_FTE
 66
       1
 70
       1
 10
0.0
 20
0.0
 30
0.0
  0
VERTEX
  8
Poly_FTE
 10
-35.391000
 20
42.147000
 30
0.0
  0
VERTEX
  8
Poly_FTE
 10
-10.391000
 20
42.147000
 30
0.0
  0
VERTEX
  8
Poly_FTE
 10
-10.391000
 20
46.647000
 30
0.0
  0
VERTEX
  8
Poly_FTE
 10
-35.391000
 20
46.647000
 30
0.0
  0
SEQEND
  8
Poly_FTE
  0
POLYLINE
  8
Poly_FTE
 66
       1
 70
       1
 10
0.0
 20
0.0
 30
0.0
  0
VERTEX
  8
Poly_FTE
 10
-23.391000
 20
36.647000
 30
0.0
  0
VERTEX
  8
Poly_FTE
 10
-22.391000
 20
36.647000
 30
0.0
  0
VERTEX
  8
Poly_FTE
 10
-22.391000
 20
37.947000
 30
0.0
  0
VERTEX
  8
Poly_FTE
 10
-23.391000
 20
37.947000
 30
0.0
  0
SEQEND
  8
Poly_FTE
  0
POLYLINE
  8
Poly_FTE
 66
       1
 70
       1
 10
0.0
 20
0.0
 30
0.0
  0
VERTEX
  8
Poly_FTE
 10
-26.391000
 20
36.647000
 30
0.0
  0
VERTEX
  8
Poly_FTE
 10
-25.391000
 20
36.647000
 30
0.0
  0
VERTEX
  8
Poly_FTE
 10
-25.391000
 20
37.947000
 30
0.0
  0
VERTEX
  8
Poly_FTE
 10
-26.391000
 20
37.947000
 30
0.0
  0
SEQEND
  8
Poly_FTE
  0
POLYLINE
  8
Poly_FTE
 66
       1
 70
       1
 10
0.0
 20
0.0
 30
0.0
  0
VERTEX
  8
Poly_FTE
 10
-29.391000
 20
36.647000
 30
0.0
  0
VERTEX
  8
Poly_FTE
 10
-28.391000
 20
36.647000
 30
0.0
  0
VERTEX
  8
Poly_FTE
 10
-28.391000
 20
37.947000
 30
0.0
  0
VERTEX
  8
Poly_FTE
 10
-29.391000
 20
37.947000
 30
0.0
  0
SEQEND
  8
Poly_FTE
  0
POLYLINE
  8
Poly_FTE
 66
       1
 70
       1
 10
0.0
 20
0.0
 30
0.0
  0
VERTEX
  8
Poly_FTE
 10
-32.391000
 20
36.647000
 30
0.0
  0
VERTEX
  8
Poly_FTE
 10
-31.391000
 20
36.647000
 30
0.0
  0
VERTEX
  8
Poly_FTE
 10
-31.391000
 20
37.947000
 30
0.0
  0
VERTEX
  8
Poly_FTE
 10
-32.391000
 20
37.947000
 30
0.0
  0
SEQEND
  8
Poly_FTE
  0
POLYLINE
  8
Poly_FTE
 66
       1
 70
       1
 10
0.0
 20
0.0
 30
0.0
  0
VERTEX
  8
Poly_FTE
 10
-35.391000
 20
36.647000
 30
0.0
  0
VERTEX
  8
Poly_FTE
 10
-34.391000
 20
36.647000
 30
0.0
  0
VERTEX
  8
Poly_FTE
 10
-34.391000
 20
37.947000
 30
0.0
  0
VERTEX
  8
Poly_FTE
 10
-35.391000
 20
37.947000
 30
0.0
  0
SEQEND
  8
Poly_FTE
  0
POLYLINE
  8
Poly_FTE
 66
       1
 70
       1
 10
0.0
 20
0.0
 30
0.0
  0
VERTEX
  8
Poly_FTE
 10
-11.391000
 20
36.647000
 30
0.0
  0
VERTEX
  8
Poly_FTE
 10
-10.391000
 20
36.647000
 30
0.0
  0
VERTEX
  8
Poly_FTE
 10
-10.391000
 20
37.947000
 30
0.0
  0
VERTEX
  8
Poly_FTE
 10
-11.391000
 20
37.947000
 30
0.0
  0
SEQEND
  8
Poly_FTE
  0
POLYLINE
  8
Poly_FTE
 66
       1
 70
       1
 10
0.0
 20
0.0
 30
0.0
  0
VERTEX
  8
Poly_FTE
 10
-14.391000
 20
36.647000
 30
0.0
  0
VERTEX
  8
Poly_FTE
 10
-13.391000
 20
36.647000
 30
0.0
  0
VERTEX
  8
Poly_FTE
 10
-13.391000
 20
37.947000
 30
0.0
  0
VERTEX
  8
Poly_FTE
 10
-14.391000
 20
37.947000
 30
0.0
  0
SEQEND
  8
Poly_FTE
  0
POLYLINE
  8
Poly_FTE
 66
       1
 70
       1
 10
0.0
 20
0.0
 30
0.0
  0
VERTEX
  8
Poly_FTE
 10
-17.391000
 20
36.647000
 30
0.0
  0
VERTEX
  8
Poly_FTE
 10
-16.391000
 20
36.647000
 30
0.0
  0
VERTEX
  8
Poly_FTE
 10
-16.391000
 20
37.947000
 30
0.0
  0
VERTEX
  8
Poly_FTE
 10
-17.391000
 20
37.947000
 30
0.0
  0
SEQEND
  8
Poly_FTE
  0
POLYLINE
  8
Poly_FTE
 66
       1
 70
       1
 10
0.0
 20
0.0
 30
0.0
  0
VERTEX
  8
Poly_FTE
 10
-20.391000
 20
36.647000
 30
0.0
  0
VERTEX
  8
Poly_FTE
 10
-19.391000
 20
36.647000
 30
0.0
  0
VERTEX
  8
Poly_FTE
 10
-19.391000
 20
37.947000
 30
0.0
  0
VERTEX
  8
Poly_FTE
 10
-20.391000
 20
37.947000
 30
0.0
  0
SEQEND
  8
Poly_FTE
  0
POLYLINE
  8
Poly_PTE
 66
       1
 70
       1
 10
0.0
 20
0.0
 30
0.0
  0
VERTEX
  8
Poly_PTE
 10
-35.891000
 20
36.147000
 30
0.0
  0
VERTEX
  8
Poly_PTE
 10
-9.891000
 20
36.147000
 30
0.0
  0
VERTEX
  8
Poly_PTE
 10
-9.891000
 20
47.147000
 30
0.0
  0
VERTEX
  8
Poly_PTE
 10
-35.891000
 20
47.147000
 30
0.0
  0
SEQEND
  8
Poly_PTE
  0
POLYLINE
  8
Oxide_FTE_drawing
 66
       1
 70
       1
 10
0.0
 20
0.0
 30
0.0
  0
VERTEX
  8
Oxide_FTE_drawing
 10
-34.891000
 20
42.647000
 30
0.0
  0
VERTEX
  8
Oxide_FTE_drawing
 10
-10.891000
 20
42.647000
 30
0.0
  0
VERTEX
  8
Oxide_FTE_drawing
 10
-10.891000
 20
46.147000
 30
0.0
  0
VERTEX
  8
Oxide_FTE_drawing
 10
-34.891000
 20
46.147000
 30
0.0
  0
SEQEND
  8
Oxide_FTE_drawing
  0
CIRCLE
  8
Oxide_PTE_drawing
 10
-10.891000
 20
39.397000
 40
0.300000
  0
CIRCLE
  8
Oxide_PTE_drawing
 10
-13.891000
 20
39.397000
 40
0.300000
  0
CIRCLE
  8
Oxide_PTE_drawing
 10
-16.891000
 20
39.397000
 40
0.300000
  0
CIRCLE
  8
Oxide_PTE_drawing
 10
-19.891000
 20
39.397000
 40
0.300000
  0
CIRCLE
  8
Oxide_PTE_drawing
 10
-22.891000
 20
39.397000
 40
0.300000
  0
CIRCLE
  8
Oxide_PTE_drawing
 10
-25.891000
 20
39.397000
 40
0.300000
  0
CIRCLE
  8
Oxide_PTE_drawing
 10
-28.891000
 20
39.397000
 40
0.300000
  0
CIRCLE
  8
Oxide_PTE_drawing
 10
-31.891000
 20
39.397000
 40
0.300000
  0
CIRCLE
  8
Oxide_PTE_drawing
 10
-34.891000
 20
39.397000
 40
0.300000
  0
POLYLINE
  8
Si_FTE
 66
       1
 70
       1
 10
0.0
 20
0.0
 30
0.0
  0
VERTEX
  8
Si_FTE
 10
-35.891000
 20
27.647000
 30
0.0
  0
VERTEX
  8
Si_FTE
 10
-9.891000
 20
27.647000
 30
0.0
  0
VERTEX
  8
Si_FTE
 10
-9.891000
 20
22.147000
 30
0.0
  0
VERTEX
  8
Si_FTE
 10
-15.141000
 20
22.147000
 30
0.0
  0
VERTEX
  8
Si_FTE
 10
-15.141000
 20
22.647000
 30
0.0
  0
VERTEX
  8
Si_FTE
 10
-10.391000
 20
22.647000
 30
0.0
  0
VERTEX
  8
Si_FTE
 10
-10.391000
 20
27.147000
 30
0.0
  0
VERTEX
  8
Si_FTE
 10
-35.391000
 20
27.147000
 30
0.0
  0
VERTEX
  8
Si_FTE
 10
-35.391000
 20
22.647000
 30
0.0
  0
VERTEX
  8
Si_FTE
 10
-30.141000
 20
22.647000
 30
0.0
  0
VERTEX
  8
Si_FTE
 10
-30.141000
 20
22.147000
 30
0.0
  0
VERTEX
  8
Si_FTE
 10
-35.891000
 20
22.147000
 30
0.0
  0
SEQEND
  8
Si_FTE
  0
POLYLINE
  8
Poly_FTE
 66
       1
 70
       1
 10
0.0
 20
0.0
 30
0.0
  0
VERTEX
  8
Poly_FTE
 10
-18.891000
 20
31.397000
 30
0.0
  0
VERTEX
  8
Poly_FTE
 10
-17.891000
 20
31.397000
 30
0.0
  0
VERTEX
  8
Poly_FTE
 10
-17.891000
 20
27.147000
 30
0.0
  0
VERTEX
  8
Poly_FTE
 10
-18.891000
 20
27.147000
 30
0.0
  0
SEQEND
  8
Poly_FTE
  0
POLYLINE
  8
Poly_FTE
 66
       1
 70
       1
 10
0.0
 20
0.0
 30
0.0
  0
VERTEX
  8
Poly_FTE
 10
-21.891000
 20
31.397000
 30
0.0
  0
VERTEX
  8
Poly_FTE
 10
-20.891000
 20
31.397000
 30
0.0
  0
VERTEX
  8
Poly_FTE
 10
-20.891000
 20
27.147000
 30
0.0
  0
VERTEX
  8
Poly_FTE
 10
-21.891000
 20
27.147000
 30
0.0
  0
SEQEND
  8
Poly_FTE
  0
POLYLINE
  8
Poly_FTE
 66
       1
 70
       1
 10
0.0
 20
0.0
 30
0.0
  0
VERTEX
  8
Poly_FTE
 10
-30.891000
 20
31.397000
 30
0.0
  0
VERTEX
  8
Poly_FTE
 10
-29.891000
 20
31.397000
 30
0.0
  0
VERTEX
  8
Poly_FTE
 10
-29.891000
 20
27.147000
 30
0.0
  0
VERTEX
  8
Poly_FTE
 10
-30.891000
 20
27.147000
 30
0.0
  0
SEQEND
  8
Poly_FTE
  0
POLYLINE
  8
Poly_FTE
 66
       1
 70
       1
 10
0.0
 20
0.0
 30
0.0
  0
VERTEX
  8
Poly_FTE
 10
-27.891000
 20
31.397000
 30
0.0
  0
VERTEX
  8
Poly_FTE
 10
-26.891000
 20
31.397000
 30
0.0
  0
VERTEX
  8
Poly_FTE
 10
-26.891000
 20
27.147000
 30
0.0
  0
VERTEX
  8
Poly_FTE
 10
-27.891000
 20
27.147000
 30
0.0
  0
SEQEND
  8
Poly_FTE
  0
POLYLINE
  8
Poly_FTE
 66
       1
 70
       1
 10
0.0
 20
0.0
 30
0.0
  0
VERTEX
  8
Poly_FTE
 10
-24.891000
 20
31.397000
 30
0.0
  0
VERTEX
  8
Poly_FTE
 10
-23.891000
 20
31.397000
 30
0.0
  0
VERTEX
  8
Poly_FTE
 10
-23.891000
 20
27.147000
 30
0.0
  0
VERTEX
  8
Poly_FTE
 10
-24.891000
 20
27.147000
 30
0.0
  0
SEQEND
  8
Poly_FTE
  0
POLYLINE
  8
Poly_FTE
 66
       1
 70
       1
 10
0.0
 20
0.0
 30
0.0
  0
VERTEX
  8
Poly_FTE
 10
-12.891000
 20
31.397000
 30
0.0
  0
VERTEX
  8
Poly_FTE
 10
-11.891000
 20
31.397000
 30
0.0
  0
VERTEX
  8
Poly_FTE
 10
-11.891000
 20
27.147000
 30
0.0
  0
VERTEX
  8
Poly_FTE
 10
-12.891000
 20
27.147000
 30
0.0
  0
SEQEND
  8
Poly_FTE
  0
POLYLINE
  8
Poly_FTE
 66
       1
 70
       1
 10
0.0
 20
0.0
 30
0.0
  0
VERTEX
  8
Poly_FTE
 10
-15.891000
 20
31.397000
 30
0.0
  0
VERTEX
  8
Poly_FTE
 10
-14.891000
 20
31.397000
 30
0.0
  0
VERTEX
  8
Poly_FTE
 10
-14.891000
 20
27.147000
 30
0.0
  0
VERTEX
  8
Poly_FTE
 10
-15.891000
 20
27.147000
 30
0.0
  0
SEQEND
  8
Poly_FTE
  0
POLYLINE
  8
Poly_FTE
 66
       1
 70
       1
 10
0.0
 20
0.0
 30
0.0
  0
VERTEX
  8
Poly_FTE
 10
-33.891000
 20
31.397000
 30
0.0
  0
VERTEX
  8
Poly_FTE
 10
-32.891000
 20
31.397000
 30
0.0
  0
VERTEX
  8
Poly_FTE
 10
-32.891000
 20
27.147000
 30
0.0
  0
VERTEX
  8
Poly_FTE
 10
-33.891000
 20
27.147000
 30
0.0
  0
SEQEND
  8
Poly_FTE
  0
POLYLINE
  8
Poly_FTE
 66
       1
 70
       1
 10
0.0
 20
0.0
 30
0.0
  0
VERTEX
  8
Poly_FTE
 10
-35.391000
 20
32.647000
 30
0.0
  0
VERTEX
  8
Poly_FTE
 10
-10.391000
 20
32.647000
 30
0.0
  0
VERTEX
  8
Poly_FTE
 10
-10.391000
 20
31.897000
 30
0.0
  0
VERTEX
  8
Poly_FTE
 10
-35.391000
 20
31.897000
 30
0.0
  0
SEQEND
  8
Poly_FTE
  0
POLYLINE
  8
Poly_FTE
 66
       1
 70
       1
 10
0.0
 20
0.0
 30
0.0
  0
VERTEX
  8
Poly_FTE
 10
-35.391000
 20
31.897000
 30
0.0
  0
VERTEX
  8
Poly_FTE
 10
-34.391000
 20
31.897000
 30
0.0
  0
VERTEX
  8
Poly_FTE
 10
-34.391000
 20
27.897000
 30
0.0
  0
VERTEX
  8
Poly_FTE
 10
-35.391000
 20
27.897000
 30
0.0
  0
SEQEND
  8
Poly_FTE
  0
POLYLINE
  8
Poly_FTE
 66
       1
 70
       1
 10
0.0
 20
0.0
 30
0.0
  0
VERTEX
  8
Poly_FTE
 10
-32.391000
 20
31.897000
 30
0.0
  0
VERTEX
  8
Poly_FTE
 10
-31.391000
 20
31.897000
 30
0.0
  0
VERTEX
  8
Poly_FTE
 10
-31.391000
 20
27.897000
 30
0.0
  0
VERTEX
  8
Poly_FTE
 10
-32.391000
 20
27.897000
 30
0.0
  0
SEQEND
  8
Poly_FTE
  0
POLYLINE
  8
Poly_FTE
 66
       1
 70
       1
 10
0.0
 20
0.0
 30
0.0
  0
VERTEX
  8
Poly_FTE
 10
-29.391000
 20
31.897000
 30
0.0
  0
VERTEX
  8
Poly_FTE
 10
-28.391000
 20
31.897000
 30
0.0
  0
VERTEX
  8
Poly_FTE
 10
-28.391000
 20
27.897000
 30
0.0
  0
VERTEX
  8
Poly_FTE
 10
-29.391000
 20
27.897000
 30
0.0
  0
SEQEND
  8
Poly_FTE
  0
POLYLINE
  8
Poly_FTE
 66
       1
 70
       1
 10
0.0
 20
0.0
 30
0.0
  0
VERTEX
  8
Poly_FTE
 10
-26.391000
 20
31.897000
 30
0.0
  0
VERTEX
  8
Poly_FTE
 10
-25.391000
 20
31.897000
 30
0.0
  0
VERTEX
  8
Poly_FTE
 10
-25.391000
 20
27.897000
 30
0.0
  0
VERTEX
  8
Poly_FTE
 10
-26.391000
 20
27.897000
 30
0.0
  0
SEQEND
  8
Poly_FTE
  0
POLYLINE
  8
Poly_FTE
 66
       1
 70
       1
 10
0.0
 20
0.0
 30
0.0
  0
VERTEX
  8
Poly_FTE
 10
-23.391000
 20
31.897000
 30
0.0
  0
VERTEX
  8
Poly_FTE
 10
-22.391000
 20
31.897000
 30
0.0
  0
VERTEX
  8
Poly_FTE
 10
-22.391000
 20
27.897000
 30
0.0
  0
VERTEX
  8
Poly_FTE
 10
-23.391000
 20
27.897000
 30
0.0
  0
SEQEND
  8
Poly_FTE
  0
POLYLINE
  8
Poly_FTE
 66
       1
 70
       1
 10
0.0
 20
0.0
 30
0.0
  0
VERTEX
  8
Poly_FTE
 10
-20.391000
 20
31.897000
 30
0.0
  0
VERTEX
  8
Poly_FTE
 10
-19.391000
 20
31.897000
 30
0.0
  0
VERTEX
  8
Poly_FTE
 10
-19.391000
 20
27.897000
 30
0.0
  0
VERTEX
  8
Poly_FTE
 10
-20.391000
 20
27.897000
 30
0.0
  0
SEQEND
  8
Poly_FTE
  0
POLYLINE
  8
Poly_FTE
 66
       1
 70
       1
 10
0.0
 20
0.0
 30
0.0
  0
VERTEX
  8
Poly_FTE
 10
-17.391000
 20
31.897000
 30
0.0
  0
VERTEX
  8
Poly_FTE
 10
-16.391000
 20
31.897000
 30
0.0
  0
VERTEX
  8
Poly_FTE
 10
-16.391000
 20
27.897000
 30
0.0
  0
VERTEX
  8
Poly_FTE
 10
-17.391000
 20
27.897000
 30
0.0
  0
SEQEND
  8
Poly_FTE
  0
POLYLINE
  8
Poly_FTE
 66
       1
 70
       1
 10
0.0
 20
0.0
 30
0.0
  0
VERTEX
  8
Poly_FTE
 10
-14.391000
 20
31.897000
 30
0.0
  0
VERTEX
  8
Poly_FTE
 10
-13.391000
 20
31.897000
 30
0.0
  0
VERTEX
  8
Poly_FTE
 10
-13.391000
 20
27.897000
 30
0.0
  0
VERTEX
  8
Poly_FTE
 10
-14.391000
 20
27.897000
 30
0.0
  0
SEQEND
  8
Poly_FTE
  0
POLYLINE
  8
Poly_FTE
 66
       1
 70
       1
 10
0.0
 20
0.0
 30
0.0
  0
VERTEX
  8
Poly_FTE
 10
-11.391000
 20
31.897000
 30
0.0
  0
VERTEX
  8
Poly_FTE
 10
-10.391000
 20
31.897000
 30
0.0
  0
VERTEX
  8
Poly_FTE
 10
-10.391000
 20
27.897000
 30
0.0
  0
VERTEX
  8
Poly_FTE
 10
-11.391000
 20
27.897000
 30
0.0
  0
SEQEND
  8
Poly_FTE
  0
POLYLINE
  8
Poly_FTE
 66
       1
 70
       1
 10
0.0
 20
0.0
 30
0.0
  0
VERTEX
  8
Poly_FTE
 10
-35.391000
 20
27.147000
 30
0.0
  0
VERTEX
  8
Poly_FTE
 10
-10.391000
 20
27.147000
 30
0.0
  0
VERTEX
  8
Poly_FTE
 10
-10.391000
 20
22.647000
 30
0.0
  0
VERTEX
  8
Poly_FTE
 10
-35.391000
 20
22.647000
 30
0.0
  0
SEQEND
  8
Poly_FTE
  0
POLYLINE
  8
Poly_FTE
 66
       1
 70
       1
 10
0.0
 20
0.0
 30
0.0
  0
VERTEX
  8
Poly_FTE
 10
-23.391000
 20
32.647000
 30
0.0
  0
VERTEX
  8
Poly_FTE
 10
-22.391000
 20
32.647000
 30
0.0
  0
VERTEX
  8
Poly_FTE
 10
-22.391000
 20
31.347000
 30
0.0
  0
VERTEX
  8
Poly_FTE
 10
-23.391000
 20
31.347000
 30
0.0
  0
SEQEND
  8
Poly_FTE
  0
POLYLINE
  8
Poly_FTE
 66
       1
 70
       1
 10
0.0
 20
0.0
 30
0.0
  0
VERTEX
  8
Poly_FTE
 10
-26.391000
 20
32.647000
 30
0.0
  0
VERTEX
  8
Poly_FTE
 10
-25.391000
 20
32.647000
 30
0.0
  0
VERTEX
  8
Poly_FTE
 10
-25.391000
 20
31.347000
 30
0.0
  0
VERTEX
  8
Poly_FTE
 10
-26.391000
 20
31.347000
 30
0.0
  0
SEQEND
  8
Poly_FTE
  0
POLYLINE
  8
Poly_FTE
 66
       1
 70
       1
 10
0.0
 20
0.0
 30
0.0
  0
VERTEX
  8
Poly_FTE
 10
-29.391000
 20
32.647000
 30
0.0
  0
VERTEX
  8
Poly_FTE
 10
-28.391000
 20
32.647000
 30
0.0
  0
VERTEX
  8
Poly_FTE
 10
-28.391000
 20
31.347000
 30
0.0
  0
VERTEX
  8
Poly_FTE
 10
-29.391000
 20
31.347000
 30
0.0
  0
SEQEND
  8
Poly_FTE
  0
POLYLINE
  8
Poly_FTE
 66
       1
 70
       1
 10
0.0
 20
0.0
 30
0.0
  0
VERTEX
  8
Poly_FTE
 10
-32.391000
 20
32.647000
 30
0.0
  0
VERTEX
  8
Poly_FTE
 10
-31.391000
 20
32.647000
 30
0.0
  0
VERTEX
  8
Poly_FTE
 10
-31.391000
 20
31.347000
 30
0.0
  0
VERTEX
  8
Poly_FTE
 10
-32.391000
 20
31.347000
 30
0.0
  0
SEQEND
  8
Poly_FTE
  0
POLYLINE
  8
Poly_FTE
 66
       1
 70
       1
 10
0.0
 20
0.0
 30
0.0
  0
VERTEX
  8
Poly_FTE
 10
-35.391000
 20
32.647000
 30
0.0
  0
VERTEX
  8
Poly_FTE
 10
-34.391000
 20
32.647000
 30
0.0
  0
VERTEX
  8
Poly_FTE
 10
-34.391000
 20
31.347000
 30
0.0
  0
VERTEX
  8
Poly_FTE
 10
-35.391000
 20
31.347000
 30
0.0
  0
SEQEND
  8
Poly_FTE
  0
POLYLINE
  8
Poly_FTE
 66
       1
 70
       1
 10
0.0
 20
0.0
 30
0.0
  0
VERTEX
  8
Poly_FTE
 10
-11.391000
 20
32.647000
 30
0.0
  0
VERTEX
  8
Poly_FTE
 10
-10.391000
 20
32.647000
 30
0.0
  0
VERTEX
  8
Poly_FTE
 10
-10.391000
 20
31.347000
 30
0.0
  0
VERTEX
  8
Poly_FTE
 10
-11.391000
 20
31.347000
 30
0.0
  0
SEQEND
  8
Poly_FTE
  0
POLYLINE
  8
Poly_FTE
 66
       1
 70
       1
 10
0.0
 20
0.0
 30
0.0
  0
VERTEX
  8
Poly_FTE
 10
-14.391000
 20
32.647000
 30
0.0
  0
VERTEX
  8
Poly_FTE
 10
-13.391000
 20
32.647000
 30
0.0
  0
VERTEX
  8
Poly_FTE
 10
-13.391000
 20
31.347000
 30
0.0
  0
VERTEX
  8
Poly_FTE
 10
-14.391000
 20
31.347000
 30
0.0
  0
SEQEND
  8
Poly_FTE
  0
POLYLINE
  8
Poly_FTE
 66
       1
 70
       1
 10
0.0
 20
0.0
 30
0.0
  0
VERTEX
  8
Poly_FTE
 10
-17.391000
 20
32.647000
 30
0.0
  0
VERTEX
  8
Poly_FTE
 10
-16.391000
 20
32.647000
 30
0.0
  0
VERTEX
  8
Poly_FTE
 10
-16.391000
 20
31.347000
 30
0.0
  0
VERTEX
  8
Poly_FTE
 10
-17.391000
 20
31.347000
 30
0.0
  0
SEQEND
  8
Poly_FTE
  0
POLYLINE
  8
Poly_FTE
 66
       1
 70
       1
 10
0.0
 20
0.0
 30
0.0
  0
VERTEX
  8
Poly_FTE
 10
-20.391000
 20
32.647000
 30
0.0
  0
VERTEX
  8
Poly_FTE
 10
-19.391000
 20
32.647000
 30
0.0
  0
VERTEX
  8
Poly_FTE
 10
-19.391000
 20
31.347000
 30
0.0
  0
VERTEX
  8
Poly_FTE
 10
-20.391000
 20
31.347000
 30
0.0
  0
SEQEND
  8
Poly_FTE
  0
POLYLINE
  8
Poly_PTE
 66
       1
 70
       1
 10
0.0
 20
0.0
 30
0.0
  0
VERTEX
  8
Poly_PTE
 10
-35.891000
 20
33.147000
 30
0.0
  0
VERTEX
  8
Poly_PTE
 10
-9.891000
 20
33.147000
 30
0.0
  0
VERTEX
  8
Poly_PTE
 10
-9.891000
 20
22.147000
 30
0.0
  0
VERTEX
  8
Poly_PTE
 10
-35.891000
 20
22.147000
 30
0.0
  0
SEQEND
  8
Poly_PTE
  0
POLYLINE
  8
Oxide_FTE_drawing
 66
       1
 70
       1
 10
0.0
 20
0.0
 30
0.0
  0
VERTEX
  8
Oxide_FTE_drawing
 10
-34.891000
 20
26.647000
 30
0.0
  0
VERTEX
  8
Oxide_FTE_drawing
 10
-10.891000
 20
26.647000
 30
0.0
  0
VERTEX
  8
Oxide_FTE_drawing
 10
-10.891000
 20
23.147000
 30
0.0
  0
VERTEX
  8
Oxide_FTE_drawing
 10
-34.891000
 20
23.147000
 30
0.0
  0
SEQEND
  8
Oxide_FTE_drawing
  0
CIRCLE
  8
Oxide_PTE_drawing
 10
-10.891000
 20
29.897000
 40
0.300000
  0
CIRCLE
  8
Oxide_PTE_drawing
 10
-13.891000
 20
29.897000
 40
0.300000
  0
CIRCLE
  8
Oxide_PTE_drawing
 10
-16.891000
 20
29.897000
 40
0.300000
  0
CIRCLE
  8
Oxide_PTE_drawing
 10
-19.891000
 20
29.897000
 40
0.300000
  0
CIRCLE
  8
Oxide_PTE_drawing
 10
-22.891000
 20
29.897000
 40
0.300000
  0
CIRCLE
  8
Oxide_PTE_drawing
 10
-25.891000
 20
29.897000
 40
0.300000
  0
CIRCLE
  8
Oxide_PTE_drawing
 10
-28.891000
 20
29.897000
 40
0.300000
  0
CIRCLE
  8
Oxide_PTE_drawing
 10
-31.891000
 20
29.897000
 40
0.300000
  0
CIRCLE
  8
Oxide_PTE_drawing
 10
-34.891000
 20
29.897000
 40
0.300000
  0
POLYLINE
  8
Poly_FTE
 66
       1
 70
       1
 10
0.0
 20
0.0
 30
0.0
  0
VERTEX
  8
Poly_FTE
 10
-7.891000
 20
32.647000
 30
0.0
  0
VERTEX
  8
Poly_FTE
 10
37.953000
 20
32.647000
 30
0.0
  0
VERTEX
  8
Poly_FTE
 10
37.953000
 20
36.647000
 30
0.0
  0
VERTEX
  8
Poly_FTE
 10
-7.891000
 20
36.647000
 30
0.0
  0
SEQEND
  8
Poly_FTE
  0
POLYLINE
  8
Poly_PTE
 66
       1
 70
       1
 10
0.0
 20
0.0
 30
0.0
  0
VERTEX
  8
Poly_PTE
 10
-7.891000
 20
34.147000
 30
0.0
  0
VERTEX
  8
Poly_PTE
 10
37.953000
 20
34.147000
 30
0.0
  0
VERTEX
  8
Poly_PTE
 10
37.953000
 20
35.147000
 30
0.0
  0
VERTEX
  8
Poly_PTE
 10
-7.891000
 20
35.147000
 30
0.0
  0
SEQEND
  8
Poly_PTE
  0
ENDSEC
  0
EOF
