  0
SECTION
  2
HEADER
  9
$ACADVER
  1
AC1009
999
L-Edit DXF writer Version 2016.2
  9
$PLINEWID
 40
10.000000
  9
$EXTMIN
 10
-38.091000
 20
-31.525000
 30
0.0
  9
$EXTMAX
 10
42.484000
 20
39.075000
 30
0.0
  0
ENDSEC
  0
SECTION
  2
TABLES
  0
TABLE
  2
LTYPE
 70
       1
  0
LTYPE
  2
CONTINUOUS
 70
      64
  3
CONTINUOUS
 72
      65
 73
       0
 40
0.0
  0
ENDTAB
  0
TABLE
  2
LAYER
 70
       3
  0
LAYER
  2
0
 70
      64
  6
CONTINUOUS
 62
       7
  0
LAYER
  2
Poly_FTE
 70
       0
  6
CONTINUOUS
 62
       7
  0
LAYER
  2
Poly_PTE
 70
       0
  6
CONTINUOUS
 62
       7
  0
ENDTAB
  0
ENDSEC
  0
SECTION
  2
BLOCKS
  0
BLOCK
  2
CouplerInlet
  3
CouplerInlet
  8
0
 67
       0
 70
       0
 10
0.0
 20
0.0
 30
0.0
  0
POLYLINE
  8
Poly_FTE
 66
       1
 70
       1
 10
0.0
 20
0.0
 30
0.0
  0
VERTEX
  8
Poly_FTE
 10
-33.954000
 20
45.646000
 30
0.0
  0
VERTEX
  8
Poly_FTE
 10
-3.954000
 20
45.646000
 30
0.0
  0
VERTEX
  8
Poly_FTE
 10
-3.954000
 20
49.646000
 30
0.0
  0
VERTEX
  8
Poly_FTE
 10
-33.954000
 20
49.646000
 30
0.0
  0
SEQEND
  8
Poly_FTE
  0
POLYLINE
  8
Poly_PTE
 66
       1
 70
       1
 10
0.0
 20
0.0
 30
0.0
  0
VERTEX
  8
Poly_PTE
 10
-33.954000
 20
47.721000
 30
0.0
  0
VERTEX
  8
Poly_PTE
 10
-3.954000
 20
48.146000
 30
0.0
  0
VERTEX
  8
Poly_PTE
 10
-3.954000
 20
47.146000
 30
0.0
  0
VERTEX
  8
Poly_PTE
 10
-33.954000
 20
47.571000
 30
0.0
  0
SEQEND
  8
Poly_PTE
  0
ENDBLK
  0
BLOCK
  2
AnchoredCouplerInlet_woCo61857
  3
AnchoredCouplerInlet_woCo61857
  8
0
 67
       0
 70
       0
 10
0.0
 20
0.0
 30
0.0
  0
POLYLINE
  8
Poly_FTE
 66
       1
 70
       1
 10
0.0
 20
0.0
 30
0.0
  0
VERTEX
  8
Poly_FTE
 10
16.500000
 20
9.075000
 30
0.0
  0
VERTEX
  8
Poly_FTE
 10
17.500000
 20
9.075000
 30
0.0
  0
VERTEX
  8
Poly_FTE
 10
17.500000
 20
22.075000
 30
0.0
  0
VERTEX
  8
Poly_FTE
 10
16.500000
 20
22.075000
 30
0.0
  0
SEQEND
  8
Poly_FTE
  0
POLYLINE
  8
Poly_FTE
 66
       1
 70
       1
 10
0.0
 20
0.0
 30
0.0
  0
VERTEX
  8
Poly_FTE
 10
16.500000
 20
26.075000
 30
0.0
  0
VERTEX
  8
Poly_FTE
 10
17.500000
 20
26.075000
 30
0.0
  0
VERTEX
  8
Poly_FTE
 10
17.500000
 20
39.075000
 30
0.0
  0
VERTEX
  8
Poly_FTE
 10
16.500000
 20
39.075000
 30
0.0
  0
SEQEND
  8
Poly_FTE
  0
POLYLINE
  8
Poly_FTE
 66
       1
 70
       1
 10
0.0
 20
0.0
 30
0.0
  0
VERTEX
  8
Poly_FTE
 10
45.500000
 20
9.075000
 30
0.0
  0
VERTEX
  8
Poly_FTE
 10
46.500000
 20
9.075000
 30
0.0
  0
VERTEX
  8
Poly_FTE
 10
46.500000
 20
22.075000
 30
0.0
  0
VERTEX
  8
Poly_FTE
 10
45.500000
 20
22.075000
 30
0.0
  0
SEQEND
  8
Poly_FTE
  0
POLYLINE
  8
Poly_FTE
 66
       1
 70
       1
 10
0.0
 20
0.0
 30
0.0
  0
VERTEX
  8
Poly_FTE
 10
45.500000
 20
26.075000
 30
0.0
  0
VERTEX
  8
Poly_FTE
 10
46.500000
 20
26.075000
 30
0.0
  0
VERTEX
  8
Poly_FTE
 10
46.500000
 20
39.075000
 30
0.0
  0
VERTEX
  8
Poly_FTE
 10
45.500000
 20
39.075000
 30
0.0
  0
SEQEND
  8
Poly_FTE
  0
INSERT
  8
0
  2
CouplerInlet
 10
50.454000
 20
-23.571000
 30
0.0
  0
ENDBLK
  0
BLOCK
  2
Comb_L4W1_G500_D500_Stopp82907
  3
Comb_L4W1_G500_D500_Stopp82907
  8
0
 67
       0
 70
       0
 10
0.0
 20
0.0
 30
0.0
  0
POLYLINE
  8
Poly_FTE
 66
       1
 70
       1
 10
0.0
 20
0.0
 30
0.0
  0
VERTEX
  8
Poly_FTE
 10
19.000000
 20
19.075000
 30
0.0
  0
VERTEX
  8
Poly_FTE
 10
44.000000
 20
19.075000
 30
0.0
  0
VERTEX
  8
Poly_FTE
 10
44.000000
 20
19.825000
 30
0.0
  0
VERTEX
  8
Poly_FTE
 10
19.000000
 20
19.825000
 30
0.0
  0
SEQEND
  8
Poly_FTE
  0
POLYLINE
  8
Poly_FTE
 66
       1
 70
       1
 10
0.0
 20
0.0
 30
0.0
  0
VERTEX
  8
Poly_FTE
 10
19.000000
 20
19.825000
 30
0.0
  0
VERTEX
  8
Poly_FTE
 10
20.000000
 20
19.825000
 30
0.0
  0
VERTEX
  8
Poly_FTE
 10
20.000000
 20
23.825000
 30
0.0
  0
VERTEX
  8
Poly_FTE
 10
19.000000
 20
23.825000
 30
0.0
  0
SEQEND
  8
Poly_FTE
  0
POLYLINE
  8
Poly_FTE
 66
       1
 70
       1
 10
0.0
 20
0.0
 30
0.0
  0
VERTEX
  8
Poly_FTE
 10
22.000000
 20
19.825000
 30
0.0
  0
VERTEX
  8
Poly_FTE
 10
23.000000
 20
19.825000
 30
0.0
  0
VERTEX
  8
Poly_FTE
 10
23.000000
 20
23.825000
 30
0.0
  0
VERTEX
  8
Poly_FTE
 10
22.000000
 20
23.825000
 30
0.0
  0
SEQEND
  8
Poly_FTE
  0
POLYLINE
  8
Poly_FTE
 66
       1
 70
       1
 10
0.0
 20
0.0
 30
0.0
  0
VERTEX
  8
Poly_FTE
 10
25.000000
 20
19.825000
 30
0.0
  0
VERTEX
  8
Poly_FTE
 10
26.000000
 20
19.825000
 30
0.0
  0
VERTEX
  8
Poly_FTE
 10
26.000000
 20
23.825000
 30
0.0
  0
VERTEX
  8
Poly_FTE
 10
25.000000
 20
23.825000
 30
0.0
  0
SEQEND
  8
Poly_FTE
  0
POLYLINE
  8
Poly_FTE
 66
       1
 70
       1
 10
0.0
 20
0.0
 30
0.0
  0
VERTEX
  8
Poly_FTE
 10
28.000000
 20
19.825000
 30
0.0
  0
VERTEX
  8
Poly_FTE
 10
29.000000
 20
19.825000
 30
0.0
  0
VERTEX
  8
Poly_FTE
 10
29.000000
 20
23.825000
 30
0.0
  0
VERTEX
  8
Poly_FTE
 10
28.000000
 20
23.825000
 30
0.0
  0
SEQEND
  8
Poly_FTE
  0
POLYLINE
  8
Poly_FTE
 66
       1
 70
       1
 10
0.0
 20
0.0
 30
0.0
  0
VERTEX
  8
Poly_FTE
 10
31.000000
 20
19.825000
 30
0.0
  0
VERTEX
  8
Poly_FTE
 10
32.000000
 20
19.825000
 30
0.0
  0
VERTEX
  8
Poly_FTE
 10
32.000000
 20
23.825000
 30
0.0
  0
VERTEX
  8
Poly_FTE
 10
31.000000
 20
23.825000
 30
0.0
  0
SEQEND
  8
Poly_FTE
  0
POLYLINE
  8
Poly_FTE
 66
       1
 70
       1
 10
0.0
 20
0.0
 30
0.0
  0
VERTEX
  8
Poly_FTE
 10
34.000000
 20
19.825000
 30
0.0
  0
VERTEX
  8
Poly_FTE
 10
35.000000
 20
19.825000
 30
0.0
  0
VERTEX
  8
Poly_FTE
 10
35.000000
 20
23.825000
 30
0.0
  0
VERTEX
  8
Poly_FTE
 10
34.000000
 20
23.825000
 30
0.0
  0
SEQEND
  8
Poly_FTE
  0
POLYLINE
  8
Poly_FTE
 66
       1
 70
       1
 10
0.0
 20
0.0
 30
0.0
  0
VERTEX
  8
Poly_FTE
 10
37.000000
 20
19.825000
 30
0.0
  0
VERTEX
  8
Poly_FTE
 10
38.000000
 20
19.825000
 30
0.0
  0
VERTEX
  8
Poly_FTE
 10
38.000000
 20
23.825000
 30
0.0
  0
VERTEX
  8
Poly_FTE
 10
37.000000
 20
23.825000
 30
0.0
  0
SEQEND
  8
Poly_FTE
  0
POLYLINE
  8
Poly_FTE
 66
       1
 70
       1
 10
0.0
 20
0.0
 30
0.0
  0
VERTEX
  8
Poly_FTE
 10
40.000000
 20
19.825000
 30
0.0
  0
VERTEX
  8
Poly_FTE
 10
41.000000
 20
19.825000
 30
0.0
  0
VERTEX
  8
Poly_FTE
 10
41.000000
 20
23.825000
 30
0.0
  0
VERTEX
  8
Poly_FTE
 10
40.000000
 20
23.825000
 30
0.0
  0
SEQEND
  8
Poly_FTE
  0
POLYLINE
  8
Poly_FTE
 66
       1
 70
       1
 10
0.0
 20
0.0
 30
0.0
  0
VERTEX
  8
Poly_FTE
 10
43.000000
 20
19.825000
 30
0.0
  0
VERTEX
  8
Poly_FTE
 10
44.000000
 20
19.825000
 30
0.0
  0
VERTEX
  8
Poly_FTE
 10
44.000000
 20
23.825000
 30
0.0
  0
VERTEX
  8
Poly_FTE
 10
43.000000
 20
23.825000
 30
0.0
  0
SEQEND
  8
Poly_FTE
  0
POLYLINE
  8
Poly_FTE
 66
       1
 70
       1
 10
0.0
 20
0.0
 30
0.0
  0
VERTEX
  8
Poly_FTE
 10
31.000000
 20
19.075000
 30
0.0
  0
VERTEX
  8
Poly_FTE
 10
32.000000
 20
19.075000
 30
0.0
  0
VERTEX
  8
Poly_FTE
 10
32.000000
 20
20.375000
 30
0.0
  0
VERTEX
  8
Poly_FTE
 10
31.000000
 20
20.375000
 30
0.0
  0
SEQEND
  8
Poly_FTE
  0
POLYLINE
  8
Poly_FTE
 66
       1
 70
       1
 10
0.0
 20
0.0
 30
0.0
  0
VERTEX
  8
Poly_FTE
 10
28.000000
 20
19.075000
 30
0.0
  0
VERTEX
  8
Poly_FTE
 10
29.000000
 20
19.075000
 30
0.0
  0
VERTEX
  8
Poly_FTE
 10
29.000000
 20
20.375000
 30
0.0
  0
VERTEX
  8
Poly_FTE
 10
28.000000
 20
20.375000
 30
0.0
  0
SEQEND
  8
Poly_FTE
  0
POLYLINE
  8
Poly_FTE
 66
       1
 70
       1
 10
0.0
 20
0.0
 30
0.0
  0
VERTEX
  8
Poly_FTE
 10
25.000000
 20
19.075000
 30
0.0
  0
VERTEX
  8
Poly_FTE
 10
26.000000
 20
19.075000
 30
0.0
  0
VERTEX
  8
Poly_FTE
 10
26.000000
 20
20.375000
 30
0.0
  0
VERTEX
  8
Poly_FTE
 10
25.000000
 20
20.375000
 30
0.0
  0
SEQEND
  8
Poly_FTE
  0
POLYLINE
  8
Poly_FTE
 66
       1
 70
       1
 10
0.0
 20
0.0
 30
0.0
  0
VERTEX
  8
Poly_FTE
 10
22.000000
 20
19.075000
 30
0.0
  0
VERTEX
  8
Poly_FTE
 10
23.000000
 20
19.075000
 30
0.0
  0
VERTEX
  8
Poly_FTE
 10
23.000000
 20
20.375000
 30
0.0
  0
VERTEX
  8
Poly_FTE
 10
22.000000
 20
20.375000
 30
0.0
  0
SEQEND
  8
Poly_FTE
  0
POLYLINE
  8
Poly_FTE
 66
       1
 70
       1
 10
0.0
 20
0.0
 30
0.0
  0
VERTEX
  8
Poly_FTE
 10
19.000000
 20
19.075000
 30
0.0
  0
VERTEX
  8
Poly_FTE
 10
20.000000
 20
19.075000
 30
0.0
  0
VERTEX
  8
Poly_FTE
 10
20.000000
 20
20.375000
 30
0.0
  0
VERTEX
  8
Poly_FTE
 10
19.000000
 20
20.375000
 30
0.0
  0
SEQEND
  8
Poly_FTE
  0
POLYLINE
  8
Poly_FTE
 66
       1
 70
       1
 10
0.0
 20
0.0
 30
0.0
  0
VERTEX
  8
Poly_FTE
 10
43.000000
 20
19.075000
 30
0.0
  0
VERTEX
  8
Poly_FTE
 10
44.000000
 20
19.075000
 30
0.0
  0
VERTEX
  8
Poly_FTE
 10
44.000000
 20
20.375000
 30
0.0
  0
VERTEX
  8
Poly_FTE
 10
43.000000
 20
20.375000
 30
0.0
  0
SEQEND
  8
Poly_FTE
  0
POLYLINE
  8
Poly_FTE
 66
       1
 70
       1
 10
0.0
 20
0.0
 30
0.0
  0
VERTEX
  8
Poly_FTE
 10
40.000000
 20
19.075000
 30
0.0
  0
VERTEX
  8
Poly_FTE
 10
41.000000
 20
19.075000
 30
0.0
  0
VERTEX
  8
Poly_FTE
 10
41.000000
 20
20.375000
 30
0.0
  0
VERTEX
  8
Poly_FTE
 10
40.000000
 20
20.375000
 30
0.0
  0
SEQEND
  8
Poly_FTE
  0
POLYLINE
  8
Poly_FTE
 66
       1
 70
       1
 10
0.0
 20
0.0
 30
0.0
  0
VERTEX
  8
Poly_FTE
 10
37.000000
 20
19.075000
 30
0.0
  0
VERTEX
  8
Poly_FTE
 10
38.000000
 20
19.075000
 30
0.0
  0
VERTEX
  8
Poly_FTE
 10
38.000000
 20
20.375000
 30
0.0
  0
VERTEX
  8
Poly_FTE
 10
37.000000
 20
20.375000
 30
0.0
  0
SEQEND
  8
Poly_FTE
  0
POLYLINE
  8
Poly_FTE
 66
       1
 70
       1
 10
0.0
 20
0.0
 30
0.0
  0
VERTEX
  8
Poly_FTE
 10
34.000000
 20
19.075000
 30
0.0
  0
VERTEX
  8
Poly_FTE
 10
35.000000
 20
19.075000
 30
0.0
  0
VERTEX
  8
Poly_FTE
 10
35.000000
 20
20.375000
 30
0.0
  0
VERTEX
  8
Poly_FTE
 10
34.000000
 20
20.375000
 30
0.0
  0
SEQEND
  8
Poly_FTE
  0
ENDBLK
  0
BLOCK
  2
Actuator_StoppersCenter_Export
  3
Actuator_StoppersCenter_Export
  8
0
 67
       0
 70
       0
 10
0.0
 20
0.0
 30
0.0
  0
INSERT
  8
0
  2
AnchoredCouplerInlet_woCo61857
 10
45.412000
 20
-2.987000
 30
0.0
  0
INSERT
  8
0
  2
Comb_L4W1_G500_D500_Stopp82907
 10
108.412000
 20
38.163000
 30
0.0
 50
180.000000
  0
INSERT
  8
0
  2
Comb_L4W1_G500_D500_Stopp82907
 10
45.412000
 20
4.013000
 30
0.0
  0
ENDBLK
  0
BLOCK
  2
SineCircSine180_0p6_R018262128
  3
SineCircSine180_0p6_R018262128
  8
0
 67
       0
 70
       0
 10
0.0
 20
0.0
 30
0.0
  0
POLYLINE
  8
Poly_FTE
 66
       1
 70
       0
 10
0.0
 20
0.0
 30
0.0
  0
VERTEX
  8
Poly_FTE
 10
-20.300000
 20
-30.300000
 30
0.0
 40
4.000000
 41
4.000000
  0
VERTEX
  8
Poly_FTE
 10
-20.300000
 20
-18.677000
 30
0.0
 40
4.000000
 41
4.000000
  0
VERTEX
  8
Poly_FTE
 10
-20.299000
 20
-18.136000
 30
0.0
 40
4.000000
 41
4.000000
  0
VERTEX
  8
Poly_FTE
 10
-20.298000
 20
-17.596000
 30
0.0
 40
4.000000
 41
4.000000
  0
VERTEX
  8
Poly_FTE
 10
-20.296000
 20
-17.056000
 30
0.0
 40
4.000000
 41
4.000000
  0
VERTEX
  8
Poly_FTE
 10
-20.290000
 20
-15.980000
 30
0.0
 40
4.000000
 41
4.000000
  0
VERTEX
  8
Poly_FTE
 10
-20.286000
 20
-15.442000
 30
0.0
 40
4.000000
 41
4.000000
  0
VERTEX
  8
Poly_FTE
 10
-20.280000
 20
-14.906000
 30
0.0
 40
4.000000
 41
4.000000
  0
VERTEX
  8
Poly_FTE
 10
-20.274000
 20
-14.372000
 30
0.0
 40
4.000000
 41
4.000000
  0
VERTEX
  8
Poly_FTE
 10
-20.266000
 20
-13.838000
 30
0.0
 40
4.000000
 41
4.000000
  0
VERTEX
  8
Poly_FTE
 10
-20.257000
 20
-13.306000
 30
0.0
 40
4.000000
 41
4.000000
  0
VERTEX
  8
Poly_FTE
 10
-20.246000
 20
-12.775000
 30
0.0
 40
4.000000
 41
4.000000
  0
VERTEX
  8
Poly_FTE
 10
-20.234000
 20
-12.247000
 30
0.0
 40
4.000000
 41
4.000000
  0
VERTEX
  8
Poly_FTE
 10
-20.219000
 20
-11.719000
 30
0.0
 40
4.000000
 41
4.000000
  0
VERTEX
  8
Poly_FTE
 10
-20.203000
 20
-11.194000
 30
0.0
 40
4.000000
 41
4.000000
  0
VERTEX
  8
Poly_FTE
 10
-20.186000
 20
-10.671000
 30
0.0
 40
4.000000
 41
4.000000
  0
VERTEX
  8
Poly_FTE
 10
-20.165000
 20
-10.149000
 30
0.0
 40
4.000000
 41
4.000000
  0
VERTEX
  8
Poly_FTE
 10
-20.143000
 20
-9.630000
 30
0.0
 40
4.000000
 41
4.000000
  0
VERTEX
  8
Poly_FTE
 10
-20.119000
 20
-9.114000
 30
0.0
 40
4.000000
 41
4.000000
  0
VERTEX
  8
Poly_FTE
 10
-20.092000
 20
-8.599000
 30
0.0
 40
4.000000
 41
4.000000
  0
VERTEX
  8
Poly_FTE
 10
-20.062000
 20
-8.087000
 30
0.0
 40
4.000000
 41
4.000000
  0
VERTEX
  8
Poly_FTE
 10
-20.030000
 20
-7.578000
 30
0.0
 40
4.000000
 41
4.000000
  0
VERTEX
  8
Poly_FTE
 10
-19.995000
 20
-7.072000
 30
0.0
 40
4.000000
 41
4.000000
  0
VERTEX
  8
Poly_FTE
 10
-19.957000
 20
-6.568000
 30
0.0
 40
4.000000
 41
4.000000
  0
VERTEX
  8
Poly_FTE
 10
-19.917000
 20
-6.067000
 30
0.0
 40
4.000000
 41
4.000000
  0
VERTEX
  8
Poly_FTE
 10
-19.873000
 20
-5.570000
 30
0.0
 40
4.000000
 41
4.000000
  0
VERTEX
  8
Poly_FTE
 10
-19.826000
 20
-5.075000
 30
0.0
 40
4.000000
 41
4.000000
  0
VERTEX
  8
Poly_FTE
 10
-19.776000
 20
-4.584000
 30
0.0
 40
4.000000
 41
4.000000
  0
VERTEX
  8
Poly_FTE
 10
-19.723000
 20
-4.096000
 30
0.0
 40
4.000000
 41
4.000000
  0
VERTEX
  8
Poly_FTE
 10
-19.666000
 20
-3.611000
 30
0.0
 40
4.000000
 41
4.000000
  0
VERTEX
  8
Poly_FTE
 10
-19.606000
 20
-3.130000
 30
0.0
 40
4.000000
 41
4.000000
  0
VERTEX
  8
Poly_FTE
 10
-19.542000
 20
-2.653000
 30
0.0
 40
4.000000
 41
4.000000
  0
VERTEX
  8
Poly_FTE
 10
-19.474000
 20
-2.179000
 30
0.0
 40
4.000000
 41
4.000000
  0
VERTEX
  8
Poly_FTE
 10
-19.403000
 20
-1.709000
 30
0.0
 40
4.000000
 41
4.000000
  0
VERTEX
  8
Poly_FTE
 10
-19.327000
 20
-1.243000
 30
0.0
 40
4.000000
 41
4.000000
  0
VERTEX
  8
Poly_FTE
 10
-19.248000
 20
-0.781000
 30
0.0
 40
4.000000
 41
4.000000
  0
VERTEX
  8
Poly_FTE
 10
-19.165000
 20
-0.323000
 30
0.0
 40
4.000000
 41
4.000000
  0
VERTEX
  8
Poly_FTE
 10
-19.077000
 20
0.131000
 30
0.0
 40
4.000000
 41
4.000000
  0
VERTEX
  8
Poly_FTE
 10
-18.986000
 20
0.580000
 30
0.0
 40
4.000000
 41
4.000000
  0
VERTEX
  8
Poly_FTE
 10
-18.890000
 20
1.026000
 30
0.0
 40
4.000000
 41
4.000000
  0
VERTEX
  8
Poly_FTE
 10
-18.789000
 20
1.467000
 30
0.0
 40
4.000000
 41
4.000000
  0
VERTEX
  8
Poly_FTE
 10
-18.685000
 20
1.903000
 30
0.0
 40
4.000000
 41
4.000000
  0
VERTEX
  8
Poly_FTE
 10
-18.575000
 20
2.335000
 30
0.0
 40
4.000000
 41
4.000000
  0
VERTEX
  8
Poly_FTE
 10
-18.461000
 20
2.763000
 30
0.0
 40
4.000000
 41
4.000000
  0
VERTEX
  8
Poly_FTE
 10
-18.343000
 20
3.186000
 30
0.0
 40
4.000000
 41
4.000000
  0
VERTEX
  8
Poly_FTE
 10
-18.220000
 20
3.604000
 30
0.0
 40
4.000000
 41
4.000000
  0
VERTEX
  8
Poly_FTE
 10
-18.092000
 20
4.017000
 30
0.0
 40
4.000000
 41
4.000000
  0
VERTEX
  8
Poly_FTE
 10
-17.959000
 20
4.425000
 30
0.0
 40
4.000000
 41
4.000000
  0
VERTEX
  8
Poly_FTE
 10
-17.821000
 20
4.829000
 30
0.0
 40
4.000000
 41
4.000000
  0
VERTEX
  8
Poly_FTE
 10
-17.678000
 20
5.227000
 30
0.0
 40
4.000000
 41
4.000000
  0
VERTEX
  8
Poly_FTE
 10
-17.530000
 20
5.621000
 30
0.0
 40
4.000000
 41
4.000000
  0
VERTEX
  8
Poly_FTE
 10
-17.377000
 20
6.009000
 30
0.0
 40
4.000000
 41
4.000000
  0
VERTEX
  8
Poly_FTE
 10
-17.220000
 20
6.393000
 30
0.0
 40
4.000000
 41
4.000000
  0
VERTEX
  8
Poly_FTE
 10
-17.056000
 20
6.771000
 30
0.0
 40
4.000000
 41
4.000000
  0
VERTEX
  8
Poly_FTE
 10
-16.888000
 20
7.144000
 30
0.0
 40
4.000000
 41
4.000000
  0
VERTEX
  8
Poly_FTE
 10
-16.714000
 20
7.512000
 30
0.0
 40
4.000000
 41
4.000000
  0
VERTEX
  8
Poly_FTE
 10
-16.535000
 20
7.874000
 30
0.0
 40
4.000000
 41
4.000000
  0
VERTEX
  8
Poly_FTE
 10
-16.351000
 20
8.231000
 30
0.0
 40
4.000000
 41
4.000000
  0
VERTEX
  8
Poly_FTE
 10
-16.161000
 20
8.583000
 30
0.0
 40
4.000000
 41
4.000000
  0
VERTEX
  8
Poly_FTE
 10
-15.966000
 20
8.929000
 30
0.0
 40
4.000000
 41
4.000000
  0
VERTEX
  8
Poly_FTE
 10
-15.765000
 20
9.269000
 30
0.0
 40
4.000000
 41
4.000000
  0
VERTEX
  8
Poly_FTE
 10
-15.559000
 20
9.605000
 30
0.0
 40
4.000000
 41
4.000000
  0
VERTEX
  8
Poly_FTE
 10
-15.348000
 20
9.934000
 30
0.0
 40
4.000000
 41
4.000000
  0
VERTEX
  8
Poly_FTE
 10
-15.131000
 20
10.259000
 30
0.0
 40
4.000000
 41
4.000000
  0
VERTEX
  8
Poly_FTE
 10
-14.908000
 20
10.577000
 30
0.0
 40
4.000000
 41
4.000000
  0
VERTEX
  8
Poly_FTE
 10
-14.679000
 20
10.890000
 30
0.0
 40
4.000000
 41
4.000000
  0
VERTEX
  8
Poly_FTE
 10
-14.446000
 20
11.198000
 30
0.0
 40
4.000000
 41
4.000000
  0
VERTEX
  8
Poly_FTE
 10
-14.206000
 20
11.499000
 30
0.0
 40
4.000000
 41
4.000000
  0
VERTEX
  8
Poly_FTE
 10
-13.961000
 20
11.795000
 30
0.0
 40
4.000000
 41
4.000000
  0
VERTEX
  8
Poly_FTE
 10
-13.710000
 20
12.086000
 30
0.0
 40
4.000000
 41
4.000000
  0
VERTEX
  8
Poly_FTE
 10
-13.453000
 20
12.371000
 30
0.0
 40
4.000000
 41
4.000000
  0
VERTEX
  8
Poly_FTE
 10
-13.191000
 20
12.650000
 30
0.0
 40
4.000000
 41
4.000000
  0
VERTEX
  8
Poly_FTE
 10
-12.923000
 20
12.923000
 30
0.0
 40
4.000000
 41
4.000000
  0
VERTEX
  8
Poly_FTE
 10
-12.650000
 20
13.191000
 30
0.0
 40
4.000000
 41
4.000000
  0
VERTEX
  8
Poly_FTE
 10
-12.371000
 20
13.453000
 30
0.0
 40
4.000000
 41
4.000000
  0
VERTEX
  8
Poly_FTE
 10
-12.086000
 20
13.709000
 30
0.0
 40
4.000000
 41
4.000000
  0
VERTEX
  8
Poly_FTE
 10
-11.797000
 20
13.960000
 30
0.0
 40
4.000000
 41
4.000000
  0
VERTEX
  8
Poly_FTE
 10
-11.502000
 20
14.204000
 30
0.0
 40
4.000000
 41
4.000000
  0
VERTEX
  8
Poly_FTE
 10
-11.202000
 20
14.441000
 30
0.0
 40
4.000000
 41
4.000000
  0
VERTEX
  8
Poly_FTE
 10
-10.897000
 20
14.673000
 30
0.0
 40
4.000000
 41
4.000000
  0
VERTEX
  8
Poly_FTE
 10
-10.587000
 20
14.898000
 30
0.0
 40
4.000000
 41
4.000000
  0
VERTEX
  8
Poly_FTE
 10
-10.273000
 20
15.116000
 30
0.0
 40
4.000000
 41
4.000000
  0
VERTEX
  8
Poly_FTE
 10
-9.954000
 20
15.328000
 30
0.0
 40
4.000000
 41
4.000000
  0
VERTEX
  8
Poly_FTE
 10
-9.631000
 20
15.533000
 30
0.0
 40
4.000000
 41
4.000000
  0
VERTEX
  8
Poly_FTE
 10
-9.303000
 20
15.731000
 30
0.0
 40
4.000000
 41
4.000000
  0
VERTEX
  8
Poly_FTE
 10
-8.972000
 20
15.923000
 30
0.0
 40
4.000000
 41
4.000000
  0
VERTEX
  8
Poly_FTE
 10
-8.637000
 20
16.107000
 30
0.0
 40
4.000000
 41
4.000000
  0
VERTEX
  8
Poly_FTE
 10
-8.297000
 20
16.284000
 30
0.0
 40
4.000000
 41
4.000000
  0
VERTEX
  8
Poly_FTE
 10
-7.955000
 20
16.455000
 30
0.0
 40
4.000000
 41
4.000000
  0
VERTEX
  8
Poly_FTE
 10
-7.608000
 20
16.618000
 30
0.0
 40
4.000000
 41
4.000000
  0
VERTEX
  8
Poly_FTE
 10
-7.258000
 20
16.773000
 30
0.0
 40
4.000000
 41
4.000000
  0
VERTEX
  8
Poly_FTE
 10
-6.906000
 20
16.922000
 30
0.0
 40
4.000000
 41
4.000000
  0
VERTEX
  8
Poly_FTE
 10
-6.550000
 20
17.063000
 30
0.0
 40
4.000000
 41
4.000000
  0
VERTEX
  8
Poly_FTE
 10
-6.191000
 20
17.196000
 30
0.0
 40
4.000000
 41
4.000000
  0
VERTEX
  8
Poly_FTE
 10
-5.829000
 20
17.322000
 30
0.0
 40
4.000000
 41
4.000000
  0
VERTEX
  8
Poly_FTE
 10
-5.465000
 20
17.440000
 30
0.0
 40
4.000000
 41
4.000000
  0
VERTEX
  8
Poly_FTE
 10
-5.099000
 20
17.551000
 30
0.0
 40
4.000000
 41
4.000000
  0
VERTEX
  8
Poly_FTE
 10
-4.730000
 20
17.654000
 30
0.0
 40
4.000000
 41
4.000000
  0
VERTEX
  8
Poly_FTE
 10
-4.360000
 20
17.749000
 30
0.0
 40
4.000000
 41
4.000000
  0
VERTEX
  8
Poly_FTE
 10
-3.987000
 20
17.836000
 30
0.0
 40
4.000000
 41
4.000000
  0
VERTEX
  8
Poly_FTE
 10
-3.612000
 20
17.916000
 30
0.0
 40
4.000000
 41
4.000000
  0
VERTEX
  8
Poly_FTE
 10
-3.236000
 20
17.988000
 30
0.0
 40
4.000000
 41
4.000000
  0
VERTEX
  8
Poly_FTE
 10
-2.859000
 20
18.051000
 30
0.0
 40
4.000000
 41
4.000000
  0
VERTEX
  8
Poly_FTE
 10
-2.480000
 20
18.107000
 30
0.0
 40
4.000000
 41
4.000000
  0
VERTEX
  8
Poly_FTE
 10
-2.101000
 20
18.155000
 30
0.0
 40
4.000000
 41
4.000000
  0
VERTEX
  8
Poly_FTE
 10
-1.720000
 20
18.195000
 30
0.0
 40
4.000000
 41
4.000000
  0
VERTEX
  8
Poly_FTE
 10
-1.339000
 20
18.227000
 30
0.0
 40
4.000000
 41
4.000000
  0
VERTEX
  8
Poly_FTE
 10
-0.957000
 20
18.251000
 30
0.0
 40
4.000000
 41
4.000000
  0
VERTEX
  8
Poly_FTE
 10
-0.574000
 20
18.267000
 30
0.0
 40
4.000000
 41
4.000000
  0
VERTEX
  8
Poly_FTE
 10
-0.191000
 20
18.275000
 30
0.0
 40
4.000000
 41
4.000000
  0
VERTEX
  8
Poly_FTE
 10
0.191000
 20
18.275000
 30
0.0
 40
4.000000
 41
4.000000
  0
VERTEX
  8
Poly_FTE
 10
0.574000
 20
18.267000
 30
0.0
 40
4.000000
 41
4.000000
  0
VERTEX
  8
Poly_FTE
 10
0.957000
 20
18.251000
 30
0.0
 40
4.000000
 41
4.000000
  0
VERTEX
  8
Poly_FTE
 10
1.339000
 20
18.227000
 30
0.0
 40
4.000000
 41
4.000000
  0
VERTEX
  8
Poly_FTE
 10
1.720000
 20
18.195000
 30
0.0
 40
4.000000
 41
4.000000
  0
VERTEX
  8
Poly_FTE
 10
2.101000
 20
18.155000
 30
0.0
 40
4.000000
 41
4.000000
  0
VERTEX
  8
Poly_FTE
 10
2.480000
 20
18.107000
 30
0.0
 40
4.000000
 41
4.000000
  0
VERTEX
  8
Poly_FTE
 10
2.859000
 20
18.051000
 30
0.0
 40
4.000000
 41
4.000000
  0
VERTEX
  8
Poly_FTE
 10
3.236000
 20
17.988000
 30
0.0
 40
4.000000
 41
4.000000
  0
VERTEX
  8
Poly_FTE
 10
3.612000
 20
17.916000
 30
0.0
 40
4.000000
 41
4.000000
  0
VERTEX
  8
Poly_FTE
 10
3.987000
 20
17.836000
 30
0.0
 40
4.000000
 41
4.000000
  0
VERTEX
  8
Poly_FTE
 10
4.360000
 20
17.749000
 30
0.0
 40
4.000000
 41
4.000000
  0
VERTEX
  8
Poly_FTE
 10
4.730000
 20
17.654000
 30
0.0
 40
4.000000
 41
4.000000
  0
VERTEX
  8
Poly_FTE
 10
5.099000
 20
17.551000
 30
0.0
 40
4.000000
 41
4.000000
  0
VERTEX
  8
Poly_FTE
 10
5.465000
 20
17.440000
 30
0.0
 40
4.000000
 41
4.000000
  0
VERTEX
  8
Poly_FTE
 10
5.829000
 20
17.322000
 30
0.0
 40
4.000000
 41
4.000000
  0
VERTEX
  8
Poly_FTE
 10
6.191000
 20
17.196000
 30
0.0
 40
4.000000
 41
4.000000
  0
VERTEX
  8
Poly_FTE
 10
6.550000
 20
17.063000
 30
0.0
 40
4.000000
 41
4.000000
  0
VERTEX
  8
Poly_FTE
 10
6.906000
 20
16.922000
 30
0.0
 40
4.000000
 41
4.000000
  0
VERTEX
  8
Poly_FTE
 10
7.258000
 20
16.773000
 30
0.0
 40
4.000000
 41
4.000000
  0
VERTEX
  8
Poly_FTE
 10
7.608000
 20
16.618000
 30
0.0
 40
4.000000
 41
4.000000
  0
VERTEX
  8
Poly_FTE
 10
7.955000
 20
16.455000
 30
0.0
 40
4.000000
 41
4.000000
  0
VERTEX
  8
Poly_FTE
 10
8.297000
 20
16.284000
 30
0.0
 40
4.000000
 41
4.000000
  0
VERTEX
  8
Poly_FTE
 10
8.637000
 20
16.107000
 30
0.0
 40
4.000000
 41
4.000000
  0
VERTEX
  8
Poly_FTE
 10
8.972000
 20
15.923000
 30
0.0
 40
4.000000
 41
4.000000
  0
VERTEX
  8
Poly_FTE
 10
9.303000
 20
15.731000
 30
0.0
 40
4.000000
 41
4.000000
  0
VERTEX
  8
Poly_FTE
 10
9.631000
 20
15.533000
 30
0.0
 40
4.000000
 41
4.000000
  0
VERTEX
  8
Poly_FTE
 10
9.954000
 20
15.328000
 30
0.0
 40
4.000000
 41
4.000000
  0
VERTEX
  8
Poly_FTE
 10
10.273000
 20
15.116000
 30
0.0
 40
4.000000
 41
4.000000
  0
VERTEX
  8
Poly_FTE
 10
10.587000
 20
14.898000
 30
0.0
 40
4.000000
 41
4.000000
  0
VERTEX
  8
Poly_FTE
 10
10.897000
 20
14.673000
 30
0.0
 40
4.000000
 41
4.000000
  0
VERTEX
  8
Poly_FTE
 10
11.202000
 20
14.441000
 30
0.0
 40
4.000000
 41
4.000000
  0
VERTEX
  8
Poly_FTE
 10
11.502000
 20
14.204000
 30
0.0
 40
4.000000
 41
4.000000
  0
VERTEX
  8
Poly_FTE
 10
11.797000
 20
13.960000
 30
0.0
 40
4.000000
 41
4.000000
  0
VERTEX
  8
Poly_FTE
 10
12.086000
 20
13.709000
 30
0.0
 40
4.000000
 41
4.000000
  0
VERTEX
  8
Poly_FTE
 10
12.371000
 20
13.453000
 30
0.0
 40
4.000000
 41
4.000000
  0
VERTEX
  8
Poly_FTE
 10
12.650000
 20
13.191000
 30
0.0
 40
4.000000
 41
4.000000
  0
VERTEX
  8
Poly_FTE
 10
12.923000
 20
12.923000
 30
0.0
 40
4.000000
 41
4.000000
  0
VERTEX
  8
Poly_FTE
 10
13.191000
 20
12.650000
 30
0.0
 40
4.000000
 41
4.000000
  0
VERTEX
  8
Poly_FTE
 10
13.453000
 20
12.371000
 30
0.0
 40
4.000000
 41
4.000000
  0
VERTEX
  8
Poly_FTE
 10
13.710000
 20
12.086000
 30
0.0
 40
4.000000
 41
4.000000
  0
VERTEX
  8
Poly_FTE
 10
13.961000
 20
11.795000
 30
0.0
 40
4.000000
 41
4.000000
  0
VERTEX
  8
Poly_FTE
 10
14.206000
 20
11.499000
 30
0.0
 40
4.000000
 41
4.000000
  0
VERTEX
  8
Poly_FTE
 10
14.446000
 20
11.198000
 30
0.0
 40
4.000000
 41
4.000000
  0
VERTEX
  8
Poly_FTE
 10
14.679000
 20
10.890000
 30
0.0
 40
4.000000
 41
4.000000
  0
VERTEX
  8
Poly_FTE
 10
14.908000
 20
10.577000
 30
0.0
 40
4.000000
 41
4.000000
  0
VERTEX
  8
Poly_FTE
 10
15.131000
 20
10.259000
 30
0.0
 40
4.000000
 41
4.000000
  0
VERTEX
  8
Poly_FTE
 10
15.348000
 20
9.934000
 30
0.0
 40
4.000000
 41
4.000000
  0
VERTEX
  8
Poly_FTE
 10
15.559000
 20
9.605000
 30
0.0
 40
4.000000
 41
4.000000
  0
VERTEX
  8
Poly_FTE
 10
15.765000
 20
9.269000
 30
0.0
 40
4.000000
 41
4.000000
  0
VERTEX
  8
Poly_FTE
 10
15.966000
 20
8.929000
 30
0.0
 40
4.000000
 41
4.000000
  0
VERTEX
  8
Poly_FTE
 10
16.161000
 20
8.583000
 30
0.0
 40
4.000000
 41
4.000000
  0
VERTEX
  8
Poly_FTE
 10
16.351000
 20
8.231000
 30
0.0
 40
4.000000
 41
4.000000
  0
VERTEX
  8
Poly_FTE
 10
16.535000
 20
7.874000
 30
0.0
 40
4.000000
 41
4.000000
  0
VERTEX
  8
Poly_FTE
 10
16.714000
 20
7.512000
 30
0.0
 40
4.000000
 41
4.000000
  0
VERTEX
  8
Poly_FTE
 10
16.888000
 20
7.144000
 30
0.0
 40
4.000000
 41
4.000000
  0
VERTEX
  8
Poly_FTE
 10
17.056000
 20
6.771000
 30
0.0
 40
4.000000
 41
4.000000
  0
VERTEX
  8
Poly_FTE
 10
17.220000
 20
6.393000
 30
0.0
 40
4.000000
 41
4.000000
  0
VERTEX
  8
Poly_FTE
 10
17.377000
 20
6.009000
 30
0.0
 40
4.000000
 41
4.000000
  0
VERTEX
  8
Poly_FTE
 10
17.530000
 20
5.621000
 30
0.0
 40
4.000000
 41
4.000000
  0
VERTEX
  8
Poly_FTE
 10
17.678000
 20
5.227000
 30
0.0
 40
4.000000
 41
4.000000
  0
VERTEX
  8
Poly_FTE
 10
17.821000
 20
4.829000
 30
0.0
 40
4.000000
 41
4.000000
  0
VERTEX
  8
Poly_FTE
 10
17.959000
 20
4.425000
 30
0.0
 40
4.000000
 41
4.000000
  0
VERTEX
  8
Poly_FTE
 10
18.092000
 20
4.017000
 30
0.0
 40
4.000000
 41
4.000000
  0
VERTEX
  8
Poly_FTE
 10
18.220000
 20
3.604000
 30
0.0
 40
4.000000
 41
4.000000
  0
VERTEX
  8
Poly_FTE
 10
18.343000
 20
3.186000
 30
0.0
 40
4.000000
 41
4.000000
  0
VERTEX
  8
Poly_FTE
 10
18.461000
 20
2.763000
 30
0.0
 40
4.000000
 41
4.000000
  0
VERTEX
  8
Poly_FTE
 10
18.575000
 20
2.335000
 30
0.0
 40
4.000000
 41
4.000000
  0
VERTEX
  8
Poly_FTE
 10
18.685000
 20
1.903000
 30
0.0
 40
4.000000
 41
4.000000
  0
VERTEX
  8
Poly_FTE
 10
18.789000
 20
1.467000
 30
0.0
 40
4.000000
 41
4.000000
  0
VERTEX
  8
Poly_FTE
 10
18.890000
 20
1.026000
 30
0.0
 40
4.000000
 41
4.000000
  0
VERTEX
  8
Poly_FTE
 10
18.986000
 20
0.580000
 30
0.0
 40
4.000000
 41
4.000000
  0
VERTEX
  8
Poly_FTE
 10
19.077000
 20
0.131000
 30
0.0
 40
4.000000
 41
4.000000
  0
VERTEX
  8
Poly_FTE
 10
19.165000
 20
-0.323000
 30
0.0
 40
4.000000
 41
4.000000
  0
VERTEX
  8
Poly_FTE
 10
19.248000
 20
-0.781000
 30
0.0
 40
4.000000
 41
4.000000
  0
VERTEX
  8
Poly_FTE
 10
19.327000
 20
-1.243000
 30
0.0
 40
4.000000
 41
4.000000
  0
VERTEX
  8
Poly_FTE
 10
19.403000
 20
-1.709000
 30
0.0
 40
4.000000
 41
4.000000
  0
VERTEX
  8
Poly_FTE
 10
19.474000
 20
-2.179000
 30
0.0
 40
4.000000
 41
4.000000
  0
VERTEX
  8
Poly_FTE
 10
19.542000
 20
-2.653000
 30
0.0
 40
4.000000
 41
4.000000
  0
VERTEX
  8
Poly_FTE
 10
19.606000
 20
-3.130000
 30
0.0
 40
4.000000
 41
4.000000
  0
VERTEX
  8
Poly_FTE
 10
19.666000
 20
-3.611000
 30
0.0
 40
4.000000
 41
4.000000
  0
VERTEX
  8
Poly_FTE
 10
19.723000
 20
-4.096000
 30
0.0
 40
4.000000
 41
4.000000
  0
VERTEX
  8
Poly_FTE
 10
19.776000
 20
-4.584000
 30
0.0
 40
4.000000
 41
4.000000
  0
VERTEX
  8
Poly_FTE
 10
19.826000
 20
-5.075000
 30
0.0
 40
4.000000
 41
4.000000
  0
VERTEX
  8
Poly_FTE
 10
19.873000
 20
-5.570000
 30
0.0
 40
4.000000
 41
4.000000
  0
VERTEX
  8
Poly_FTE
 10
19.917000
 20
-6.067000
 30
0.0
 40
4.000000
 41
4.000000
  0
VERTEX
  8
Poly_FTE
 10
19.957000
 20
-6.568000
 30
0.0
 40
4.000000
 41
4.000000
  0
VERTEX
  8
Poly_FTE
 10
19.995000
 20
-7.072000
 30
0.0
 40
4.000000
 41
4.000000
  0
VERTEX
  8
Poly_FTE
 10
20.030000
 20
-7.578000
 30
0.0
 40
4.000000
 41
4.000000
  0
VERTEX
  8
Poly_FTE
 10
20.062000
 20
-8.087000
 30
0.0
 40
4.000000
 41
4.000000
  0
VERTEX
  8
Poly_FTE
 10
20.092000
 20
-8.599000
 30
0.0
 40
4.000000
 41
4.000000
  0
VERTEX
  8
Poly_FTE
 10
20.119000
 20
-9.114000
 30
0.0
 40
4.000000
 41
4.000000
  0
VERTEX
  8
Poly_FTE
 10
20.143000
 20
-9.630000
 30
0.0
 40
4.000000
 41
4.000000
  0
VERTEX
  8
Poly_FTE
 10
20.165000
 20
-10.149000
 30
0.0
 40
4.000000
 41
4.000000
  0
VERTEX
  8
Poly_FTE
 10
20.186000
 20
-10.671000
 30
0.0
 40
4.000000
 41
4.000000
  0
VERTEX
  8
Poly_FTE
 10
20.203000
 20
-11.194000
 30
0.0
 40
4.000000
 41
4.000000
  0
VERTEX
  8
Poly_FTE
 10
20.219000
 20
-11.719000
 30
0.0
 40
4.000000
 41
4.000000
  0
VERTEX
  8
Poly_FTE
 10
20.234000
 20
-12.247000
 30
0.0
 40
4.000000
 41
4.000000
  0
VERTEX
  8
Poly_FTE
 10
20.246000
 20
-12.775000
 30
0.0
 40
4.000000
 41
4.000000
  0
VERTEX
  8
Poly_FTE
 10
20.257000
 20
-13.306000
 30
0.0
 40
4.000000
 41
4.000000
  0
VERTEX
  8
Poly_FTE
 10
20.266000
 20
-13.838000
 30
0.0
 40
4.000000
 41
4.000000
  0
VERTEX
  8
Poly_FTE
 10
20.274000
 20
-14.372000
 30
0.0
 40
4.000000
 41
4.000000
  0
VERTEX
  8
Poly_FTE
 10
20.280000
 20
-14.906000
 30
0.0
 40
4.000000
 41
4.000000
  0
VERTEX
  8
Poly_FTE
 10
20.286000
 20
-15.442000
 30
0.0
 40
4.000000
 41
4.000000
  0
VERTEX
  8
Poly_FTE
 10
20.290000
 20
-15.980000
 30
0.0
 40
4.000000
 41
4.000000
  0
VERTEX
  8
Poly_FTE
 10
20.296000
 20
-17.056000
 30
0.0
 40
4.000000
 41
4.000000
  0
VERTEX
  8
Poly_FTE
 10
20.298000
 20
-17.596000
 30
0.0
 40
4.000000
 41
4.000000
  0
VERTEX
  8
Poly_FTE
 10
20.299000
 20
-18.136000
 30
0.0
 40
4.000000
 41
4.000000
  0
VERTEX
  8
Poly_FTE
 10
20.300000
 20
-18.677000
 30
0.0
 40
4.000000
 41
4.000000
  0
VERTEX
  8
Poly_FTE
 10
20.300000
 20
-30.300000
 30
0.0
 40
4.000000
 41
4.000000
  0
SEQEND
  8
Poly_FTE
  0
POLYLINE
  8
Poly_PTE
 66
       1
 70
       0
 10
0.0
 20
0.0
 30
0.0
  0
VERTEX
  8
Poly_PTE
 10
-20.300000
 20
-30.300000
 30
0.0
 40
1.000000
 41
1.000000
  0
VERTEX
  8
Poly_PTE
 10
-20.300000
 20
-18.677000
 30
0.0
 40
1.000000
 41
1.000000
  0
VERTEX
  8
Poly_PTE
 10
-20.299000
 20
-18.136000
 30
0.0
 40
1.000000
 41
1.000000
  0
VERTEX
  8
Poly_PTE
 10
-20.298000
 20
-17.596000
 30
0.0
 40
1.000000
 41
1.000000
  0
VERTEX
  8
Poly_PTE
 10
-20.296000
 20
-17.056000
 30
0.0
 40
1.000000
 41
1.000000
  0
VERTEX
  8
Poly_PTE
 10
-20.290000
 20
-15.980000
 30
0.0
 40
1.000000
 41
1.000000
  0
VERTEX
  8
Poly_PTE
 10
-20.286000
 20
-15.442000
 30
0.0
 40
1.000000
 41
1.000000
  0
VERTEX
  8
Poly_PTE
 10
-20.280000
 20
-14.906000
 30
0.0
 40
1.000000
 41
1.000000
  0
VERTEX
  8
Poly_PTE
 10
-20.274000
 20
-14.372000
 30
0.0
 40
1.000000
 41
1.000000
  0
VERTEX
  8
Poly_PTE
 10
-20.266000
 20
-13.838000
 30
0.0
 40
1.000000
 41
1.000000
  0
VERTEX
  8
Poly_PTE
 10
-20.257000
 20
-13.306000
 30
0.0
 40
1.000000
 41
1.000000
  0
VERTEX
  8
Poly_PTE
 10
-20.246000
 20
-12.775000
 30
0.0
 40
1.000000
 41
1.000000
  0
VERTEX
  8
Poly_PTE
 10
-20.234000
 20
-12.247000
 30
0.0
 40
1.000000
 41
1.000000
  0
VERTEX
  8
Poly_PTE
 10
-20.219000
 20
-11.719000
 30
0.0
 40
1.000000
 41
1.000000
  0
VERTEX
  8
Poly_PTE
 10
-20.203000
 20
-11.194000
 30
0.0
 40
1.000000
 41
1.000000
  0
VERTEX
  8
Poly_PTE
 10
-20.186000
 20
-10.671000
 30
0.0
 40
1.000000
 41
1.000000
  0
VERTEX
  8
Poly_PTE
 10
-20.165000
 20
-10.149000
 30
0.0
 40
1.000000
 41
1.000000
  0
VERTEX
  8
Poly_PTE
 10
-20.143000
 20
-9.630000
 30
0.0
 40
1.000000
 41
1.000000
  0
VERTEX
  8
Poly_PTE
 10
-20.119000
 20
-9.114000
 30
0.0
 40
1.000000
 41
1.000000
  0
VERTEX
  8
Poly_PTE
 10
-20.092000
 20
-8.599000
 30
0.0
 40
1.000000
 41
1.000000
  0
VERTEX
  8
Poly_PTE
 10
-20.062000
 20
-8.087000
 30
0.0
 40
1.000000
 41
1.000000
  0
VERTEX
  8
Poly_PTE
 10
-20.030000
 20
-7.578000
 30
0.0
 40
1.000000
 41
1.000000
  0
VERTEX
  8
Poly_PTE
 10
-19.995000
 20
-7.072000
 30
0.0
 40
1.000000
 41
1.000000
  0
VERTEX
  8
Poly_PTE
 10
-19.957000
 20
-6.568000
 30
0.0
 40
1.000000
 41
1.000000
  0
VERTEX
  8
Poly_PTE
 10
-19.917000
 20
-6.067000
 30
0.0
 40
1.000000
 41
1.000000
  0
VERTEX
  8
Poly_PTE
 10
-19.873000
 20
-5.570000
 30
0.0
 40
1.000000
 41
1.000000
  0
VERTEX
  8
Poly_PTE
 10
-19.826000
 20
-5.075000
 30
0.0
 40
1.000000
 41
1.000000
  0
VERTEX
  8
Poly_PTE
 10
-19.776000
 20
-4.584000
 30
0.0
 40
1.000000
 41
1.000000
  0
VERTEX
  8
Poly_PTE
 10
-19.723000
 20
-4.096000
 30
0.0
 40
1.000000
 41
1.000000
  0
VERTEX
  8
Poly_PTE
 10
-19.666000
 20
-3.611000
 30
0.0
 40
1.000000
 41
1.000000
  0
VERTEX
  8
Poly_PTE
 10
-19.606000
 20
-3.130000
 30
0.0
 40
1.000000
 41
1.000000
  0
VERTEX
  8
Poly_PTE
 10
-19.542000
 20
-2.653000
 30
0.0
 40
1.000000
 41
1.000000
  0
VERTEX
  8
Poly_PTE
 10
-19.474000
 20
-2.179000
 30
0.0
 40
1.000000
 41
1.000000
  0
VERTEX
  8
Poly_PTE
 10
-19.403000
 20
-1.709000
 30
0.0
 40
1.000000
 41
1.000000
  0
VERTEX
  8
Poly_PTE
 10
-19.327000
 20
-1.243000
 30
0.0
 40
1.000000
 41
1.000000
  0
VERTEX
  8
Poly_PTE
 10
-19.248000
 20
-0.781000
 30
0.0
 40
1.000000
 41
1.000000
  0
VERTEX
  8
Poly_PTE
 10
-19.165000
 20
-0.323000
 30
0.0
 40
1.000000
 41
1.000000
  0
VERTEX
  8
Poly_PTE
 10
-19.077000
 20
0.131000
 30
0.0
 40
1.000000
 41
1.000000
  0
VERTEX
  8
Poly_PTE
 10
-18.986000
 20
0.580000
 30
0.0
 40
1.000000
 41
1.000000
  0
VERTEX
  8
Poly_PTE
 10
-18.890000
 20
1.026000
 30
0.0
 40
1.000000
 41
1.000000
  0
VERTEX
  8
Poly_PTE
 10
-18.789000
 20
1.467000
 30
0.0
 40
1.000000
 41
1.000000
  0
VERTEX
  8
Poly_PTE
 10
-18.685000
 20
1.903000
 30
0.0
 40
1.000000
 41
1.000000
  0
VERTEX
  8
Poly_PTE
 10
-18.575000
 20
2.335000
 30
0.0
 40
1.000000
 41
1.000000
  0
VERTEX
  8
Poly_PTE
 10
-18.461000
 20
2.763000
 30
0.0
 40
1.000000
 41
1.000000
  0
VERTEX
  8
Poly_PTE
 10
-18.343000
 20
3.186000
 30
0.0
 40
1.000000
 41
1.000000
  0
VERTEX
  8
Poly_PTE
 10
-18.220000
 20
3.604000
 30
0.0
 40
1.000000
 41
1.000000
  0
VERTEX
  8
Poly_PTE
 10
-18.092000
 20
4.017000
 30
0.0
 40
1.000000
 41
1.000000
  0
VERTEX
  8
Poly_PTE
 10
-17.959000
 20
4.425000
 30
0.0
 40
1.000000
 41
1.000000
  0
VERTEX
  8
Poly_PTE
 10
-17.821000
 20
4.829000
 30
0.0
 40
1.000000
 41
1.000000
  0
VERTEX
  8
Poly_PTE
 10
-17.678000
 20
5.227000
 30
0.0
 40
1.000000
 41
1.000000
  0
VERTEX
  8
Poly_PTE
 10
-17.530000
 20
5.621000
 30
0.0
 40
1.000000
 41
1.000000
  0
VERTEX
  8
Poly_PTE
 10
-17.377000
 20
6.009000
 30
0.0
 40
1.000000
 41
1.000000
  0
VERTEX
  8
Poly_PTE
 10
-17.220000
 20
6.393000
 30
0.0
 40
1.000000
 41
1.000000
  0
VERTEX
  8
Poly_PTE
 10
-17.056000
 20
6.771000
 30
0.0
 40
1.000000
 41
1.000000
  0
VERTEX
  8
Poly_PTE
 10
-16.888000
 20
7.144000
 30
0.0
 40
1.000000
 41
1.000000
  0
VERTEX
  8
Poly_PTE
 10
-16.714000
 20
7.512000
 30
0.0
 40
1.000000
 41
1.000000
  0
VERTEX
  8
Poly_PTE
 10
-16.535000
 20
7.874000
 30
0.0
 40
1.000000
 41
1.000000
  0
VERTEX
  8
Poly_PTE
 10
-16.351000
 20
8.231000
 30
0.0
 40
1.000000
 41
1.000000
  0
VERTEX
  8
Poly_PTE
 10
-16.161000
 20
8.583000
 30
0.0
 40
1.000000
 41
1.000000
  0
VERTEX
  8
Poly_PTE
 10
-15.966000
 20
8.929000
 30
0.0
 40
1.000000
 41
1.000000
  0
VERTEX
  8
Poly_PTE
 10
-15.765000
 20
9.269000
 30
0.0
 40
1.000000
 41
1.000000
  0
VERTEX
  8
Poly_PTE
 10
-15.559000
 20
9.605000
 30
0.0
 40
1.000000
 41
1.000000
  0
VERTEX
  8
Poly_PTE
 10
-15.348000
 20
9.934000
 30
0.0
 40
1.000000
 41
1.000000
  0
VERTEX
  8
Poly_PTE
 10
-15.131000
 20
10.259000
 30
0.0
 40
1.000000
 41
1.000000
  0
VERTEX
  8
Poly_PTE
 10
-14.908000
 20
10.577000
 30
0.0
 40
1.000000
 41
1.000000
  0
VERTEX
  8
Poly_PTE
 10
-14.679000
 20
10.890000
 30
0.0
 40
1.000000
 41
1.000000
  0
VERTEX
  8
Poly_PTE
 10
-14.446000
 20
11.198000
 30
0.0
 40
1.000000
 41
1.000000
  0
VERTEX
  8
Poly_PTE
 10
-14.206000
 20
11.499000
 30
0.0
 40
1.000000
 41
1.000000
  0
VERTEX
  8
Poly_PTE
 10
-13.961000
 20
11.795000
 30
0.0
 40
1.000000
 41
1.000000
  0
VERTEX
  8
Poly_PTE
 10
-13.710000
 20
12.086000
 30
0.0
 40
1.000000
 41
1.000000
  0
VERTEX
  8
Poly_PTE
 10
-13.453000
 20
12.371000
 30
0.0
 40
1.000000
 41
1.000000
  0
VERTEX
  8
Poly_PTE
 10
-13.191000
 20
12.650000
 30
0.0
 40
1.000000
 41
1.000000
  0
VERTEX
  8
Poly_PTE
 10
-12.923000
 20
12.923000
 30
0.0
 40
1.000000
 41
1.000000
  0
VERTEX
  8
Poly_PTE
 10
-12.650000
 20
13.191000
 30
0.0
 40
1.000000
 41
1.000000
  0
VERTEX
  8
Poly_PTE
 10
-12.371000
 20
13.453000
 30
0.0
 40
1.000000
 41
1.000000
  0
VERTEX
  8
Poly_PTE
 10
-12.086000
 20
13.709000
 30
0.0
 40
1.000000
 41
1.000000
  0
VERTEX
  8
Poly_PTE
 10
-11.797000
 20
13.960000
 30
0.0
 40
1.000000
 41
1.000000
  0
VERTEX
  8
Poly_PTE
 10
-11.502000
 20
14.204000
 30
0.0
 40
1.000000
 41
1.000000
  0
VERTEX
  8
Poly_PTE
 10
-11.202000
 20
14.441000
 30
0.0
 40
1.000000
 41
1.000000
  0
VERTEX
  8
Poly_PTE
 10
-10.897000
 20
14.673000
 30
0.0
 40
1.000000
 41
1.000000
  0
VERTEX
  8
Poly_PTE
 10
-10.587000
 20
14.898000
 30
0.0
 40
1.000000
 41
1.000000
  0
VERTEX
  8
Poly_PTE
 10
-10.273000
 20
15.116000
 30
0.0
 40
1.000000
 41
1.000000
  0
VERTEX
  8
Poly_PTE
 10
-9.954000
 20
15.328000
 30
0.0
 40
1.000000
 41
1.000000
  0
VERTEX
  8
Poly_PTE
 10
-9.631000
 20
15.533000
 30
0.0
 40
1.000000
 41
1.000000
  0
VERTEX
  8
Poly_PTE
 10
-9.303000
 20
15.731000
 30
0.0
 40
1.000000
 41
1.000000
  0
VERTEX
  8
Poly_PTE
 10
-8.972000
 20
15.923000
 30
0.0
 40
1.000000
 41
1.000000
  0
VERTEX
  8
Poly_PTE
 10
-8.637000
 20
16.107000
 30
0.0
 40
1.000000
 41
1.000000
  0
VERTEX
  8
Poly_PTE
 10
-8.297000
 20
16.284000
 30
0.0
 40
1.000000
 41
1.000000
  0
VERTEX
  8
Poly_PTE
 10
-7.955000
 20
16.455000
 30
0.0
 40
1.000000
 41
1.000000
  0
VERTEX
  8
Poly_PTE
 10
-7.608000
 20
16.618000
 30
0.0
 40
1.000000
 41
1.000000
  0
VERTEX
  8
Poly_PTE
 10
-7.258000
 20
16.773000
 30
0.0
 40
1.000000
 41
1.000000
  0
VERTEX
  8
Poly_PTE
 10
-6.906000
 20
16.922000
 30
0.0
 40
1.000000
 41
1.000000
  0
VERTEX
  8
Poly_PTE
 10
-6.550000
 20
17.063000
 30
0.0
 40
1.000000
 41
1.000000
  0
VERTEX
  8
Poly_PTE
 10
-6.191000
 20
17.196000
 30
0.0
 40
1.000000
 41
1.000000
  0
VERTEX
  8
Poly_PTE
 10
-5.829000
 20
17.322000
 30
0.0
 40
1.000000
 41
1.000000
  0
VERTEX
  8
Poly_PTE
 10
-5.465000
 20
17.440000
 30
0.0
 40
1.000000
 41
1.000000
  0
VERTEX
  8
Poly_PTE
 10
-5.099000
 20
17.551000
 30
0.0
 40
1.000000
 41
1.000000
  0
VERTEX
  8
Poly_PTE
 10
-4.730000
 20
17.654000
 30
0.0
 40
1.000000
 41
1.000000
  0
VERTEX
  8
Poly_PTE
 10
-4.360000
 20
17.749000
 30
0.0
 40
1.000000
 41
1.000000
  0
VERTEX
  8
Poly_PTE
 10
-3.987000
 20
17.836000
 30
0.0
 40
1.000000
 41
1.000000
  0
VERTEX
  8
Poly_PTE
 10
-3.612000
 20
17.916000
 30
0.0
 40
1.000000
 41
1.000000
  0
VERTEX
  8
Poly_PTE
 10
-3.236000
 20
17.988000
 30
0.0
 40
1.000000
 41
1.000000
  0
VERTEX
  8
Poly_PTE
 10
-2.859000
 20
18.051000
 30
0.0
 40
1.000000
 41
1.000000
  0
VERTEX
  8
Poly_PTE
 10
-2.480000
 20
18.107000
 30
0.0
 40
1.000000
 41
1.000000
  0
VERTEX
  8
Poly_PTE
 10
-2.101000
 20
18.155000
 30
0.0
 40
1.000000
 41
1.000000
  0
VERTEX
  8
Poly_PTE
 10
-1.720000
 20
18.195000
 30
0.0
 40
1.000000
 41
1.000000
  0
VERTEX
  8
Poly_PTE
 10
-1.339000
 20
18.227000
 30
0.0
 40
1.000000
 41
1.000000
  0
VERTEX
  8
Poly_PTE
 10
-0.957000
 20
18.251000
 30
0.0
 40
1.000000
 41
1.000000
  0
VERTEX
  8
Poly_PTE
 10
-0.574000
 20
18.267000
 30
0.0
 40
1.000000
 41
1.000000
  0
VERTEX
  8
Poly_PTE
 10
-0.191000
 20
18.275000
 30
0.0
 40
1.000000
 41
1.000000
  0
VERTEX
  8
Poly_PTE
 10
0.191000
 20
18.275000
 30
0.0
 40
1.000000
 41
1.000000
  0
VERTEX
  8
Poly_PTE
 10
0.574000
 20
18.267000
 30
0.0
 40
1.000000
 41
1.000000
  0
VERTEX
  8
Poly_PTE
 10
0.957000
 20
18.251000
 30
0.0
 40
1.000000
 41
1.000000
  0
VERTEX
  8
Poly_PTE
 10
1.339000
 20
18.227000
 30
0.0
 40
1.000000
 41
1.000000
  0
VERTEX
  8
Poly_PTE
 10
1.720000
 20
18.195000
 30
0.0
 40
1.000000
 41
1.000000
  0
VERTEX
  8
Poly_PTE
 10
2.101000
 20
18.155000
 30
0.0
 40
1.000000
 41
1.000000
  0
VERTEX
  8
Poly_PTE
 10
2.480000
 20
18.107000
 30
0.0
 40
1.000000
 41
1.000000
  0
VERTEX
  8
Poly_PTE
 10
2.859000
 20
18.051000
 30
0.0
 40
1.000000
 41
1.000000
  0
VERTEX
  8
Poly_PTE
 10
3.236000
 20
17.988000
 30
0.0
 40
1.000000
 41
1.000000
  0
VERTEX
  8
Poly_PTE
 10
3.612000
 20
17.916000
 30
0.0
 40
1.000000
 41
1.000000
  0
VERTEX
  8
Poly_PTE
 10
3.987000
 20
17.836000
 30
0.0
 40
1.000000
 41
1.000000
  0
VERTEX
  8
Poly_PTE
 10
4.360000
 20
17.749000
 30
0.0
 40
1.000000
 41
1.000000
  0
VERTEX
  8
Poly_PTE
 10
4.730000
 20
17.654000
 30
0.0
 40
1.000000
 41
1.000000
  0
VERTEX
  8
Poly_PTE
 10
5.099000
 20
17.551000
 30
0.0
 40
1.000000
 41
1.000000
  0
VERTEX
  8
Poly_PTE
 10
5.465000
 20
17.440000
 30
0.0
 40
1.000000
 41
1.000000
  0
VERTEX
  8
Poly_PTE
 10
5.829000
 20
17.322000
 30
0.0
 40
1.000000
 41
1.000000
  0
VERTEX
  8
Poly_PTE
 10
6.191000
 20
17.196000
 30
0.0
 40
1.000000
 41
1.000000
  0
VERTEX
  8
Poly_PTE
 10
6.550000
 20
17.063000
 30
0.0
 40
1.000000
 41
1.000000
  0
VERTEX
  8
Poly_PTE
 10
6.906000
 20
16.922000
 30
0.0
 40
1.000000
 41
1.000000
  0
VERTEX
  8
Poly_PTE
 10
7.258000
 20
16.773000
 30
0.0
 40
1.000000
 41
1.000000
  0
VERTEX
  8
Poly_PTE
 10
7.608000
 20
16.618000
 30
0.0
 40
1.000000
 41
1.000000
  0
VERTEX
  8
Poly_PTE
 10
7.955000
 20
16.455000
 30
0.0
 40
1.000000
 41
1.000000
  0
VERTEX
  8
Poly_PTE
 10
8.297000
 20
16.284000
 30
0.0
 40
1.000000
 41
1.000000
  0
VERTEX
  8
Poly_PTE
 10
8.637000
 20
16.107000
 30
0.0
 40
1.000000
 41
1.000000
  0
VERTEX
  8
Poly_PTE
 10
8.972000
 20
15.923000
 30
0.0
 40
1.000000
 41
1.000000
  0
VERTEX
  8
Poly_PTE
 10
9.303000
 20
15.731000
 30
0.0
 40
1.000000
 41
1.000000
  0
VERTEX
  8
Poly_PTE
 10
9.631000
 20
15.533000
 30
0.0
 40
1.000000
 41
1.000000
  0
VERTEX
  8
Poly_PTE
 10
9.954000
 20
15.328000
 30
0.0
 40
1.000000
 41
1.000000
  0
VERTEX
  8
Poly_PTE
 10
10.273000
 20
15.116000
 30
0.0
 40
1.000000
 41
1.000000
  0
VERTEX
  8
Poly_PTE
 10
10.587000
 20
14.898000
 30
0.0
 40
1.000000
 41
1.000000
  0
VERTEX
  8
Poly_PTE
 10
10.897000
 20
14.673000
 30
0.0
 40
1.000000
 41
1.000000
  0
VERTEX
  8
Poly_PTE
 10
11.202000
 20
14.441000
 30
0.0
 40
1.000000
 41
1.000000
  0
VERTEX
  8
Poly_PTE
 10
11.502000
 20
14.204000
 30
0.0
 40
1.000000
 41
1.000000
  0
VERTEX
  8
Poly_PTE
 10
11.797000
 20
13.960000
 30
0.0
 40
1.000000
 41
1.000000
  0
VERTEX
  8
Poly_PTE
 10
12.086000
 20
13.709000
 30
0.0
 40
1.000000
 41
1.000000
  0
VERTEX
  8
Poly_PTE
 10
12.371000
 20
13.453000
 30
0.0
 40
1.000000
 41
1.000000
  0
VERTEX
  8
Poly_PTE
 10
12.650000
 20
13.191000
 30
0.0
 40
1.000000
 41
1.000000
  0
VERTEX
  8
Poly_PTE
 10
12.923000
 20
12.923000
 30
0.0
 40
1.000000
 41
1.000000
  0
VERTEX
  8
Poly_PTE
 10
13.191000
 20
12.650000
 30
0.0
 40
1.000000
 41
1.000000
  0
VERTEX
  8
Poly_PTE
 10
13.453000
 20
12.371000
 30
0.0
 40
1.000000
 41
1.000000
  0
VERTEX
  8
Poly_PTE
 10
13.710000
 20
12.086000
 30
0.0
 40
1.000000
 41
1.000000
  0
VERTEX
  8
Poly_PTE
 10
13.961000
 20
11.795000
 30
0.0
 40
1.000000
 41
1.000000
  0
VERTEX
  8
Poly_PTE
 10
14.206000
 20
11.499000
 30
0.0
 40
1.000000
 41
1.000000
  0
VERTEX
  8
Poly_PTE
 10
14.446000
 20
11.198000
 30
0.0
 40
1.000000
 41
1.000000
  0
VERTEX
  8
Poly_PTE
 10
14.679000
 20
10.890000
 30
0.0
 40
1.000000
 41
1.000000
  0
VERTEX
  8
Poly_PTE
 10
14.908000
 20
10.577000
 30
0.0
 40
1.000000
 41
1.000000
  0
VERTEX
  8
Poly_PTE
 10
15.131000
 20
10.259000
 30
0.0
 40
1.000000
 41
1.000000
  0
VERTEX
  8
Poly_PTE
 10
15.348000
 20
9.934000
 30
0.0
 40
1.000000
 41
1.000000
  0
VERTEX
  8
Poly_PTE
 10
15.559000
 20
9.605000
 30
0.0
 40
1.000000
 41
1.000000
  0
VERTEX
  8
Poly_PTE
 10
15.765000
 20
9.269000
 30
0.0
 40
1.000000
 41
1.000000
  0
VERTEX
  8
Poly_PTE
 10
15.966000
 20
8.929000
 30
0.0
 40
1.000000
 41
1.000000
  0
VERTEX
  8
Poly_PTE
 10
16.161000
 20
8.583000
 30
0.0
 40
1.000000
 41
1.000000
  0
VERTEX
  8
Poly_PTE
 10
16.351000
 20
8.231000
 30
0.0
 40
1.000000
 41
1.000000
  0
VERTEX
  8
Poly_PTE
 10
16.535000
 20
7.874000
 30
0.0
 40
1.000000
 41
1.000000
  0
VERTEX
  8
Poly_PTE
 10
16.714000
 20
7.512000
 30
0.0
 40
1.000000
 41
1.000000
  0
VERTEX
  8
Poly_PTE
 10
16.888000
 20
7.144000
 30
0.0
 40
1.000000
 41
1.000000
  0
VERTEX
  8
Poly_PTE
 10
17.056000
 20
6.771000
 30
0.0
 40
1.000000
 41
1.000000
  0
VERTEX
  8
Poly_PTE
 10
17.220000
 20
6.393000
 30
0.0
 40
1.000000
 41
1.000000
  0
VERTEX
  8
Poly_PTE
 10
17.377000
 20
6.009000
 30
0.0
 40
1.000000
 41
1.000000
  0
VERTEX
  8
Poly_PTE
 10
17.530000
 20
5.621000
 30
0.0
 40
1.000000
 41
1.000000
  0
VERTEX
  8
Poly_PTE
 10
17.678000
 20
5.227000
 30
0.0
 40
1.000000
 41
1.000000
  0
VERTEX
  8
Poly_PTE
 10
17.821000
 20
4.829000
 30
0.0
 40
1.000000
 41
1.000000
  0
VERTEX
  8
Poly_PTE
 10
17.959000
 20
4.425000
 30
0.0
 40
1.000000
 41
1.000000
  0
VERTEX
  8
Poly_PTE
 10
18.092000
 20
4.017000
 30
0.0
 40
1.000000
 41
1.000000
  0
VERTEX
  8
Poly_PTE
 10
18.220000
 20
3.604000
 30
0.0
 40
1.000000
 41
1.000000
  0
VERTEX
  8
Poly_PTE
 10
18.343000
 20
3.186000
 30
0.0
 40
1.000000
 41
1.000000
  0
VERTEX
  8
Poly_PTE
 10
18.461000
 20
2.763000
 30
0.0
 40
1.000000
 41
1.000000
  0
VERTEX
  8
Poly_PTE
 10
18.575000
 20
2.335000
 30
0.0
 40
1.000000
 41
1.000000
  0
VERTEX
  8
Poly_PTE
 10
18.685000
 20
1.903000
 30
0.0
 40
1.000000
 41
1.000000
  0
VERTEX
  8
Poly_PTE
 10
18.789000
 20
1.467000
 30
0.0
 40
1.000000
 41
1.000000
  0
VERTEX
  8
Poly_PTE
 10
18.890000
 20
1.026000
 30
0.0
 40
1.000000
 41
1.000000
  0
VERTEX
  8
Poly_PTE
 10
18.986000
 20
0.580000
 30
0.0
 40
1.000000
 41
1.000000
  0
VERTEX
  8
Poly_PTE
 10
19.077000
 20
0.131000
 30
0.0
 40
1.000000
 41
1.000000
  0
VERTEX
  8
Poly_PTE
 10
19.165000
 20
-0.323000
 30
0.0
 40
1.000000
 41
1.000000
  0
VERTEX
  8
Poly_PTE
 10
19.248000
 20
-0.781000
 30
0.0
 40
1.000000
 41
1.000000
  0
VERTEX
  8
Poly_PTE
 10
19.327000
 20
-1.243000
 30
0.0
 40
1.000000
 41
1.000000
  0
VERTEX
  8
Poly_PTE
 10
19.403000
 20
-1.709000
 30
0.0
 40
1.000000
 41
1.000000
  0
VERTEX
  8
Poly_PTE
 10
19.474000
 20
-2.179000
 30
0.0
 40
1.000000
 41
1.000000
  0
VERTEX
  8
Poly_PTE
 10
19.542000
 20
-2.653000
 30
0.0
 40
1.000000
 41
1.000000
  0
VERTEX
  8
Poly_PTE
 10
19.606000
 20
-3.130000
 30
0.0
 40
1.000000
 41
1.000000
  0
VERTEX
  8
Poly_PTE
 10
19.666000
 20
-3.611000
 30
0.0
 40
1.000000
 41
1.000000
  0
VERTEX
  8
Poly_PTE
 10
19.723000
 20
-4.096000
 30
0.0
 40
1.000000
 41
1.000000
  0
VERTEX
  8
Poly_PTE
 10
19.776000
 20
-4.584000
 30
0.0
 40
1.000000
 41
1.000000
  0
VERTEX
  8
Poly_PTE
 10
19.826000
 20
-5.075000
 30
0.0
 40
1.000000
 41
1.000000
  0
VERTEX
  8
Poly_PTE
 10
19.873000
 20
-5.570000
 30
0.0
 40
1.000000
 41
1.000000
  0
VERTEX
  8
Poly_PTE
 10
19.917000
 20
-6.067000
 30
0.0
 40
1.000000
 41
1.000000
  0
VERTEX
  8
Poly_PTE
 10
19.957000
 20
-6.568000
 30
0.0
 40
1.000000
 41
1.000000
  0
VERTEX
  8
Poly_PTE
 10
19.995000
 20
-7.072000
 30
0.0
 40
1.000000
 41
1.000000
  0
VERTEX
  8
Poly_PTE
 10
20.030000
 20
-7.578000
 30
0.0
 40
1.000000
 41
1.000000
  0
VERTEX
  8
Poly_PTE
 10
20.062000
 20
-8.087000
 30
0.0
 40
1.000000
 41
1.000000
  0
VERTEX
  8
Poly_PTE
 10
20.092000
 20
-8.599000
 30
0.0
 40
1.000000
 41
1.000000
  0
VERTEX
  8
Poly_PTE
 10
20.119000
 20
-9.114000
 30
0.0
 40
1.000000
 41
1.000000
  0
VERTEX
  8
Poly_PTE
 10
20.143000
 20
-9.630000
 30
0.0
 40
1.000000
 41
1.000000
  0
VERTEX
  8
Poly_PTE
 10
20.165000
 20
-10.149000
 30
0.0
 40
1.000000
 41
1.000000
  0
VERTEX
  8
Poly_PTE
 10
20.186000
 20
-10.671000
 30
0.0
 40
1.000000
 41
1.000000
  0
VERTEX
  8
Poly_PTE
 10
20.203000
 20
-11.194000
 30
0.0
 40
1.000000
 41
1.000000
  0
VERTEX
  8
Poly_PTE
 10
20.219000
 20
-11.719000
 30
0.0
 40
1.000000
 41
1.000000
  0
VERTEX
  8
Poly_PTE
 10
20.234000
 20
-12.247000
 30
0.0
 40
1.000000
 41
1.000000
  0
VERTEX
  8
Poly_PTE
 10
20.246000
 20
-12.775000
 30
0.0
 40
1.000000
 41
1.000000
  0
VERTEX
  8
Poly_PTE
 10
20.257000
 20
-13.306000
 30
0.0
 40
1.000000
 41
1.000000
  0
VERTEX
  8
Poly_PTE
 10
20.266000
 20
-13.838000
 30
0.0
 40
1.000000
 41
1.000000
  0
VERTEX
  8
Poly_PTE
 10
20.274000
 20
-14.372000
 30
0.0
 40
1.000000
 41
1.000000
  0
VERTEX
  8
Poly_PTE
 10
20.280000
 20
-14.906000
 30
0.0
 40
1.000000
 41
1.000000
  0
VERTEX
  8
Poly_PTE
 10
20.286000
 20
-15.442000
 30
0.0
 40
1.000000
 41
1.000000
  0
VERTEX
  8
Poly_PTE
 10
20.290000
 20
-15.980000
 30
0.0
 40
1.000000
 41
1.000000
  0
VERTEX
  8
Poly_PTE
 10
20.296000
 20
-17.056000
 30
0.0
 40
1.000000
 41
1.000000
  0
VERTEX
  8
Poly_PTE
 10
20.298000
 20
-17.596000
 30
0.0
 40
1.000000
 41
1.000000
  0
VERTEX
  8
Poly_PTE
 10
20.299000
 20
-18.136000
 30
0.0
 40
1.000000
 41
1.000000
  0
VERTEX
  8
Poly_PTE
 10
20.300000
 20
-18.677000
 30
0.0
 40
1.000000
 41
1.000000
  0
VERTEX
  8
Poly_PTE
 10
20.300000
 20
-30.300000
 30
0.0
 40
1.000000
 41
1.000000
  0
SEQEND
  8
Poly_PTE
  0
ENDBLK
  0
BLOCK
  2
CouplerBody
  3
CouplerBody
  8
0
 67
       0
 70
       0
 10
0.0
 20
0.0
 30
0.0
  0
INSERT
  8
0
  2
SineCircSine180_0p6_R018262128
 10
-2709.611000
 20
-1097.046000
 30
0.0
  0
ENDBLK
  0
ENDSEC
  0
SECTION
  2
ENTITIES
  0
INSERT
  8
0
  2
Actuator_StoppersCenter_Export
 10
-100.003000
 20
-37.613000
 30
0.0
  0
INSERT
  8
0
  2
CouplerBody
 10
1119.255000
 20
-2705.836000
 30
0.0
 50
270.000000
  0
INSERT
  8
0
  2
Actuator_StoppersCenter_Export
 10
-100.003000
 20
2.987000
 30
0.0
  0
ENDSEC
  0
EOF
